<?xml version="1.0" encoding="utf-8"?>
<!-- Generator: Adobe Illustrator 22.0.1, SVG Export Plug-In . SVG Version: 6.00 Build 0)  -->
<svg version="1.1" id="Слой_1" xmlns="http://www.w3.org/2000/svg" xmlns:xlink="http://www.w3.org/1999/xlink" x="0px" y="0px"
	 viewBox="0 0 100 100" style="enable-background:new 0 0 100 100;" xml:space="preserve">
<style type="text/css">
	.st0{fill:#008081;}
	.st1{fill:#fff;}

	</style>
<g>
	<g>
		<g>
			<polygon class="st0" points="50.8,55.4 26,67.3 1.6,55.4 25.1,44.1 			"/>
			<path class="st1" d="M26,68.5c-0.1,0-0.3,0-0.5-0.1L1,56.3c-0.3-0.2-0.6-0.6-0.6-1c0-0.5,0.2-0.8,0.6-1L24.5,43
				c0.3-0.1,0.6-0.1,0.9,0l25.7,11.3c0.3,0.1,0.7,0.6,0.7,1c0,0.5-0.2,0.8-0.6,1l-24.8,12C26.4,68.4,26.3,68.5,26,68.5z M4.2,55.4
				l22,10.7l22.1-10.7l-23.2-10L4.2,55.4z"/>
		</g>
		<g>
			<polygon class="st0" points="26,67.3 26,98.9 1.6,86.9 1.6,55.4 			"/>
			<path class="st1" d="M26,99.9c-0.1,0-0.3,0-0.5-0.1L1,87.8c-0.3-0.2-0.6-0.6-0.6-1V55.4c0-0.3,0.2-0.7,0.6-0.9
				c0.3-0.2,0.7-0.2,1,0l24.4,11.9c0.3,0.2,0.6,0.6,0.6,1v31.5c0,0.3-0.2,0.7-0.6,0.9C26.5,99.9,26.3,99.9,26,99.9z M2.6,86.2
				L25,97.1V68L2.6,57.1V86.2z"/>
		</g>
		<g>
			<polygon class="st0" points="26,67.3 26,98.9 50.6,86.9 50.8,55.4 			"/>
			<path class="st1" d="M26,99.9c-0.2,0-0.5,0-0.6-0.1c-0.3-0.2-0.6-0.6-0.6-0.9V67.3c0-0.5,0.2-0.8,0.6-1l24.8-12
				c0.3-0.1,0.8-0.1,1,0.1c0.3,0.2,0.5,0.6,0.5,0.9l-0.2,31.5c0,0.5-0.2,0.8-0.6,1L26.5,99.8C26.4,99.9,26.3,99.9,26,99.9z M27.2,68
				v29.1l22.3-10.9l0.2-29.1L27.2,68z"/>
		</g>
	</g>
	<g>
		<g>
			<polygon class="st0" points="98.4,55.4 73.7,67.3 49.2,55.4 72.7,44.1 			"/>
			<path class="st1" d="M73.7,68.5c-0.1,0-0.3,0-0.5-0.1L48.7,56.3c-0.3-0.2-0.6-0.6-0.6-1c0-0.5,0.2-0.8,0.6-1L72.2,43
				c0.3-0.1,0.6-0.1,0.9,0l25.7,11.3c0.3,0.1,0.7,0.6,0.7,1c0,0.5-0.2,0.8-0.6,1l-24.8,12C74,68.4,73.9,68.5,73.7,68.5z M51.7,55.4
				l22,10.7l22.1-10.7l-23.2-10L51.7,55.4z"/>
		</g>
		<g>
			<polygon class="st0" points="73.7,67.3 73.7,98.9 49.2,86.9 49.2,55.4 			"/>
			<path class="st1" d="M73.7,99.9c-0.1,0-0.3,0-0.5-0.1l-24.6-12c-0.3-0.2-0.6-0.6-0.6-1V55.4c0-0.3,0.2-0.7,0.6-0.9s0.7-0.2,1,0
				l24.4,11.9c0.3,0.2,0.6,0.6,0.6,1v31.5c0,0.3-0.2,0.7-0.6,0.9C74.1,99.9,73.9,99.9,73.7,99.9z M50.2,86.2l22.3,10.9V68L50.2,57.1
				V86.2z"/>
		</g>
		<g>
			<polygon class="st0" points="73.7,67.3 73.7,98.9 98.2,86.9 98.4,55.4 			"/>
			<path class="st1" d="M73.7,99.9c-0.2,0-0.5,0-0.6-0.1c-0.3-0.2-0.6-0.6-0.6-0.9V67.3c0-0.5,0.2-0.8,0.6-1l24.8-12
				c0.3-0.1,0.8-0.1,1,0.1c0.3,0.2,0.5,0.6,0.5,0.9l-0.2,31.5c0,0.5-0.2,0.8-0.6,1L74.2,99.8C74.1,99.9,73.9,99.9,73.7,99.9z
				 M74.8,68v29.1l22.3-10.9l0.2-29.1L74.8,68z"/>
		</g>
	</g>
	<g>
		<g>
			<polygon class="st0" points="74,12.4 49.2,24.4 24.6,12.4 48.1,1.1 			"/>
			<path class="st1" d="M49.2,25.6c-0.1,0-0.3,0-0.5-0.1L24.2,13.4c-0.3-0.2-0.6-0.6-0.6-1s0.2-0.8,0.6-1L47.7,0.1
				C48,0,48.3,0,48.6,0.1l25.8,11.3c0.3,0.1,0.7,0.6,0.7,1s-0.2,0.8-0.6,1l-24.9,12C49.5,25.5,49.3,25.6,49.2,25.6z M27.2,12.4
				l22,10.7l22.1-10.7l-23.2-10L27.2,12.4z"/>
		</g>
		<g>
			<polygon class="st0" points="49.2,24.4 49.2,55.9 24.6,44 24.6,12.4 			"/>
			<path class="st1" d="M49.2,57.1c-0.1,0-0.3,0-0.5-0.1L24.2,44.9c-0.3-0.2-0.6-0.6-0.6-1V12.4c0-0.3,0.2-0.7,0.6-0.9
				c0.3-0.2,0.7-0.2,1,0l24.6,12c0.3,0.2,0.6,0.6,0.6,1v31.5c0,0.3-0.2,0.7-0.6,0.9C49.5,57,49.4,57.1,49.2,57.1z M25.8,43.3
				l22.3,10.9V25.1L25.8,14.2V43.3z"/>
		</g>
		<g>
			<polygon class="st0" points="49.2,24.4 49.2,55.9 73.7,44 74,12.4 			"/>
			<path class="st1" d="M49.2,57.1c-0.2,0-0.5,0-0.6-0.1c-0.3-0.2-0.6-0.6-0.6-0.9V24.4c0-0.5,0.2-0.8,0.6-1l24.8-12
				c0.3-0.1,0.8-0.1,1,0.1c0.3,0.2,0.5,0.6,0.5,0.9L74.7,44c0,0.5-0.2,0.8-0.6,1L49.7,57C49.5,57,49.3,57.1,49.2,57.1z M50.2,25.1
				v29.1l22.3-10.9l0.2-29.1L50.2,25.1z"/>
		</g>
	</g>
</g>
</svg>
