<?xml version="1.0" encoding="utf-8"?>
<!-- Generator: Adobe Illustrator 24.0.2, SVG Export Plug-In . SVG Version: 6.00 Build 0)  -->
<svg version="1.1" id="Слой_1" xmlns="http://www.w3.org/2000/svg" xmlns:xlink="http://www.w3.org/1999/xlink" x="0px" y="0px"
	 viewBox="0 0 227.45 227.45" style="enable-background:new 0 0 227.45 227.45;" xml:space="preserve">
<style type="text/css">
	.st0{fill:#008081;stroke:#fff;stroke-width:5;stroke-linecap:round;stroke-linejoin:round;stroke-miterlimit:10;}
	.st1{fill:#008081;stroke:#fff;stroke-width:2;stroke-linecap:round;stroke-linejoin:round;stroke-miterlimit:10;}
	.st2{fill:none;stroke:#fff;stroke-width:2;stroke-linecap:round;stroke-linejoin:round;stroke-miterlimit:10;}
</style>
<g>
	<g>
		<polygon class="st0" points="43.55,60.65 43.55,186.65 141.55,138.65 142.55,12.65 		"/>
		<g>
			<polygon class="st0" points="123.02,4.11 25.57,51.84 43.55,60.65 142.55,12.65 			"/>
		</g>
		<polygon class="st0" points="24.55,52.34 24.55,177.34 43.55,186.65 43.55,61.65 		"/>
	</g>
	<line class="st1" x1="74.8" y1="94.96" x2="115.22" y2="76.27"/>
	<line class="st1" x1="74.8" y1="118.54" x2="115.22" y2="99.85"/>
	<g>
		<g>
			<polygon class="st0" points="153.56,108.02 125.3,121.71 97.33,108.02 124.16,95.17 			"/>
			<polygon class="st0" points="125.59,122 125.59,187.96 97.62,174.26 97.62,108.3 			"/>
			<polygon class="st0" points="125.59,122 125.59,187.96 153.56,174.26 153.84,108.3 			"/>
		</g>
		<g>
			<g>
				<path class="st2" d="M97.63,140.72"/>
				<path class="st2" d="M125.48,154.37"/>
				<path class="st2" d="M97.48,142.77"/>
				<path class="st2" d="M125.3,156.41"/>
				<path class="st2" d="M97.05,142.94"/>
				<path class="st2" d="M129.38,158.83"/>
			</g>
			<g>
				<line class="st2" x1="125.48" y1="158.65" x2="97.63" y2="145"/>
				<path class="st2" d="M97.48,147.05"/>
				<path class="st2" d="M125.3,160.69"/>
				<path class="st2" d="M97.05,147.22"/>
				<path class="st2" d="M129.38,163.11"/>
			</g>
			<g>
				<path class="st2" d="M97.63,148.99"/>
				<path class="st2" d="M125.48,162.64"/>
				<path class="st2" d="M97.48,151.05"/>
				<path class="st2" d="M125.3,164.68"/>
				<path class="st2" d="M97.05,151.22"/>
				<path class="st2" d="M129.38,167.11"/>
			</g>
			<g>
				<line class="st2" x1="125.48" y1="166.92" x2="97.63" y2="153.27"/>
				<path class="st2" d="M97.48,155.33"/>
				<path class="st2" d="M125.3,168.96"/>
				<path class="st2" d="M97.05,155.5"/>
				<path class="st2" d="M129.38,171.39"/>
			</g>
			<g>
				<path class="st2" d="M97.63,157.56"/>
				<path class="st2" d="M125.48,171.2"/>
				<path class="st2" d="M97.48,159.61"/>
				<path class="st2" d="M125.3,173.25"/>
				<path class="st2" d="M97.05,159.78"/>
				<path class="st2" d="M129.38,175.67"/>
			</g>
			<g>
				<line class="st2" x1="125.48" y1="175.49" x2="97.63" y2="161.84"/>
				<path class="st2" d="M97.48,163.89"/>
				<path class="st2" d="M125.3,177.53"/>
				<path class="st2" d="M97.05,164.06"/>
				<path class="st2" d="M129.38,179.95"/>
			</g>
			<g>
				<path class="st2" d="M97.63,165.83"/>
				<path class="st2" d="M125.48,179.48"/>
				<path class="st2" d="M97.48,167.89"/>
				<path class="st2" d="M125.3,181.52"/>
				<path class="st2" d="M97.05,168.06"/>
				<path class="st2" d="M129.38,183.94"/>
			</g>
			<g>
				<path class="st2" d="M97.63,169.31"/>
				<path class="st2" d="M125.48,182.96"/>
				<path class="st2" d="M97.48,172.17"/>
				<path class="st2" d="M125.3,185.8"/>
				<path class="st2" d="M97.05,172.34"/>
				<path class="st2" d="M129.38,188.23"/>
			</g>
		</g>
		<g>
			<g>
				<path class="st2" d="M153.71,140.72"/>
				<path class="st2" d="M125.86,154.37"/>
				<path class="st2" d="M153.85,142.77"/>
				<path class="st2" d="M126.03,156.41"/>
				<path class="st2" d="M154.28,142.94"/>
				<path class="st2" d="M121.96,158.83"/>
			</g>
			<g>
				<line class="st2" x1="125.86" y1="158.65" x2="153.71" y2="145"/>
				<path class="st2" d="M153.85,147.05"/>
				<path class="st2" d="M126.03,160.69"/>
				<path class="st2" d="M154.28,147.22"/>
				<path class="st2" d="M121.96,163.11"/>
			</g>
			<g>
				<path class="st2" d="M153.71,148.99"/>
				<path class="st2" d="M125.86,162.64"/>
				<path class="st2" d="M153.85,151.05"/>
				<path class="st2" d="M126.03,164.68"/>
				<path class="st2" d="M154.28,151.22"/>
				<path class="st2" d="M121.96,167.11"/>
			</g>
			<g>
				<line class="st2" x1="125.86" y1="166.92" x2="153.71" y2="153.27"/>
				<path class="st2" d="M153.85,155.33"/>
				<path class="st2" d="M126.03,168.96"/>
				<path class="st2" d="M154.28,155.5"/>
				<path class="st2" d="M121.96,171.39"/>
			</g>
			<g>
				<path class="st2" d="M153.71,157.56"/>
				<path class="st2" d="M125.86,171.2"/>
				<path class="st2" d="M153.85,159.61"/>
				<path class="st2" d="M126.03,173.25"/>
				<path class="st2" d="M154.28,159.78"/>
				<path class="st2" d="M121.96,175.67"/>
			</g>
			<g>
				<line class="st2" x1="125.86" y1="175.49" x2="153.71" y2="161.84"/>
				<path class="st2" d="M153.85,163.89"/>
				<path class="st2" d="M126.03,177.53"/>
				<path class="st2" d="M154.28,164.06"/>
				<path class="st2" d="M121.96,179.95"/>
			</g>
			<g>
				<path class="st2" d="M153.71,165.83"/>
				<path class="st2" d="M125.86,179.48"/>
				<path class="st2" d="M153.85,167.89"/>
				<path class="st2" d="M126.03,181.52"/>
				<path class="st2" d="M154.28,168.06"/>
				<path class="st2" d="M121.96,183.94"/>
			</g>
			<g>
				<path class="st2" d="M153.71,169.31"/>
				<path class="st2" d="M125.86,182.96"/>
				<path class="st2" d="M153.85,172.17"/>
				<path class="st2" d="M126.03,185.8"/>
				<path class="st2" d="M154.28,172.34"/>
				<path class="st2" d="M121.96,188.23"/>
			</g>
		</g>
		<g>
			<g>
				<g>
					<line class="st2" x1="125.48" y1="121.37" x2="97.63" y2="107.72"/>
					<path class="st2" d="M97.48,109.77"/>
					<path class="st2" d="M125.3,123.41"/>
					<path class="st2" d="M97.05,109.94"/>
					<path class="st2" d="M129.38,125.83"/>
				</g>
				<g>
					<line class="st2" x1="125.48" y1="125.65" x2="97.63" y2="112"/>
					<path class="st2" d="M97.48,114.05"/>
					<path class="st2" d="M125.3,127.69"/>
					<path class="st2" d="M97.05,114.22"/>
					<path class="st2" d="M129.38,130.11"/>
				</g>
				<g>
					<path class="st2" d="M97.63,115.99"/>
					<path class="st2" d="M125.48,129.64"/>
					<path class="st2" d="M97.48,118.05"/>
					<path class="st2" d="M125.3,131.68"/>
					<path class="st2" d="M97.05,118.22"/>
					<path class="st2" d="M129.38,134.11"/>
				</g>
				<g>
					<line class="st2" x1="125.48" y1="133.92" x2="97.63" y2="120.27"/>
					<path class="st2" d="M97.48,122.33"/>
					<path class="st2" d="M125.3,135.96"/>
					<path class="st2" d="M97.05,122.5"/>
					<path class="st2" d="M129.38,138.39"/>
				</g>
				<g>
					<path class="st2" d="M97.63,124.56"/>
					<path class="st2" d="M125.48,138.2"/>
					<path class="st2" d="M97.48,126.61"/>
					<path class="st2" d="M125.3,140.25"/>
					<path class="st2" d="M97.05,126.78"/>
					<path class="st2" d="M129.38,142.67"/>
				</g>
				<g>
					<line class="st2" x1="125.48" y1="142.49" x2="97.63" y2="128.84"/>
					<path class="st2" d="M97.48,130.89"/>
					<path class="st2" d="M125.3,144.53"/>
					<path class="st2" d="M97.05,131.06"/>
					<path class="st2" d="M129.38,146.95"/>
				</g>
				<g>
					<path class="st2" d="M97.63,132.83"/>
					<path class="st2" d="M125.48,146.48"/>
					<path class="st2" d="M97.48,134.89"/>
					<path class="st2" d="M125.3,148.52"/>
					<path class="st2" d="M97.05,135.06"/>
					<path class="st2" d="M129.38,150.94"/>
				</g>
				<g>
					<line class="st2" x1="125.48" y1="149.96" x2="97.63" y2="136.31"/>
					<path class="st2" d="M97.48,139.17"/>
					<path class="st2" d="M125.3,152.8"/>
					<path class="st2" d="M97.05,139.34"/>
					<path class="st2" d="M129.38,155.23"/>
				</g>
			</g>
			<g>
				<g>
					<line class="st2" x1="125.86" y1="121.37" x2="153.71" y2="107.72"/>
					<path class="st2" d="M153.85,109.77"/>
					<path class="st2" d="M126.03,123.41"/>
					<path class="st2" d="M154.28,109.94"/>
					<path class="st2" d="M121.96,125.83"/>
				</g>
				<g>
					<line class="st2" x1="125.86" y1="125.65" x2="153.71" y2="112"/>
					<path class="st2" d="M153.85,114.05"/>
					<path class="st2" d="M126.03,127.69"/>
					<path class="st2" d="M154.28,114.22"/>
					<path class="st2" d="M121.96,130.11"/>
				</g>
				<g>
					<path class="st2" d="M153.71,115.99"/>
					<path class="st2" d="M125.86,129.64"/>
					<path class="st2" d="M153.85,118.05"/>
					<path class="st2" d="M126.03,131.68"/>
					<path class="st2" d="M154.28,118.22"/>
					<path class="st2" d="M121.96,134.11"/>
				</g>
				<g>
					<line class="st2" x1="125.86" y1="133.92" x2="153.71" y2="120.27"/>
					<path class="st2" d="M153.85,122.33"/>
					<path class="st2" d="M126.03,135.96"/>
					<path class="st2" d="M154.28,122.5"/>
					<path class="st2" d="M121.96,138.39"/>
				</g>
				<g>
					<path class="st2" d="M153.71,124.56"/>
					<path class="st2" d="M125.86,138.2"/>
					<path class="st2" d="M153.85,126.61"/>
					<path class="st2" d="M126.03,140.25"/>
					<path class="st2" d="M154.28,126.78"/>
					<path class="st2" d="M121.96,142.67"/>
				</g>
				<g>
					<line class="st2" x1="125.86" y1="142.49" x2="153.71" y2="128.84"/>
					<path class="st2" d="M153.85,130.89"/>
					<path class="st2" d="M126.03,144.53"/>
					<path class="st2" d="M154.28,131.06"/>
					<path class="st2" d="M121.96,146.95"/>
				</g>
				<g>
					<path class="st2" d="M153.71,132.83"/>
					<path class="st2" d="M125.86,146.48"/>
					<path class="st2" d="M153.85,134.89"/>
					<path class="st2" d="M126.03,148.52"/>
					<path class="st2" d="M154.28,135.06"/>
					<path class="st2" d="M121.96,150.94"/>
				</g>
				<g>
					<line class="st2" x1="125.86" y1="149.96" x2="153.71" y2="136.31"/>
					<path class="st2" d="M153.85,139.17"/>
					<path class="st2" d="M126.03,152.8"/>
					<path class="st2" d="M154.28,139.34"/>
					<path class="st2" d="M121.96,155.23"/>
				</g>
			</g>
		</g>
		<g>
			<g>
				<path class="st2" d="M153.35,140.72"/>
				<path class="st2" d="M125.5,154.37"/>
				<path class="st2" d="M153.49,142.77"/>
				<path class="st2" d="M125.67,156.41"/>
				<path class="st2" d="M153.92,142.94"/>
				<path class="st2" d="M121.6,158.83"/>
			</g>
			<g>
				<path class="st2" d="M153.35,145"/>
				<path class="st2" d="M125.5,158.65"/>
				<path class="st2" d="M153.49,147.05"/>
				<path class="st2" d="M125.67,160.69"/>
				<path class="st2" d="M153.92,147.22"/>
				<path class="st2" d="M121.6,163.11"/>
			</g>
			<g>
				<path class="st2" d="M153.35,148.99"/>
				<path class="st2" d="M125.5,162.64"/>
				<path class="st2" d="M153.49,151.05"/>
				<path class="st2" d="M125.67,164.68"/>
				<path class="st2" d="M153.92,151.22"/>
				<path class="st2" d="M121.6,167.11"/>
			</g>
			<g>
				<path class="st2" d="M153.35,153.27"/>
				<path class="st2" d="M125.5,166.92"/>
				<path class="st2" d="M153.49,155.33"/>
				<path class="st2" d="M125.67,168.96"/>
				<path class="st2" d="M153.92,155.5"/>
				<path class="st2" d="M121.6,171.39"/>
			</g>
			<g>
				<path class="st2" d="M153.35,157.56"/>
				<path class="st2" d="M125.5,171.2"/>
				<path class="st2" d="M153.49,159.61"/>
				<path class="st2" d="M125.67,173.25"/>
				<path class="st2" d="M153.92,159.78"/>
				<path class="st2" d="M121.6,175.67"/>
			</g>
			<g>
				<path class="st2" d="M153.35,161.84"/>
				<path class="st2" d="M125.5,175.49"/>
				<path class="st2" d="M153.49,163.89"/>
				<path class="st2" d="M125.67,177.53"/>
				<path class="st2" d="M153.92,164.06"/>
				<path class="st2" d="M121.6,179.95"/>
			</g>
			<g>
				<path class="st2" d="M153.35,165.83"/>
				<path class="st2" d="M125.5,179.48"/>
				<path class="st2" d="M153.49,167.89"/>
				<path class="st2" d="M125.67,181.52"/>
				<path class="st2" d="M153.92,168.06"/>
				<path class="st2" d="M121.6,183.94"/>
			</g>
			<g>
				<path class="st2" d="M153.35,170.11"/>
				<path class="st2" d="M125.5,183.76"/>
				<line class="st2" x1="125.67" y1="185.8" x2="153.49" y2="172.17"/>
				<path class="st2" d="M153.92,172.34"/>
				<path class="st2" d="M121.6,188.23"/>
			</g>
		</g>
	</g>
	<g>
		<polygon class="st0" points="113.56,157.02 85.3,170.71 57.33,157.02 84.16,144.17 		"/>
		<polygon class="st0" points="85.59,171 85.59,206.96 57.62,193.26 57.62,157.3 		"/>
		<polygon class="st0" points="85.59,171 85.59,206.96 113.56,193.26 113.84,157.3 		"/>
		<g>
			<g>
				<line class="st2" x1="85.48" y1="173.37" x2="57.63" y2="159.72"/>
				<path class="st2" d="M57.48,161.77"/>
				<path class="st2" d="M85.3,175.41"/>
				<path class="st2" d="M57.05,161.94"/>
				<path class="st2" d="M89.38,177.83"/>
			</g>
			<g>
				<path class="st2" d="M57.63,164"/>
				<path class="st2" d="M85.48,177.65"/>
				<path class="st2" d="M57.48,166.05"/>
				<path class="st2" d="M85.3,179.69"/>
				<path class="st2" d="M57.05,166.22"/>
				<path class="st2" d="M89.38,182.11"/>
			</g>
			<g>
				<line class="st2" x1="85.48" y1="181.64" x2="57.63" y2="167.99"/>
				<path class="st2" d="M57.48,170.05"/>
				<path class="st2" d="M85.3,183.68"/>
				<path class="st2" d="M57.05,170.22"/>
				<path class="st2" d="M89.38,186.11"/>
			</g>
			<g>
				<path class="st2" d="M57.63,172.27"/>
				<path class="st2" d="M85.48,185.92"/>
				<path class="st2" d="M57.48,174.33"/>
				<path class="st2" d="M85.3,187.96"/>
				<path class="st2" d="M57.05,174.5"/>
				<path class="st2" d="M89.38,190.39"/>
			</g>
			<g>
				<line class="st2" x1="85.48" y1="190.2" x2="57.63" y2="176.56"/>
				<path class="st2" d="M57.48,178.61"/>
				<path class="st2" d="M85.3,192.25"/>
				<path class="st2" d="M57.05,178.78"/>
				<path class="st2" d="M89.38,194.67"/>
			</g>
			<g>
				<path class="st2" d="M57.63,180.84"/>
				<path class="st2" d="M85.48,194.49"/>
				<path class="st2" d="M57.48,182.89"/>
				<path class="st2" d="M85.3,196.53"/>
				<path class="st2" d="M57.05,183.06"/>
				<path class="st2" d="M89.38,198.95"/>
			</g>
			<g>
				<line class="st2" x1="85.48" y1="198.48" x2="57.63" y2="184.83"/>
				<path class="st2" d="M57.48,186.89"/>
				<path class="st2" d="M85.3,200.52"/>
				<path class="st2" d="M57.05,187.06"/>
				<path class="st2" d="M89.38,202.94"/>
			</g>
			<g>
				<path class="st2" d="M57.63,188.31"/>
				<path class="st2" d="M85.48,201.96"/>
				<path class="st2" d="M57.48,191.17"/>
				<path class="st2" d="M85.3,204.8"/>
				<path class="st2" d="M57.05,191.34"/>
				<path class="st2" d="M89.38,207.23"/>
			</g>
		</g>
		<g>
			<g>
				<line class="st2" x1="85.86" y1="173.37" x2="113.71" y2="159.72"/>
				<path class="st2" d="M113.85,161.77"/>
				<path class="st2" d="M86.03,175.41"/>
				<path class="st2" d="M114.28,161.94"/>
				<path class="st2" d="M81.96,177.83"/>
			</g>
			<g>
				<path class="st2" d="M113.71,164"/>
				<path class="st2" d="M85.86,177.65"/>
				<path class="st2" d="M113.85,166.05"/>
				<path class="st2" d="M86.03,179.69"/>
				<path class="st2" d="M114.28,166.22"/>
				<path class="st2" d="M81.96,182.11"/>
			</g>
			<g>
				<line class="st2" x1="85.86" y1="181.64" x2="113.71" y2="167.99"/>
				<path class="st2" d="M113.85,170.05"/>
				<path class="st2" d="M86.03,183.68"/>
				<path class="st2" d="M114.28,170.22"/>
				<path class="st2" d="M81.96,186.11"/>
			</g>
			<g>
				<path class="st2" d="M113.71,172.27"/>
				<path class="st2" d="M85.86,185.92"/>
				<path class="st2" d="M113.85,174.33"/>
				<path class="st2" d="M86.03,187.96"/>
				<path class="st2" d="M114.28,174.5"/>
				<path class="st2" d="M81.96,190.39"/>
			</g>
			<g>
				<line class="st2" x1="85.86" y1="190.2" x2="113.71" y2="176.56"/>
				<path class="st2" d="M113.85,178.61"/>
				<path class="st2" d="M86.03,192.25"/>
				<path class="st2" d="M114.28,178.78"/>
				<path class="st2" d="M81.96,194.67"/>
			</g>
			<g>
				<path class="st2" d="M113.71,180.84"/>
				<path class="st2" d="M85.86,194.49"/>
				<path class="st2" d="M113.85,182.89"/>
				<path class="st2" d="M86.03,196.53"/>
				<path class="st2" d="M114.28,183.06"/>
				<path class="st2" d="M81.96,198.95"/>
			</g>
			<g>
				<line class="st2" x1="85.86" y1="198.48" x2="113.71" y2="184.83"/>
				<path class="st2" d="M113.85,186.89"/>
				<path class="st2" d="M86.03,200.52"/>
				<path class="st2" d="M114.28,187.06"/>
				<path class="st2" d="M81.96,202.94"/>
			</g>
			<g>
				<path class="st2" d="M113.71,188.31"/>
				<path class="st2" d="M85.86,201.96"/>
				<path class="st2" d="M113.85,191.17"/>
				<path class="st2" d="M86.03,204.8"/>
				<path class="st2" d="M114.28,191.34"/>
				<path class="st2" d="M81.96,207.23"/>
			</g>
		</g>
		<g>
			<g>
				<line class="st2" x1="85.5" y1="173.37" x2="113.35" y2="159.72"/>
				<path class="st2" d="M113.49,161.77"/>
				<path class="st2" d="M85.67,175.41"/>
				<path class="st2" d="M113.92,161.94"/>
				<path class="st2" d="M81.6,177.83"/>
			</g>
			<g>
				<path class="st2" d="M113.35,164"/>
				<path class="st2" d="M85.5,177.65"/>
				<path class="st2" d="M113.49,166.05"/>
				<path class="st2" d="M85.67,179.69"/>
				<path class="st2" d="M113.92,166.22"/>
				<path class="st2" d="M81.6,182.11"/>
			</g>
			<g>
				<path class="st2" d="M113.35,167.99"/>
				<path class="st2" d="M85.5,181.64"/>
				<path class="st2" d="M113.49,170.05"/>
				<path class="st2" d="M85.67,183.68"/>
				<path class="st2" d="M113.92,170.22"/>
				<path class="st2" d="M81.6,186.11"/>
			</g>
			<g>
				<path class="st2" d="M113.35,172.27"/>
				<path class="st2" d="M85.5,185.92"/>
				<path class="st2" d="M113.49,174.33"/>
				<path class="st2" d="M85.67,187.96"/>
				<path class="st2" d="M113.92,174.5"/>
				<path class="st2" d="M81.6,190.39"/>
			</g>
			<g>
				<path class="st2" d="M113.35,176.56"/>
				<path class="st2" d="M85.5,190.2"/>
				<path class="st2" d="M113.49,178.61"/>
				<path class="st2" d="M85.67,192.25"/>
				<path class="st2" d="M113.92,178.78"/>
				<path class="st2" d="M81.6,194.67"/>
			</g>
			<g>
				<path class="st2" d="M113.35,180.84"/>
				<path class="st2" d="M85.5,194.49"/>
				<path class="st2" d="M113.49,182.89"/>
				<path class="st2" d="M85.67,196.53"/>
				<path class="st2" d="M113.92,183.06"/>
				<path class="st2" d="M81.6,198.95"/>
			</g>
			<g>
				<path class="st2" d="M113.35,184.83"/>
				<path class="st2" d="M85.5,198.48"/>
				<path class="st2" d="M113.49,186.89"/>
				<path class="st2" d="M85.67,200.52"/>
				<path class="st2" d="M113.92,187.06"/>
				<path class="st2" d="M81.6,202.94"/>
			</g>
			<g>
				<path class="st2" d="M113.35,189.11"/>
				<path class="st2" d="M85.5,202.76"/>
				<line class="st2" x1="85.67" y1="204.8" x2="113.49" y2="191.17"/>
				<path class="st2" d="M113.92,191.34"/>
				<path class="st2" d="M81.6,207.23"/>
			</g>
		</g>
	</g>
	<g>
		<polygon class="st0" points="135.32,223.09 208.55,186.8 175.79,171.77 117.55,187.8 		"/>
		<path class="st0" d="M108.55,198.94c0,8.48,7.03,18.56,16.14,22.71c9.64,4.39,17.86,0.53,17.86-8.86s-8.23-19.96-17.86-23.42
			C115.58,186.11,108.55,190.46,108.55,198.94z"/>
		<path class="st0" d="M118.55,202.66c0,3.37,2.79,7.37,6.41,9.02c3.83,1.74,7.09,0.21,7.09-3.52s-3.27-7.92-7.09-9.3
			C121.34,197.56,118.55,199.29,118.55,202.66z"/>
		<path class="st0" d="M106.96,206.03l16.24-7.15c5.41,4.51,8.12,10.82,8.12,10.82l-14.88,7.75L106.96,206.03z"/>
		<path class="st0" d="M106.05,208.68c0,3.04,2.52,6.65,5.78,8.13c3.45,1.57,6.4,0.19,6.4-3.17c0-3.36-2.95-7.15-6.4-8.39
			C108.57,204.08,106.05,205.64,106.05,208.68z"/>
	</g>
</g>
</svg>
