<?xml version="1.0" encoding="utf-8"?>
<!-- Generator: Adobe Illustrator 24.0.2, SVG Export Plug-In . SVG Version: 6.00 Build 0)  -->
<svg version="1.1" id="Слой_1" xmlns="http://www.w3.org/2000/svg" xmlns:xlink="http://www.w3.org/1999/xlink" x="0px" y="0px"
	 viewBox="0 0 227.45 227.45" style="enable-background:new 0 0 227.45 227.45;" xml:space="preserve">
<style type="text/css">
	.st0{fill:#008081;stroke:#fff;stroke-width:5;stroke-linecap:round;stroke-linejoin:round;stroke-miterlimit:10;}
	.st1{fill:#008081;stroke:#fff;stroke-width:2;stroke-linecap:round;stroke-linejoin:round;stroke-miterlimit:10;}
</style>
<g>
	<polygon class="st0" points="35.68,86.32 107.66,50.66 75.46,24.09 18.23,51.64 	"/>
	<path class="st0" d="M117.88,3.97L18.1,51.29c0,0,66.86,13.37,66.86,70.98c0,87.44,32.92,101.84,32.92,101.84l101.84-48.35
		c0,0-29.83-37.03-29.83-97.08C189.89,20.19,117.88,3.97,117.88,3.97z"/>
	<line class="st1" x1="88.58" y1="167.49" x2="150.8" y2="138.73"/>
	<line class="st1" x1="95.78" y1="188.06" x2="144.63" y2="165.48"/>
	<path class="st0" d="M9.38,62.59c0,8.33,6.91,18.24,15.86,22.32c9.47,4.32,17.56,0.52,17.56-8.7S34.71,56.6,25.24,53.19
		C16.29,49.98,9.38,54.26,9.38,62.59z"/>
	<path class="st0" d="M19.21,66.24c0,3.31,2.74,7.24,6.3,8.86c3.76,1.71,6.97,0.21,6.97-3.46s-3.21-7.79-6.97-9.14
		C21.95,61.23,19.21,62.93,19.21,66.24z"/>
</g>
</svg>
