<?xml version="1.0" encoding="utf-8"?>
<!-- Generator: Adobe Illustrator 24.0.2, SVG Export Plug-In . SVG Version: 6.00 Build 0)  -->
<svg version="1.1" id="Слой_1" xmlns="http://www.w3.org/2000/svg" xmlns:xlink="http://www.w3.org/1999/xlink" x="0px" y="0px"
	 viewBox="0 0 227.45 227.45" style="enable-background:new 0 0 227.45 227.45;" xml:space="preserve">
<style type="text/css">
	.st0{fill:#008081;stroke:#fff;stroke-width:5;stroke-linecap:round;stroke-linejoin:round;stroke-miterlimit:10;}
	.st1{fill:#008081;stroke:#fff;stroke-width:2;stroke-linecap:round;stroke-linejoin:round;stroke-miterlimit:10;}
</style>
<g>
	<g>
		<polygon class="st0" points="214.05,50.33 115.05,98.33 17.05,50.33 111.05,5.33 		"/>
		<polygon class="st0" points="115.05,98.33 115.05,224.33 17.05,176.33 17.05,50.33 		"/>
		<polygon class="st0" points="115.05,98.33 115.05,224.33 213.05,176.33 214.05,50.33 		"/>
		<g>
			<line class="st1" x1="26.12" y1="56.24" x2="26.12" y2="182.24"/>
			<line class="st1" x1="35.05" y1="59.33" x2="35.05" y2="185.33"/>
			<line class="st1" x1="45.05" y1="65.33" x2="45.05" y2="191.33"/>
			<line class="st1" x1="55.05" y1="70.33" x2="55.05" y2="196.33"/>
			<line class="st1" x1="65.05" y1="75.33" x2="65.05" y2="201.33"/>
			<line class="st1" x1="75.05" y1="80.33" x2="75.05" y2="206.33"/>
			<line class="st1" x1="85.05" y1="85.33" x2="85.05" y2="211.33"/>
			<line class="st1" x1="95.05" y1="90.33" x2="95.05" y2="216.33"/>
			<line class="st1" x1="105.05" y1="94.33" x2="105.05" y2="220.33"/>
		</g>
		<g>
			<line class="st1" x1="204.05" y1="56.24" x2="204.05" y2="182.24"/>
			<line class="st1" x1="195.12" y1="59.33" x2="195.12" y2="185.33"/>
			<line class="st1" x1="185.12" y1="65.33" x2="185.12" y2="191.33"/>
			<line class="st1" x1="175.12" y1="70.33" x2="175.12" y2="196.33"/>
			<line class="st1" x1="165.12" y1="75.33" x2="165.12" y2="201.33"/>
			<line class="st1" x1="155.12" y1="80.33" x2="155.12" y2="206.33"/>
			<line class="st1" x1="145.12" y1="85.33" x2="145.12" y2="211.33"/>
			<line class="st1" x1="135.12" y1="90.33" x2="135.12" y2="216.33"/>
			<line class="st1" x1="125.12" y1="94.33" x2="125.12" y2="220.33"/>
		</g>
		<path class="st1" d="M95.97,89.88"/>
		<path class="st1" d="M193.7,41.8"/>
		<path class="st1" d="M89.97,84.88"/>
		<path class="st1" d="M187.7,36.8"/>
		<path class="st1" d="M82.97,80.88"/>
		<path class="st1" d="M180.7,32.8"/>
		<g>
			<line class="st1" x1="194.8" y1="40.13" x2="97.08" y2="88.2"/>
			<line class="st1" x1="202.8" y1="46.13" x2="105.08" y2="94.2"/>
			<line class="st1" x1="149.7" y1="22.8" x2="55.97" y2="68.88"/>
			<line class="st1" x1="140.7" y1="17.8" x2="46.97" y2="63.88"/>
			<line class="st1" x1="129.7" y1="14.8" x2="36.97" y2="59.88"/>
			<line class="st1" x1="120.7" y1="9.8" x2="26.97" y2="54.88"/>
			<line class="st1" x1="159.26" y1="27.72" x2="65.53" y2="73.8"/>
			<line class="st1" x1="169.26" y1="32.72" x2="75.53" y2="78.8"/>
			<line class="st1" x1="181.26" y1="36.72" x2="87.53" y2="82.8"/>
		</g>
		<g>
			<line class="st1" x1="125.12" y1="93.45" x2="26.97" y2="45.58"/>
			<line class="st1" x1="135.12" y1="88.45" x2="36.97" y2="40.58"/>
			<line class="st1" x1="155.12" y1="78.45" x2="56.97" y2="30.58"/>
			<line class="st1" x1="145.12" y1="83.45" x2="46.97" y2="35.58"/>
			<line class="st1" x1="164.12" y1="73.45" x2="65.97" y2="25.58"/>
			<line class="st1" x1="174.12" y1="68.45" x2="75.97" y2="20.58"/>
			<line class="st1" x1="184.12" y1="64.45" x2="85.97" y2="16.58"/>
			<line class="st1" x1="191.12" y1="59.45" x2="95.97" y2="13.58"/>
			<line class="st1" x1="203.12" y1="56.45" x2="101.97" y2="9.58"/>
		</g>
	</g>
	<g>
		<line class="st1" x1="115.75" y1="110.28" x2="17.59" y2="62.42"/>
		<line class="st1" x1="115.75" y1="119.28" x2="17.59" y2="71.42"/>
		<line class="st1" x1="115.75" y1="128.28" x2="17.59" y2="80.42"/>
		<line class="st1" x1="115.75" y1="136.28" x2="17.59" y2="88.42"/>
		<line class="st1" x1="115.75" y1="145.28" x2="17.59" y2="97.42"/>
		<line class="st1" x1="115.75" y1="154.28" x2="17.59" y2="106.42"/>
		<line class="st1" x1="115.75" y1="162.28" x2="17.59" y2="114.42"/>
		<line class="st1" x1="115.75" y1="171.28" x2="17.59" y2="123.42"/>
		<line class="st1" x1="115.75" y1="180.28" x2="17.59" y2="132.42"/>
		<line class="st1" x1="115.75" y1="189.28" x2="17.59" y2="141.42"/>
		<line class="st1" x1="115.75" y1="198.28" x2="17.59" y2="150.42"/>
		<line class="st1" x1="115.75" y1="207.28" x2="17.59" y2="159.42"/>
		<line class="st1" x1="115.75" y1="215.28" x2="17.59" y2="167.42"/>
	</g>
	<g>
		<line class="st1" x1="113.59" y1="110.28" x2="211.75" y2="62.42"/>
		<line class="st1" x1="113.59" y1="119.28" x2="211.75" y2="71.42"/>
		<line class="st1" x1="113.59" y1="128.28" x2="211.75" y2="80.42"/>
		<line class="st1" x1="113.59" y1="136.28" x2="211.75" y2="88.42"/>
		<line class="st1" x1="113.59" y1="145.28" x2="211.75" y2="97.42"/>
		<line class="st1" x1="113.59" y1="154.28" x2="211.75" y2="106.42"/>
		<line class="st1" x1="113.59" y1="162.28" x2="211.75" y2="114.42"/>
		<line class="st1" x1="113.59" y1="171.28" x2="211.75" y2="123.42"/>
		<line class="st1" x1="113.59" y1="180.28" x2="211.75" y2="132.42"/>
		<line class="st1" x1="113.59" y1="189.28" x2="211.75" y2="141.42"/>
		<line class="st1" x1="113.59" y1="198.28" x2="211.75" y2="150.42"/>
		<line class="st1" x1="113.59" y1="207.28" x2="211.75" y2="159.42"/>
		<line class="st1" x1="113.59" y1="215.28" x2="211.75" y2="167.42"/>
	</g>
</g>
</svg>
