<?xml version="1.0" encoding="utf-8"?>
<!-- Generator: Adobe Illustrator 24.0.2, SVG Export Plug-In . SVG Version: 6.00 Build 0)  -->
<svg version="1.1" id="Слой_1" xmlns="http://www.w3.org/2000/svg" xmlns:xlink="http://www.w3.org/1999/xlink" x="0px" y="0px"
	 viewBox="0 0 227.45 227.45" style="enable-background:new 0 0 227.45 227.45;" xml:space="preserve">
<style type="text/css">
	.st0{fill:#008081;stroke:#fff;stroke-width:5;stroke-linecap:round;stroke-linejoin:round;stroke-miterlimit:10;}
	.st1{fill:#008081;stroke:#fff;stroke-width:2;stroke-linecap:round;stroke-linejoin:round;stroke-miterlimit:10;}
</style>
<g>
	<polygon class="st0" points="34.68,86.11 106.66,50.44 74.46,23.88 17.23,51.43 	"/>
	<path class="st0" d="M116.88,3.76L17.1,51.08c0,0,66.86,13.37,66.86,70.98c0,87.44,32.92,101.84,32.92,101.84l101.84-48.35
		c0,0-29.83-37.03-29.83-97.08C188.89,19.98,116.88,3.76,116.88,3.76z"/>
	<path class="st0" d="M8.38,62.38c0,8.33,6.91,18.24,15.86,22.32c9.47,4.32,17.56,0.52,17.56-8.7s-8.09-19.61-17.56-23.01
		C15.29,49.77,8.38,54.04,8.38,62.38z"/>
	<path class="st0" d="M18.21,66.03c0,3.31,2.74,7.24,6.3,8.86c3.76,1.71,6.97,0.21,6.97-3.46s-3.21-7.79-6.97-9.14
		C20.95,61.02,18.21,62.72,18.21,66.03z"/>
	<path class="st1" d="M74.23,66.03c0,3.31,2.74,7.24,6.3,8.86c3.76,1.71,6.97,0.21,6.97-3.46s-3.21-7.79-6.97-9.14
		C76.97,61.02,74.23,62.72,74.23,66.03z"/>
	<path class="st1" d="M95.85,55.22c0,3.31,2.74,7.24,6.3,8.86c3.76,1.71,6.97,0.21,6.97-3.46s-3.21-7.79-6.97-9.14
		C98.59,50.21,95.85,51.91,95.85,55.22z"/>
	<path class="st1" d="M117.47,43.43c0,3.31,2.74,7.24,6.3,8.86c3.76,1.71,6.97,0.21,6.97-3.46c0-3.66-3.21-7.79-6.97-9.14
		C120.21,38.42,117.47,40.12,117.47,43.43z"/>
	<path class="st1" d="M140.07,32.62c0,3.31,2.74,7.24,6.3,8.86c3.76,1.71,6.97,0.21,6.97-3.46c0-3.66-3.21-7.79-6.97-9.14
		C142.81,27.61,140.07,29.31,140.07,32.62z"/>
	<path class="st1" d="M90.52,87.27c-1.27,3.05-0.26,7.74,2.4,10.6c2.81,3.03,6.35,2.88,7.76-0.5c1.41-3.38,0.04-8.42-2.91-11.12
		C94.98,83.7,91.8,84.22,90.52,87.27z"/>
	<path class="st1" d="M114.11,75.48c-1.27,3.05-0.26,7.74,2.4,10.6c2.81,3.03,6.35,2.88,7.76-0.5s0.04-8.42-2.91-11.12
		C118.57,71.91,115.38,72.42,114.11,75.48z"/>
	<path class="st1" d="M137.69,63.68c-1.27,3.05-0.26,7.74,2.4,10.6c2.81,3.03,6.35,2.88,7.76-0.5s0.04-8.42-2.91-11.12
		C142.15,60.12,138.97,60.63,137.69,63.68z"/>
	<path class="st1" d="M161.28,53.86c-1.27,3.05-0.26,7.74,2.4,10.6c2.81,3.03,6.35,2.88,7.76-0.5s0.04-8.42-2.91-11.12
		C165.74,50.29,162.55,50.8,161.28,53.86z"/>
	<path class="st1" d="M105.26,169.82c-1.27,3.05-0.26,7.74,2.4,10.6c2.81,3.03,6.35,2.88,7.76-0.5c1.41-3.38,0.04-8.42-2.91-11.12
		C109.72,166.26,106.54,166.77,105.26,169.82z"/>
	<path class="st1" d="M100.62,141.3c-1.92,2.69-1.97,7.49-0.02,10.87c2.07,3.58,5.55,4.22,7.68,1.23c2.13-2.98,1.91-8.2-0.37-11.49
		C105.76,138.82,102.54,138.61,100.62,141.3z"/>
	<path class="st1" d="M98.13,113.51c-2.12,2.54-2.53,7.32-0.83,10.84c1.79,3.72,5.22,4.62,7.57,1.8c2.34-2.82,2.51-8.04,0.49-11.48
		C103.44,111.42,100.25,110.97,98.13,113.51z"/>
	<path class="st1" d="M122.7,101.72c-2.12,2.54-2.53,7.32-0.83,10.84c1.79,3.72,5.22,4.62,7.57,1.8c2.34-2.82,2.51-8.04,0.49-11.48
		C128.01,99.63,124.82,99.18,122.7,101.72z"/>
	<path class="st1" d="M145.3,89.93c-2.12,2.54-2.53,7.32-0.83,10.84c1.79,3.72,5.22,4.62,7.57,1.8c2.34-2.82,2.51-8.04,0.49-11.48
		C150.61,87.83,147.42,87.39,145.3,89.93z"/>
	<path class="st1" d="M168.89,79.12c-2.12,2.54-2.53,7.32-0.83,10.84c1.79,3.72,5.22,4.62,7.57,1.8c2.34-2.82,2.51-8.04,0.49-11.48
		C174.2,77.02,171.01,76.57,168.89,79.12z"/>
	<path class="st1" d="M125.19,129.51c-1.92,2.69-1.97,7.49-0.02,10.87c2.07,3.58,5.55,4.22,7.68,1.24c2.13-2.98,1.91-8.2-0.37-11.49
		C130.33,127.02,127.11,126.81,125.19,129.51z"/>
	<path class="st1" d="M148.77,118.7c-1.92,2.69-1.97,7.49-0.02,10.87c2.07,3.58,5.55,4.22,7.68,1.23c2.13-2.98,1.91-8.2-0.37-11.49
		C153.91,116.21,150.69,116,148.77,118.7z"/>
	<path class="st1" d="M172.36,107.89c-1.92,2.69-1.97,7.49-0.02,10.87c2.07,3.58,5.55,4.22,7.68,1.23c2.13-2.98,1.91-8.2-0.37-11.49
		C177.5,105.4,174.28,105.19,172.36,107.89z"/>
	<path class="st1" d="M128.85,158.03c-1.27,3.05-0.26,7.74,2.4,10.6c2.81,3.03,6.35,2.88,7.76-0.5c1.41-3.38,0.04-8.42-2.91-11.12
		C133.31,154.46,130.12,154.97,128.85,158.03z"/>
	<path class="st1" d="M152.44,146.23c-1.27,3.05-0.26,7.74,2.4,10.6c2.81,3.03,6.35,2.88,7.76-0.5s0.04-8.42-2.91-11.12
		C156.89,142.67,153.71,143.18,152.44,146.23z"/>
	<path class="st1" d="M176.02,136.41c-1.27,3.05-0.26,7.74,2.4,10.6c2.81,3.03,6.35,2.88,7.76-0.5c1.41-3.38,0.04-8.42-2.91-11.12
		C180.48,132.84,177.3,133.35,176.02,136.41z"/>
	<path class="st1" d="M116.49,197.72c0,3.31,2.74,7.24,6.3,8.86c3.76,1.71,6.97,0.21,6.97-3.46c0-3.66-3.21-7.79-6.97-9.14
		C119.23,192.71,116.49,194.41,116.49,197.72z"/>
	<path class="st1" d="M138.11,186.91c0,3.31,2.74,7.24,6.3,8.86c3.76,1.71,6.97,0.21,6.97-3.46c0-3.66-3.21-7.79-6.97-9.14
		C140.85,181.9,138.11,183.6,138.11,186.91z"/>
	<path class="st1" d="M161.69,176.1c0,3.31,2.74,7.24,6.3,8.86c3.76,1.71,6.97,0.21,6.97-3.46c0-3.66-3.21-7.79-6.97-9.14
		C164.43,171.09,161.69,172.79,161.69,176.1z"/>
	<path class="st1" d="M183.31,165.29c0,3.31,2.74,7.24,6.3,8.86c3.76,1.71,6.97,0.21,6.97-3.46c0-3.66-3.21-7.79-6.97-9.14
		C186.05,160.28,183.31,161.98,183.31,165.29z"/>
	<path class="st1" d="M114,18.24c1.09,3.13,4.97,5.94,8.86,6.3c4.11,0.38,6.65-2.1,5.45-5.56c-1.2-3.46-5.59-6.3-9.59-6.34
		C114.94,12.61,112.91,15.12,114,18.24z"/>
	<path class="st1" d="M94.34,28.07c1.09,3.13,4.97,5.94,8.86,6.3c4.11,0.38,6.65-2.1,5.45-5.56s-5.59-6.3-9.59-6.34
		C95.29,22.44,93.26,24.94,94.34,28.07z"/>
	<path class="st1" d="M73.71,37.9c1.09,3.13,4.97,5.94,8.86,6.3c4.11,0.38,6.65-2.1,5.45-5.56s-5.59-6.3-9.59-6.34
		C74.65,32.27,72.62,34.77,73.71,37.9z"/>
	<path class="st1" d="M51.1,48.71c1.09,3.13,4.97,5.94,8.86,6.3c4.11,0.38,6.65-2.1,5.45-5.56c-1.2-3.46-5.59-6.3-9.59-6.34
		C52.05,43.08,50.01,45.58,51.1,48.71z"/>
</g>
</svg>
