<?xml version="1.0" encoding="utf-8"?>
<!-- Generator: Adobe Illustrator 24.0.2, SVG Export Plug-In . SVG Version: 6.00 Build 0)  -->
<svg version="1.1" id="Слой_1" xmlns="http://www.w3.org/2000/svg" xmlns:xlink="http://www.w3.org/1999/xlink" x="0px" y="0px"
	 viewBox="0 0 227.45 227.45" style="enable-background:new 0 0 227.45 227.45;" xml:space="preserve">
<style type="text/css">
	.st0{fill:#008081;stroke:#fff;stroke-width:5;stroke-linecap:round;stroke-linejoin:round;stroke-miterlimit:10;}
	.st1{fill:#008081;stroke:#fff;stroke-width:2;stroke-linecap:round;stroke-linejoin:round;stroke-miterlimit:10;}
</style>
<g>
	<polygon class="st0" points="213.05,49.33 114.05,97.33 16.05,49.33 110.05,4.33 	"/>
	<polygon class="st0" points="114.05,97.33 114.05,223.33 16.05,175.33 16.05,49.33 	"/>
	<polygon class="st0" points="114.05,97.33 114.05,223.33 212.05,175.33 213.05,49.33 	"/>
	<polygon class="st1" points="77.55,22.33 174.05,67.33 174.05,195.66 153.05,205.33 153.05,79.33 56.05,33 	"/>
	<polygon class="st1" points="149.55,22.33 53.05,67.33 53.05,195.66 74.05,205.33 74.05,79.33 171.05,33 	"/>
</g>
<line class="st1" x1="93.05" y1="77.86" x2="107.05" y2="71.39"/>
<line class="st1" x1="65.05" y1="54.86" x2="79.05" y2="48.39"/>
<line class="st1" x1="114.05" y1="80.86" x2="128.05" y2="74.39"/>
<line class="st1" x1="35.05" y1="48.86" x2="49.05" y2="42.39"/>
<line class="st1" x1="154.05" y1="48.86" x2="168.05" y2="42.39"/>
<line class="st1" x1="101.05" y1="19.86" x2="115.05" y2="13.39"/>
<line class="st1" x1="170.05" y1="48.86" x2="184.05" y2="42.39"/>
<line class="st1" x1="49.05" y1="52.86" x2="63.05" y2="46.39"/>
<line class="st1" x1="25.02" y1="85.34" x2="25.09" y2="69.92"/>
<line class="st1" x1="34.02" y1="103.34" x2="34.09" y2="87.92"/>
<line class="st1" x1="84.02" y1="108.34" x2="84.09" y2="92.92"/>
<line class="st1" x1="27.02" y1="129.34" x2="27.09" y2="113.92"/>
<line class="st1" x1="34.02" y1="158.34" x2="34.09" y2="142.92"/>
<line class="st1" x1="84.02" y1="161.34" x2="84.09" y2="145.92"/>
<line class="st1" x1="201.02" y1="102.34" x2="201.09" y2="86.92"/>
<line class="st1" x1="184.02" y1="117.34" x2="184.09" y2="101.92"/>
<line class="st1" x1="203.02" y1="155.34" x2="203.09" y2="139.92"/>
<line class="st1" x1="130.02" y1="163.34" x2="130.09" y2="147.92"/>
<line class="st1" x1="102.02" y1="198.34" x2="102.09" y2="182.92"/>
<line class="st1" x1="184.02" y1="177.34" x2="184.09" y2="161.92"/>
<line class="st1" x1="136.02" y1="198.34" x2="136.09" y2="182.92"/>
<line class="st1" x1="47.02" y1="98.34" x2="47.09" y2="82.92"/>
<line class="st1" x1="44.02" y1="134.34" x2="44.09" y2="118.92"/>
<line class="st1" x1="93.02" y1="134.34" x2="93.09" y2="118.92"/>
<line class="st1" x1="191.02" y1="89.34" x2="191.09" y2="73.92"/>
<line class="st1" x1="143.02" y1="150.34" x2="143.09" y2="134.92"/>
<line class="st1" x1="194.02" y1="140.34" x2="194.09" y2="124.92"/>
<line class="st1" x1="139.02" y1="111.34" x2="139.09" y2="95.92"/>
<line class="st1" x1="126.02" y1="128.34" x2="126.09" y2="112.92"/>
<line class="st1" x1="101.02" y1="165.34" x2="101.09" y2="149.92"/>
<line class="st1" x1="47.02" y1="177.34" x2="47.09" y2="161.92"/>
<line class="st1" x1="112.05" y1="30.86" x2="126.05" y2="24.39"/>
<line class="st1" x1="177.05" y1="56.86" x2="191.05" y2="50.39"/>
<g>
	<g>
		<path class="st0" d="M85.28,30.33c11.25,0,17.24,5.49,28.22,14.5c-10.97,8.23-16.96,14.5-28.22,14.5S64.9,52.84,64.9,44.83
			S74.03,30.33,85.28,30.33z"/>
		<path class="st0" d="M140.83,59.33c-11.53,0-17.66-5.41-28.9-14.3c11.24-8.12,17.37-14.3,28.9-14.3c11.53,0,20.87,6.4,20.87,14.3
			S152.36,59.33,140.83,59.33z"/>
	</g>
	<rect x="104.49" y="36.6" class="st0" width="16.46" height="16.46"/>
</g>
</svg>
