<?xml version="1.0" encoding="utf-8"?>
<!-- Generator: Adobe Illustrator 24.0.2, SVG Export Plug-In . SVG Version: 6.00 Build 0)  -->
<svg version="1.1" id="Слой_1" xmlns="http://www.w3.org/2000/svg" xmlns:xlink="http://www.w3.org/1999/xlink" x="0px" y="0px"
	 viewBox="0 0 227.45 227.45" style="enable-background:new 0 0 227.45 227.45;" xml:space="preserve">
<style type="text/css">
	.st0{fill:#008081;stroke:#fff;stroke-width:5;stroke-linecap:round;stroke-linejoin:round;stroke-miterlimit:10;}
</style>
<g>
	<polygon class="st0" points="212.01,175.29 113.01,223.29 15.01,175.29 109.01,130.29 	"/>
	<polygon class="st0" points="212.01,157.29 113.01,205.29 15.01,157.29 109.01,112.29 	"/>
	<polygon class="st0" points="212.01,139.29 113.01,187.29 15.01,139.29 109.01,94.29 	"/>
	<polygon class="st0" points="212.01,121.29 113.01,169.29 15.01,121.29 109.01,76.29 	"/>
	<polygon class="st0" points="212.01,103.29 113.01,151.29 15.01,103.29 109.01,58.29 	"/>
	<polygon class="st0" points="212.01,85.29 113.01,133.29 15.01,85.29 109.01,40.29 	"/>
	<polygon class="st0" points="212.01,67.29 113.01,115.29 15.01,67.29 109.01,22.29 	"/>
	<polygon class="st0" points="212.01,49.29 113.01,97.29 15.01,49.29 109.01,4.29 	"/>
</g>
</svg>
