<svg version="1.1" id="Слой_1" xmlns="http://www.w3.org/2000/svg" xmlns:xlink="http://www.w3.org/1999/xlink" x="0px" y="0px"
	 viewBox="0 0 100 100" style="enable-background:new 0 0 100 100;" xml:space="preserve">
<style type="text/css">
	.st0{fill:#008081;}
	.st1{fill:#fff;}
</style>
<g>
	<g>
		<polygon class="st0" points="94,21.2 49.8,42.6 6,21.2 48,1.1 		"/>
		<path class="st1" d="M49.8,43.7c-0.2,0-0.3,0-0.5-0.1L5.5,22.2c-0.4-0.2-0.7-0.5-0.7-1s0.2-0.9,0.7-1l42-20.1c0.3-0.1,0.7-0.1,1,0
			l46,20.1c0.4,0.2,0.7,0.5,0.7,1s-0.2,0.9-0.7,1L50.2,43.6C50.1,43.7,49.9,43.7,49.8,43.7z M8.6,21.2l41.2,20.2l41.5-20.2L48,2.3
			L8.6,21.2z"/>
	</g>
	<g>
		<polygon class="st0" points="49.8,42.6 49.8,98.9 6,77.5 6,21.2 		"/>
		<path class="st1" d="M49.8,100c-0.2,0-0.3,0-0.5-0.1L5.5,78.5c-0.4-0.2-0.7-0.5-0.7-1V21.2c0-0.4,0.2-0.8,0.5-1s0.8-0.2,1.1-0.1
			l43.8,21.4c0.4,0.2,0.7,0.5,0.7,1v56.4c0,0.4-0.2,0.8-0.5,1C50.2,100,50,100,49.8,100z M7.2,76.8l41.5,20.3V43.4L7.2,22.9V76.8z"
			/>
	</g>
	<g>
		<polygon class="st0" points="49.8,42.6 49.8,98.9 93.6,77.5 94,21.2 		"/>
		<path class="st1" d="M49.8,100c-0.2,0-0.4-0.1-0.5-0.2c-0.3-0.2-0.5-0.5-0.5-1V42.6c0-0.4,0.2-0.9,0.7-1l44.2-21.4
			c0.3-0.2,0.8-0.1,1.1,0.1c0.3,0.2,0.5,0.5,0.5,1l-0.4,56.3c0,0.4-0.2,0.8-0.7,1L50.2,99.9C50.1,100,49.9,100,49.8,100z M50.9,43.4
			v53.8l41.5-20.4l0.4-53.8L50.9,43.4z"/>
	</g>
	<g>
		<polygon class="st0" points="33.5,9.1 76.5,29.2 76.5,52.2 67.2,56.5 67.2,34.6 23.9,13.9 		"/>
		<path class="st1" d="M67.2,57.6c-0.2,0-0.4-0.1-0.7-0.2c-0.3-0.2-0.5-0.5-0.5-1V35.3L23.4,14.9c-0.4-0.2-0.7-0.5-0.7-1
			s0.2-0.9,0.7-1l9.6-4.8c0.3-0.1,0.7-0.1,1,0l43.2,20.1c0.4,0.2,0.7,0.5,0.7,1v22.9c0,0.4-0.2,0.9-0.7,1l-9.4,4.4
			C67.5,57.6,67.4,57.6,67.2,57.6z M26.4,13.9l41.3,19.7c0.4,0.2,0.7,0.5,0.7,1v20.1l7.2-3.3V29.9l-42-19.6L26.4,13.9z"/>
	</g>
</g>
</svg>
