
<svg version="1.1" id="Слой_1" xmlns="http://www.w3.org/2000/svg" xmlns:xlink="http://www.w3.org/1999/xlink" x="0px" y="0px"
	 viewBox="0 0 100 100" style="enable-background:new 0 0 100 100;" xml:space="preserve">
<style type="text/css">
	.st0{fill:#008081;}
	.st1{fill:#fff;}
	.st2{fill:#008081;}
</style>
<g>
	<g>
		<g>
			<polygon class="st0" points="94,21.2 49.8,42.7 6,21.2 48,1.1 			"/>
			<path class="st1" d="M49.8,43.8c-0.2,0-0.3,0-0.4-0.1L5.4,22.2c-0.3-0.2-0.7-0.6-0.7-1c0-0.4,0.2-0.8,0.7-1L47.6,0.1
				c0.3-0.1,0.7-0.1,0.9,0l46,20c0.4,0.2,0.7,0.6,0.7,1c0,0.4-0.2,0.9-0.7,1L50.2,43.7C50.1,43.7,49.9,43.8,49.8,43.8z M8.5,21.2
				l41.2,20.2l41.6-20.1L48,2.4L8.5,21.2z"/>
		</g>
		<g>
			<polygon class="st0" points="49.8,42.7 49.8,98.9 6,77.5 6,21.2 			"/>
			<path class="st1" d="M49.8,100c-0.2,0-0.3,0-0.4-0.1L5.4,78.5c-0.3-0.2-0.7-0.6-0.7-1V21.2c0-0.3,0.2-0.8,0.6-1
				c0.3-0.2,0.8-0.2,1.1,0l43.8,21.5c0.3,0.2,0.7,0.6,0.7,1v56.3c0,0.3-0.2,0.8-0.6,1C50.2,100,50,100,49.8,100z M7.1,76.8
				l41.6,20.3V43.3L7.1,23V76.8z"/>
		</g>
		<g>
			<polygon class="st0" points="49.8,42.7 49.8,98.9 93.6,77.5 94,21.2 			"/>
			<path class="st1" d="M49.8,100c-0.2,0-0.4-0.1-0.6-0.2c-0.3-0.2-0.6-0.6-0.6-1V42.7c0-0.4,0.2-0.8,0.7-1l44.2-21.5
				c0.3-0.2,0.8-0.1,1.1,0.1c0.3,0.2,0.6,0.6,0.6,1l-0.4,56.4c0,0.4-0.2,0.8-0.7,1L50.2,99.9C50.1,100,49.9,100,49.8,100z
				 M50.9,43.3v53.8l41.6-20.3L92.9,23L50.9,43.3z"/>
		</g>
	</g>
	<g>
		<g>
			<polyline class="st2" points="7.8,48.2 18.5,27.4 23.4,29.7 27.3,55.7 34.5,35.9 40.4,39 46.7,66.5 42.8,49.6 27.4,55.6 25,40 
				8.8,47.7 			"/>
			<path class="st1" d="M46.7,67.6c-0.6,0-1-0.3-1.1-0.9L41.9,51L28,56.4c-0.2,0.2-0.6,0.3-0.9,0.3c-0.6,0-0.9-0.4-1-0.9l-2.2-14.3
				L9.1,48.7c-0.2,0.1-0.3,0.1-0.6,0.1c-0.3,0.6-1,0.7-1.4,0.4c-0.6-0.3-0.8-1-0.4-1.6l10.8-20.8c0.2-0.6,0.9-0.8,1.4-0.6l4.9,2.2
				c0.3,0.1,0.6,0.4,0.7,0.9L26,39.8l1.9,11.3l5.7-15.6c0.1-0.3,0.3-0.6,0.7-0.7c0.3-0.1,0.7-0.1,0.9,0.1l5.8,3.1
				c0.3,0.1,0.4,0.4,0.6,0.8l6.3,27.2c0.1,0.6-0.2,1.2-0.9,1.3C46.9,67.6,46.8,67.6,46.7,67.6z M35.2,37.5l-5.9,16.1l12.2-4.8
				l-2.1-9L35.2,37.5z M19,28.9l-8.7,16.8l13.5-6.3l-1.3-8.9L19,28.9z"/>
		</g>
		<g>
			<polyline class="st2" points="7.8,75 18.5,54.2 23.4,56.4 27.3,82.6 34.5,62.8 40.4,65.9 46.7,96.8 42.8,76.3 27.4,82.5 25,66.8 
				8.8,74.5 			"/>
			<path class="st1" d="M46.7,97.9c-0.6,0-1-0.3-1.1-0.9l-3.9-19l-13.5,5.3c-0.2,0.2-0.6,0.3-0.9,0.3c-0.6,0-0.9-0.4-1-0.9
				l-2.2-14.3L9.3,75.6c-0.2,0-0.4,0-0.6,0c-0.3,0.6-1,0.7-1.4,0.4c-0.6-0.3-0.8-1-0.4-1.6l10.8-20.8c0.2-0.6,0.9-0.8,1.4-0.6
				l4.9,2.2c0.3,0.1,0.6,0.4,0.7,0.9l1.6,10.3L28,77.9l5.7-15.6c0.1-0.3,0.3-0.6,0.7-0.7c0.3-0.1,0.7-0.1,0.9,0.1l5.8,3.1
				c0.3,0.1,0.4,0.4,0.6,0.8l2,9.8c0.2,0.1,0.3,0.4,0.4,0.7l3.8,20.5c0.1,0.6-0.3,1.2-0.9,1.3C46.9,97.9,46.8,97.9,46.7,97.9z
				 M35.2,64.3l-5.9,16.1l12-4.8l-1.9-9.1L35.2,64.3z M19,55.7l-8.7,16.8l13.5-6.3l-1.3-8.9L19,55.7z"/>
		</g>
	</g>
	<g>
		<g>
			<polyline class="st2" points="91.8,48.2 81,27.4 76.1,29.7 72.2,55.7 65,35.9 59.1,39 52.8,66.5 56.8,49.6 72.1,55.6 74.6,40 
				90.8,47.7 			"/>
			<path class="st1" d="M52.8,67.6c-0.1,0-0.2,0-0.2,0c-0.6-0.1-1-0.8-0.9-1.3L58,38.9c0.1-0.3,0.2-0.6,0.6-0.8l5.8-3.1
				c0.3-0.1,0.7-0.2,0.9-0.1c0.3,0.1,0.6,0.3,0.7,0.7l5.7,15.6l1.8-11.3l0,0l1.6-10.2c0.1-0.3,0.3-0.7,0.7-0.9l4.9-2.2
				c0.6-0.2,1.2,0,1.4,0.6l10.8,20.8c0.3,0.6,0.1,1.2-0.4,1.6c-0.6,0.2-1.2,0.1-1.4-0.4c-0.2,0-0.3,0-0.6-0.1l-14.8-7.1L73.2,56
				c-0.1,0.6-0.4,0.9-1,0.9c-0.3,0-0.7-0.1-0.9-0.3l-13.9-5.4l-3.6,15.6C53.8,67.1,53.3,67.6,52.8,67.6z M58,48.8l12.2,4.8
				l-5.9-16.1l-4.2,2.2L58,48.8z M75.8,39.3l13.5,6.3l-8.7-16.8l-3.4,1.6L75.8,39.3z"/>
		</g>
		<g>
			<polyline class="st2" points="91.8,75 81,54.2 76.1,56.4 72.2,82.6 65,62.8 59.1,65.9 52.8,96.8 56.8,76.3 72.1,82.5 74.6,66.8 
				90.8,74.5 			"/>
			<path class="st1" d="M52.8,97.9c-0.1,0-0.1,0-0.2,0c-0.6-0.1-1-0.7-0.9-1.3l3.9-20.5c0-0.2,0.2-0.6,0.4-0.7l2-9.8
				c0.1-0.3,0.2-0.6,0.6-0.8l5.8-3.1c0.3-0.1,0.7-0.2,0.9-0.1c0.3,0.1,0.6,0.3,0.7,0.7l5.7,15.6l1.8-11.3l0,0l1.6-10.2
				c0.1-0.3,0.3-0.7,0.7-0.9l4.9-2.2c0.6-0.2,1.2,0,1.4,0.6l10.8,20.8c0.3,0.6,0.1,1.2-0.4,1.6c-0.6,0.2-1.2,0.1-1.4-0.4
				c-0.2,0-0.3,0-0.6-0.1l-14.8-7.1l-2.2,14.3c-0.1,0.6-0.4,0.9-1,0.9c-0.3,0-0.7-0.1-0.9-0.3L57.8,78l-3.9,19
				C53.8,97.6,53.3,97.9,52.8,97.9z M58.2,75.8l12,4.8l-5.9-16.1l-4.2,2.2L58.2,75.8z M75.8,66.1l13.5,6.3l-8.7-16.8l-3.4,1.6
				L75.8,66.1z"/>
		</g>
	</g>
	<g>
		<path class="st1" d="M49.8,69.7c-0.2,0-0.3,0-0.4-0.1L5.4,47.8c-0.6-0.2-0.8-1-0.6-1.4c0.2-0.6,1-0.8,1.4-0.6l43.4,21.5l43.8-21.6
			c0.6-0.2,1.2,0,1.4,0.6c0.2,0.6,0,1.2-0.6,1.4L50.2,69.6C50.1,69.7,50,69.7,49.8,69.7z"/>
	</g>
</g>
</svg>
