<?xml version="1.0" encoding="utf-8"?>
<!-- Generator: Adobe Illustrator 22.0.1, SVG Export Plug-In . SVG Version: 6.00 Build 0)  -->
<svg version="1.1" id="Слой_1" xmlns="http://www.w3.org/2000/svg" xmlns:xlink="http://www.w3.org/1999/xlink" x="0px" y="0px"
	 viewBox="0 0 100 100" style="enable-background:new 0 0 100 100;" xml:space="preserve">
<style type="text/css">
	.st0{fill:#008081;}
	.st1{fill:#fff;}
	.st2{fill:none;}
</style>
<g>
	<g>
		<g>
			<g>
				<polygon class="st0" points="14.3,26 14.3,81.2 57.3,60.2 57.7,5 				"/>
				<path class="st1" d="M14.3,82.3c-0.2,0-0.4-0.1-0.6-0.2c-0.3-0.2-0.6-0.6-0.6-0.9V26c0-0.4,0.2-0.8,0.7-1L57.2,4
					c0.3-0.1,0.8-0.1,1.1,0.1c0.3,0.2,0.6,0.6,0.6,0.9l-0.4,55.2c0,0.4-0.2,0.8-0.7,1l-42.9,21C14.6,82.3,14.4,82.3,14.3,82.3z
					 M15.4,26.8v52.7l40.7-19.9l0.4-52.9L15.4,26.8z"/>
			</g>
			<g>
				<g>
					<polygon class="st0" points="49.1,1.2 6.4,22.1 14.3,26 57.7,5 					"/>
					<path class="st1" d="M14.3,27.1c-0.1,0-0.3,0-0.4-0.1L6,23.1c-0.3-0.2-0.7-0.6-0.7-1c0-0.4,0.3-0.8,0.7-1L48.7,0.2
						c0.3-0.1,0.7-0.1,0.9,0L58.1,4c0.4,0.2,0.7,0.6,0.7,1c0,0.4-0.2,0.8-0.7,1L14.8,27C14.6,27.1,14.4,27.1,14.3,27.1z M8.9,22.1
						l5.4,2.6L55.1,5.1l-5.9-2.5L8.9,22.1z"/>
				</g>
			</g>
			<g>
				<polygon class="st0" points="6,21.9 6,77.1 14.3,81.2 14.3,26 				"/>
				<path class="st1" d="M14.3,82.3c-0.1,0-0.3,0-0.4-0.1l-8.4-4.1c-0.4-0.1-0.7-0.6-0.7-1V21.9c0-0.3,0.2-0.8,0.6-0.9
					c0.3-0.2,0.8-0.2,1.1,0l8.4,4.1c0.3,0.2,0.7,0.6,0.7,1v55.2c0,0.3-0.2,0.8-0.6,0.9C14.6,82.3,14.5,82.3,14.3,82.3z M7.1,76.4
					l6.2,3V26.8l-6.2-3.1V76.4z"/>
			</g>
			<g>
				<line class="st2" x1="48.9" y1="1.3" x2="48.9" y2="9.3"/>
				<path class="st1" d="M48.9,10.4c-0.6,0-1.1-0.4-1.1-1.1V1.3c0-0.6,0.4-1.1,1.1-1.1S50,0.7,50,1.3v7.9
					C50,9.8,49.6,10.4,48.9,10.4z"/>
			</g>
		</g>
		<g>
			<g>
				<polygon class="st0" points="31.4,33.9 31.4,89.1 74.3,68.1 74.8,12.9 				"/>
				<path class="st1" d="M31.4,90.2c-0.2,0-0.4-0.1-0.6-0.2c-0.3-0.2-0.6-0.6-0.6-0.9V33.9c0-0.4,0.2-0.8,0.7-1l43.3-21
					c0.3-0.2,0.8-0.1,1.1,0.1s0.6,0.6,0.6,0.9l-0.4,55.2c0,0.4-0.2,0.8-0.7,1l-42.9,21C31.7,90.2,31.5,90.2,31.4,90.2z M32.5,34.6
					v52.7l40.7-19.9l0.4-52.7L32.5,34.6z"/>
			</g>
			<g>
				<g>
					<polygon class="st0" points="66.2,9.1 23.5,30.1 31.4,33.9 74.8,12.9 					"/>
					<path class="st1" d="M31.4,35c-0.1,0-0.3,0-0.4-0.1L23,31.1c-0.3-0.2-0.7-0.6-0.7-1c0-0.4,0.2-0.8,0.7-1L65.7,8.2
						c0.3-0.1,0.7-0.1,0.9,0l8.6,3.7c0.4,0.2,0.7,0.6,0.7,1c0,0.4-0.2,0.8-0.7,1l-43.4,21C31.7,35,31.5,35,31.4,35z M26,30.1
						l5.4,2.6L72.1,13l-5.9-2.6L26,30.1z"/>
				</g>
			</g>
			<g>
				<polygon class="st0" points="23,29.8 23,85 31.4,89.1 31.4,33.9 				"/>
				<path class="st1" d="M31.4,90.2c-0.1,0-0.3,0-0.4-0.1L22.6,86c-0.3-0.2-0.7-0.6-0.7-1V29.8c0-0.3,0.2-0.8,0.6-0.9
					c0.3-0.2,0.8-0.2,1.1,0l8.4,4.1c0.3,0.2,0.7,0.6,0.7,1v55.2c0,0.3-0.2,0.8-0.6,0.9C31.8,90.1,31.6,90.2,31.4,90.2z M24.1,84.4
					l6.2,3V34.6l-6.2-3C24.1,31.6,24.1,84.4,24.1,84.4z"/>
			</g>
			<g>
				<line class="st2" x1="66" y1="9.1" x2="66" y2="17.2"/>
				<path class="st1" d="M66,18.2c-0.6,0-1.1-0.4-1.1-1.1V9.1C64.9,8.6,65.3,8,66,8c0.6,0,1.1,0.4,1.1,1.1v7.9
					C67.1,17.7,66.6,18.2,66,18.2z"/>
			</g>
		</g>
		<g>
			<g>
				<polygon class="st0" points="50.7,43.5 50.7,98.8 93.6,77.7 94,22.5 				"/>
				<path class="st1" d="M50.7,99.9c-0.2,0-0.4-0.1-0.6-0.2c-0.3-0.2-0.6-0.6-0.6-0.9V43.5c0-0.4,0.2-0.8,0.7-1l43.4-21
					c0.3-0.2,0.8-0.1,1.1,0.1c0.3,0.2,0.6,0.6,0.6,0.9l-0.4,55.2c0,0.4-0.2,0.8-0.7,1l-43.1,21C51,99.8,50.8,99.9,50.7,99.9z
					 M51.8,44.3V97l40.7-19.9l0.4-52.9L51.8,44.3z"/>
			</g>
			<g>
				<g>
					<polygon class="st0" points="85.5,18.8 42.7,39.6 50.7,43.5 94,22.5 					"/>
					<path class="st1" d="M50.7,44.6c-0.1,0-0.3,0-0.4-0.1l-7.9-3.9c-0.3-0.2-0.7-0.6-0.7-1s0.2-0.8,0.7-1L85,17.7
						c0.3-0.1,0.7-0.1,0.9,0l8.6,3.7c0.4,0.2,0.7,0.6,0.7,1c0,0.4-0.2,0.8-0.7,1l-43.4,21C51,44.6,50.8,44.6,50.7,44.6z M45.3,39.6
						l5.4,2.6l40.7-19.7L85.5,20L45.3,39.6z"/>
				</g>
			</g>
			<g>
				<polygon class="st0" points="42.3,39.4 42.3,94.7 50.7,98.8 50.7,43.5 				"/>
				<path class="st1" d="M50.7,99.9c-0.1,0-0.3,0-0.4-0.1l-8.4-4.1c-0.3-0.2-0.7-0.6-0.7-1V39.4c0-0.3,0.2-0.8,0.6-0.9
					c0.3-0.2,0.8-0.2,1.1,0l8.4,4.1c0.3,0.2,0.7,0.6,0.7,1v55.2c0,0.3-0.2,0.8-0.6,0.9C51.1,99.8,50.9,99.9,50.7,99.9z M43.4,93.9
					l6.2,3V44.3l-6.2-3.1V93.9z"/>
			</g>
			<g>
				<line class="st2" x1="85.2" y1="18.8" x2="85.2" y2="26.8"/>
				<path class="st1" d="M85.2,27.9c-0.6,0-1.1-0.4-1.1-1.1v-7.9c0-0.6,0.4-1.1,1.1-1.1c0.7,0,1.1,0.4,1.1,1.1v7.9
					C86.3,27.4,85.9,27.9,85.2,27.9z"/>
			</g>
		</g>
	</g>
	<g>
		<ellipse transform="matrix(0.5028 -0.8644 0.8644 0.5028 5.4874 85.0617)" class="st1" cx="76.7" cy="37.8" rx="1.3" ry="0.9"/>
		<ellipse transform="matrix(0.5028 -0.8644 0.8644 0.5028 -3.742 78.7775)" class="st1" cx="66.6" cy="42.6" rx="1.3" ry="0.9"/>
	</g>
	<g>
		<ellipse transform="matrix(0.5028 -0.8644 0.8644 0.5028 8.3986 75.3707)" class="st1" cx="69.7" cy="30.4" rx="1.3" ry="0.9"/>
		<ellipse transform="matrix(0.5028 -0.8644 0.8644 0.5028 -0.721 69.087)" class="st1" cx="59.7" cy="35.2" rx="1.3" ry="0.9"/>
	</g>
	<g>
		<ellipse transform="matrix(0.5028 -0.8644 0.8644 0.5028 7.5454 63.2647)" class="st1" cx="58.8" cy="25.1" rx="1.3" ry="0.9"/>
		<ellipse transform="matrix(0.5028 -0.8644 0.8644 0.5028 -1.684 56.9804)" class="st1" cx="48.7" cy="30" rx="1.3" ry="0.9"/>
	</g>
	<g>
		<ellipse transform="matrix(0.5028 -0.8644 0.8644 0.5028 8.1857 54.7853)" class="st1" cx="51.7" cy="20.3" rx="1.3" ry="0.9"/>
		<ellipse transform="matrix(0.5028 -0.8644 0.8644 0.5028 -1.0435 48.501)" class="st1" cx="41.6" cy="25.2" rx="1.3" ry="0.9"/>
	</g>
	<g>
		<ellipse transform="matrix(0.5028 -0.8644 0.8644 0.5028 6.5889 45.1836)" class="st1" cx="42.6" cy="16.9" rx="1.3" ry="0.9"/>
		<ellipse transform="matrix(0.5028 -0.8644 0.8644 0.5028 -2.5301 38.7901)" class="st1" cx="32.5" cy="21.6" rx="1.3" ry="0.9"/>
	</g>
	<g>
		<ellipse transform="matrix(0.5028 -0.8644 0.8644 0.5028 8.1582 37.2417)" class="st1" cx="36.5" cy="11.5" rx="1.3" ry="0.9"/>
		<ellipse transform="matrix(0.5028 -0.8644 0.8644 0.5028 -1.0712 30.9574)" class="st1" cx="26.4" cy="16.4" rx="1.3" ry="0.9"/>
	</g>
</g>
</svg>
