<?xml version="1.0" encoding="utf-8"?>
<!-- Generator: Adobe Illustrator 22.0.1, SVG Export Plug-In . SVG Version: 6.00 Build 0)  -->
<svg version="1.1" id="Слой_1" xmlns="http://www.w3.org/2000/svg" xmlns:xlink="http://www.w3.org/1999/xlink" x="0px" y="0px"
	 viewBox="0 0 100 100" style="enable-background:new 0 0 100 100;" xml:space="preserve">
<style type="text/css">
	.st0{fill:#008081;}
	.st1{fill:#fff;}
	.st2{fill:none;}

</style>
<g>
	<g>
		<g>
			<g>
				<path class="st0" d="M46.2,64.9l29.4-14c5.5-12.2-4.9-46.7-35.2-49.7L19.3,11.6L46.2,64.9z"/>
				<path class="st1" d="M46.2,66.1c-0.5,0-0.8-0.2-1-0.6L18.3,12.1c-0.1-0.2-0.1-0.6-0.1-0.9c0.1-0.2,0.3-0.6,0.6-0.7L39.9,0.1
					C40.1,0,40.3,0,40.5,0c17.9,1.8,27.4,14,31.4,21.1c6.1,10.5,8,23.1,4.8,30.2c-0.1,0.2-0.3,0.5-0.6,0.6L46.7,66
					C46.4,66,46.3,66.1,46.2,66.1z M20.8,12.1l25.9,51.3l28-13.3c2.3-5.5,1.4-17-4.8-27.8c-3.8-6.7-12.6-18-29.2-19.8L20.8,12.1z"/>
			</g>
			<g>
				<path class="st0" d="M5.7,28.4c0,12.8,10.6,28,24.4,34.2c14.6,6.7,27,0.8,27-13.3S44.6,19.2,30.1,14C16.3,9.1,5.7,15.6,5.7,28.4
					z"/>
				<path class="st1" d="M41.6,66.6c-3.7,0-7.8-0.9-12-2.9c-14-6.4-25.1-22-25.1-35.3c0-6.2,2.4-11.3,6.7-14.3
					c4.9-3.4,11.7-3.9,19.2-1.3c7.4,2.6,14.3,7.9,19.5,14.7c5.3,6.9,8.3,14.7,8.3,21.7c0,6.4-2.5,11.7-7.1,14.6
					C48.4,65.7,45.2,66.6,41.6,66.6z M21.3,13.5c-3.3,0-6.3,0.8-8.7,2.5c-3.7,2.6-5.7,7-5.7,12.4c0,12.6,10.5,27.2,23.7,33.2
					c7.4,3.3,14.5,3.6,19.3,0.3c3.9-2.5,6.1-7,6.1-12.8c0-13.4-12.1-29.2-26.2-34.2C26.8,14,23.9,13.5,21.3,13.5z"/>
			</g>
			<g>
				<path class="st0" d="M20.8,34c0,5.1,4.3,11.1,9.7,13.6c5.7,2.6,10.7,0.3,10.7-5.3s-4.8-12-10.7-14C25.1,26.3,20.8,29,20.8,34z"
					/>
				<path class="st1" d="M35.1,49.9c-1.6,0-3.3-0.3-5.1-1.1c-5.7-2.6-10.3-9.1-10.3-14.6c0-2.6,1-4.9,3-6.2c2.2-1.5,5.1-1.7,8.3-0.6
					c6.3,2.3,11.5,9.1,11.5,15.1c0,2.9-1.1,5.1-3.1,6.4C38,49.5,36.7,49.9,35.1,49.9z M27,28.9c-1.1,0-2.3,0.3-3.1,0.9
					c-1.3,0.9-2,2.4-2,4.4c0,4.7,4,10.3,9,12.6c2.8,1.3,5.3,1.3,7,0.2c1.4-0.9,2.1-2.4,2.1-4.5c0-5.1-4.6-11-10-13
					C29.1,29,28,28.9,27,28.9z"/>
			</g>
		</g>
		<g>
			<path class="st0" d="M40.2,1.2c-5.5-0.3-25.1,11.7-24.7,11.7c12.8-0.3,32.6,8.6,37.8,22c5.2,13.2,12,14.7,12,14.7l20.6-8.7
				c0,0-7.1,4.9-11.7-14C71.9,18.4,57.2,2.3,40.2,1.2z"/>
			<path class="st1" d="M65.4,50.7c-0.1,0-0.1,0-0.2,0c-0.3-0.1-7.5-1.8-12.8-15.4C47.5,22.9,28.6,13.7,15.6,14
				c-0.5,0-0.8-0.2-1-0.6c-0.2-0.3-0.2-0.8,0-1.1c0.5-0.8,8.4-5.2,10.8-6.6C32.8,1.8,37.8-0.1,40.3,0l0,0
				C58.2,1.2,73,17.8,75.2,26.6c2.5,10.3,5.6,12.9,7.4,13.6c0.8,0.3,1.4,0.2,2,0.1l1-0.5c0.6-0.2,1.1,0,1.4,0.5
				c0.2,0.5,0.1,1.1-0.3,1.5c0,0-0.6,0.3-1.4,0.6l-19.3,8.2C65.7,50.7,65.6,50.7,65.4,50.7z M19.3,11.8c5.9,0.6,12.5,2.6,18.6,5.9
				c8.2,4.4,14.1,10.3,16.7,16.7c4.3,10.9,9.5,13.4,10.9,13.9l15.4-6.6c-3.2-1.8-5.9-6.8-7.8-14.7C71,19.2,56.8,3.3,40.2,2.3l0,0
				C36.4,2.1,24.8,8.5,19.3,11.8z"/>
		</g>
	</g>
	<g>
		<g>
			<line class="st2" x1="23.2" y1="39.8" x2="36.9" y2="33.5"/>
			<path class="st1" d="M23.2,40.9c-0.5,0-0.8-0.2-1-0.7c-0.2-0.6,0-1.3,0.6-1.5l13.7-6.3c0.6-0.2,1.3,0,1.5,0.6
				c0.2,0.6,0,1.3-0.6,1.5l-13.7,6.3C23.6,40.8,23.3,40.9,23.2,40.9z"/>
		</g>
		<g>
			<line class="st2" x1="26" y1="43.2" x2="39.6" y2="37"/>
			<path class="st1" d="M26,44.4c-0.5,0-0.8-0.2-1-0.7c-0.2-0.6,0-1.3,0.6-1.5l13.7-6.3c0.6-0.2,1.3,0,1.5,0.6s0,1.3-0.6,1.5
				l-13.7,6.3C26.3,44.4,26.1,44.4,26,44.4z"/>
		</g>
		<g>
			<line class="st2" x1="28.7" y1="46.4" x2="41" y2="41"/>
			<path class="st1" d="M28.7,47.6c-0.5,0-0.8-0.2-1-0.7c-0.2-0.6,0-1.3,0.6-1.5L40.6,40c0.6-0.2,1.3,0,1.5,0.6
				c0.2,0.6,0,1.3-0.6,1.5l-12.3,5.4C29.1,47.6,28.8,47.6,28.7,47.6z"/>
		</g>
		<g>
			<line class="st2" x1="21" y1="36.1" x2="33.7" y2="30.1"/>
			<path class="st1" d="M21,37.2c-0.5,0-0.8-0.2-1-0.7c-0.2-0.6,0-1.3,0.6-1.5l12.6-5.9c0.6-0.2,1.3,0,1.5,0.6
				c0.2,0.6,0,1.3-0.6,1.5l-12.6,5.9C21.4,37.1,21.1,37.2,21,37.2z"/>
		</g>
	</g>
	<g>
		<path class="st0" d="M54.6,98.3l29.4-14c5.6-12.2-4.9-46.7-35.1-49.7L27.8,44.9L54.6,98.3z"/>
		<path class="st1" d="M54.6,99.4c-0.5,0-0.8-0.2-1-0.6L26.8,45.5c-0.1-0.2-0.1-0.6-0.1-0.9c0.1-0.2,0.3-0.6,0.6-0.7l21.1-10.3
			c0.2-0.1,0.5-0.1,0.6-0.1c17.8,1.7,27.2,13.9,31.3,21c6,10.5,7.9,23.2,4.7,30.2c-0.1,0.2-0.3,0.5-0.6,0.6L55,99.3
			C54.9,99.4,54.8,99.4,54.6,99.4z M29.3,45.5l25.9,51.3l28-13.3c2.3-5.5,1.4-17-4.8-27.8c-3.8-6.7-12.6-18-29.2-19.9L29.3,45.5z"/>
	</g>
	<g>
		<path class="st0" d="M14.1,61.8c0,12.8,10.6,28,24.4,34.2c14.6,6.7,27,0.8,27-13.3s-12.4-30.1-27-35.4
			C24.8,42.4,14.1,49,14.1,61.8z"/>
		<path class="st1" d="M50,100c-3.7,0-7.8-0.9-12-2.9c-14-6.3-24.9-21.8-24.9-35.3c0-6.2,2.4-11.3,6.7-14.3
			c4.9-3.4,11.7-3.9,19.2-1.3C46.2,49,53.1,54.1,58.4,61c5.3,6.9,8.3,14.7,8.3,21.7c0,6.4-2.5,11.7-7.1,14.6
			C56.9,99.1,53.6,100,50,100z M29.8,46.9c-3.3,0-6.3,0.8-8.7,2.5c-3.7,2.6-5.7,7-5.7,12.4c0,12.6,10.5,27.2,23.7,33.2
			c7.4,3.3,14.5,3.6,19.3,0.3c3.9-2.5,6.1-7,6.1-12.8c0-13.4-12.1-29.2-26.2-34.2C35.2,47.4,32.4,46.9,29.8,46.9z"/>
	</g>
	<g>
		<path class="st0" d="M29.3,67.5c0,5.1,4.3,11.1,9.7,13.6c5.7,2.6,10.7,0.3,10.7-5.3c0-5.6-4.9-12-10.7-14
			C33.4,59.8,29.3,62.3,29.3,67.5z"/>
		<path class="st1" d="M43.6,83.3c-1.6,0-3.3-0.3-5.1-1.1c-5.7-2.6-10.3-9.1-10.3-14.6c0-2.6,1-4.9,3-6.2c2.2-1.5,5.1-1.7,8.3-0.6
			c6.3,2.3,11.5,9.1,11.5,15.1c0,2.9-1.1,5.1-3.1,6.4C46.4,82.9,45.1,83.3,43.6,83.3z M35.5,62.2c-1.1,0-2.3,0.3-3.1,0.9
			c-1.3,0.9-2,2.4-2,4.4c0,4.7,4,10.3,9,12.6c2.8,1.3,5.3,1.3,7,0.2c1.4-0.9,2.1-2.4,2.1-4.5c0-5.1-4.6-11-10-13
			C37.5,62.4,36.4,62.2,35.5,62.2z"/>
	</g>
	<g>
		<path class="st0" d="M48.7,34.5C43.1,34.1,23.7,46.2,24,46.2c12.8-0.3,32.6,8.6,37.8,22c5.2,13.2,12,14.7,12,14.7l20.3-8.6
			c0,0-7.1,4.9-11.7-14C80.4,51.7,65.6,35.6,48.7,34.5z"/>
		<path class="st1" d="M73.9,84c-0.1,0-0.1,0-0.2,0c-0.3-0.1-7.5-1.8-12.8-15.4C56,56.2,37.1,47,24.1,47.4c-0.5,0-0.8-0.2-1-0.6
			c-0.2-0.3-0.2-0.8,0-1.1c0.5-0.7,7.8-4.9,10.8-6.6c7.4-3.9,12.4-5.9,14.9-5.7c17.8,1.1,32.6,17.8,34.8,26.5
			c2.5,10.3,5.6,12.9,7.4,13.6c0.8,0.3,1.4,0.2,2,0.1l1-0.5c0.6-0.2,1.1,0,1.4,0.5s0.1,1.1-0.3,1.5c0,0-0.6,0.3-1.4,0.6l-19.3,8.2
			C74.1,84,74,84,73.9,84z M27.7,45.3c5.9,0.6,12.5,2.6,18.6,5.9c8.2,4.4,14.1,10.3,16.7,16.7c4.3,10.8,9.5,13.4,10.9,13.9l15.4-6.6
			c-3.2-1.8-5.9-6.8-7.8-14.7c-2-7.9-16.2-23.7-32.8-24.8l0,0C44.9,35.4,33.2,42,27.7,45.3z"/>
	</g>
	<g>
		<g>
			<line class="st2" x1="31.8" y1="72.9" x2="45.5" y2="66.6"/>
			<path class="st1" d="M31.8,74c-0.5,0-0.8-0.2-1-0.7c-0.2-0.6,0-1.3,0.6-1.5l13.7-6.3c0.6-0.2,1.3,0,1.5,0.6s0,1.3-0.6,1.5
				l-13.7,6.3C32.2,73.9,31.9,74,31.8,74z"/>
		</g>
		<g>
			<line class="st2" x1="34.6" y1="76.3" x2="48.3" y2="70.1"/>
			<path class="st1" d="M34.6,77.5c-0.5,0-0.8-0.2-1-0.7c-0.2-0.6,0-1.3,0.6-1.5L47.8,69c0.6-0.2,1.3,0,1.5,0.6
				c0.2,0.6,0,1.3-0.6,1.5l-13.7,6.3C34.9,77.5,34.7,77.5,34.6,77.5z"/>
		</g>
		<g>
			<line class="st2" x1="37.3" y1="79.5" x2="49.6" y2="74.1"/>
			<path class="st1" d="M37.3,80.7c-0.5,0-0.8-0.2-1-0.7c-0.2-0.6,0-1.3,0.6-1.5l12.3-5.4c0.6-0.2,1.3,0,1.5,0.6s0,1.3-0.6,1.5
				l-12.3,5.4C37.7,80.7,37.5,80.7,37.3,80.7z"/>
		</g>
		<g>
			<line class="st2" x1="29.6" y1="69.2" x2="42.3" y2="63.2"/>
			<path class="st1" d="M29.6,70.3c-0.5,0-0.8-0.2-1-0.7c-0.2-0.6,0-1.3,0.6-1.5l12.6-5.9c0.6-0.2,1.3,0,1.5,0.6
				c0.2,0.6,0,1.3-0.6,1.5l-12.6,5.9C30,70.2,29.8,70.3,29.6,70.3z"/>
		</g>
	</g>
</g>
</svg>
