<?xml version="1.0" encoding="utf-8"?>
<!-- Generator: Adobe Illustrator 22.0.1, SVG Export Plug-In . SVG Version: 6.00 Build 0)  -->
<svg version="1.1" id="Слой_1" xmlns="http://www.w3.org/2000/svg" xmlns:xlink="http://www.w3.org/1999/xlink" x="0px" y="0px"
	 viewBox="0 0 100 100" style="enable-background:new 0 0 100 100;" xml:space="preserve">
<style type="text/css">
	.st0{fill:#008081;}
	.st1{fill:#fff;}
	.st2{fill:none;stroke:#fff;stroke-width:2;stroke-linecap:round;stroke-linejoin:round;stroke-miterlimit:10;}

</style>
<g>
	<g>
		<g>
			<polygon class="st0" points="13.1,27.1 13.1,85 58.3,62.9 58.7,5 			"/>
			<path class="st1" d="M13.1,86.2c-0.2,0-0.5,0-0.6-0.1c-0.3-0.2-0.6-0.6-0.6-0.9V27.1c0-0.5,0.2-0.8,0.7-1L58.1,3.9
				C58.5,3.8,59,3.8,59.3,4c0.3,0.2,0.6,0.6,0.6,0.9l-0.5,57.9c0,0.5-0.2,0.8-0.7,1l-45,22.1C13.5,86.2,13.3,86.2,13.1,86.2z
				 M14.3,27.8v55.4l42.8-20.9l0.5-55.4L14.3,27.8z"/>
		</g>
		<g>
			<g>
				<polygon class="st0" points="49.8,1.1 4.4,22.8 13.1,27.1 58.7,5 				"/>
				<path class="st1" d="M13.1,28.2c-0.1,0-0.3,0-0.5-0.1l-8.7-4.3c-0.3-0.2-0.7-0.6-0.7-1c0-0.5,0.2-0.8,0.7-1L49.2,0.1
					c0.3-0.1,0.7-0.1,0.9,0l9,4c0.5,0.2,0.7,0.6,0.7,1c0,0.5-0.2,0.8-0.7,1L13.6,28.2C13.5,28.2,13.3,28.2,13.1,28.2z M7.1,22.8l6,3
					L55.9,5.1l-6.2-2.8L7.1,22.8z"/>
			</g>
		</g>
		<g>
			<polygon class="st0" points="4.4,22.8 4.4,80.7 13.1,85 13.1,27.1 			"/>
			<path class="st1" d="M13.1,86.2c-0.1,0-0.3,0-0.5-0.1l-8.7-4.3c-0.3-0.2-0.7-0.6-0.7-1V22.8c0-0.3,0.2-0.8,0.6-0.9
				c0.3-0.2,0.7-0.2,1.2,0l8.7,4.3c0.3,0.2,0.7,0.6,0.7,1v57.9c0,0.3-0.2,0.8-0.6,0.9C13.6,86.2,13.3,86.2,13.1,86.2z M5.5,80
				l6.4,3.1V27.8l-6.4-3.1C5.5,24.6,5.5,80,5.5,80z"/>
		</g>
	</g>
	<g>
		<g>
			<g>
				<polygon class="st0" points="25.1,32.2 25.1,90.1 70.2,68 70.7,10.1 				"/>
				<path class="st1" d="M25.1,91.3c-0.2,0-0.5,0-0.6-0.1c-0.3-0.2-0.6-0.6-0.6-0.9V32.2c0-0.5,0.2-0.8,0.7-1L70.1,9
					c0.3-0.1,0.8-0.1,1.2,0.1c0.3,0.2,0.6,0.6,0.6,0.9L71.4,68c0,0.5-0.2,0.8-0.7,1L25.6,91.2C25.4,91.2,25.3,91.3,25.1,91.3z
					 M26.3,32.9v55.4l42.8-20.9L69.5,12L26.3,32.9z"/>
			</g>
			<g>
				<path class="st1" d="M32.4,87.8c-0.6,0-1.2-0.5-1.2-1.2V28.7c0-0.6,0.5-1.2,1.2-1.2c0.7,0,1.2,0.5,1.2,1.2v57.9
					C33.6,87.3,33.1,87.8,32.4,87.8z"/>
			</g>
			<g>
				<path class="st0" d="M30,81.9c0,0.6-0.5,1.4-1.2,1.7s-1.3,0-1.3-0.7s0.6-1.5,1.3-1.7C29.4,80.8,30,81.2,30,81.9z"/>
				<path class="st1" d="M28.1,84.1c-0.2,0-0.5-0.1-0.7-0.2c-0.3-0.2-0.6-0.6-0.6-1c0-0.9,0.7-1.9,1.6-2.2c0.5-0.1,0.9-0.1,1.3,0.1
					c0.3,0.2,0.5,0.6,0.5,1c0,0.8-0.6,1.7-1.5,2.1C28.7,84.1,28.5,84.1,28.1,84.1z M29.2,81.5c-0.1,0-0.2,0-0.2,0
					c-0.6,0.2-1,0.8-1,1.3c0,0.1,0,0.2,0.1,0.2c0.1,0.1,0.3,0.1,0.6,0c0.5-0.2,0.9-0.8,0.9-1.3c0-0.1,0-0.2-0.1-0.2
					S29.3,81.5,29.2,81.5z"/>
			</g>
			<g>
				<path class="st0" d="M30,58.8c0,0.6-0.5,1.4-1.2,1.7c-0.7,0.3-1.3,0-1.3-0.7s0.6-1.5,1.3-1.7C29.4,57.9,30,58.1,30,58.8z"/>
				<path class="st1" d="M28.1,61.1c-0.2,0-0.5-0.1-0.7-0.2c-0.3-0.2-0.6-0.6-0.6-1c0-0.9,0.7-1.9,1.6-2.2c0.5-0.1,0.9-0.1,1.3,0.1
					c0.3,0.2,0.5,0.6,0.5,1c0,0.8-0.6,1.7-1.5,2.1C28.7,61.1,28.5,61.1,28.1,61.1z M29.2,58.5c-0.1,0-0.2,0-0.2,0
					c-0.6,0.2-1,0.8-1,1.3c0,0.1,0,0.2,0.1,0.2c0.1,0.1,0.3,0.1,0.6,0c0.5-0.2,0.9-0.8,0.9-1.3c0-0.1,0-0.2-0.1-0.2
					S29.3,58.5,29.2,58.5z"/>
			</g>
			<g>
				<path class="st0" d="M30,34.9c0,0.6-0.5,1.4-1.2,1.7c-0.7,0.3-1.3,0-1.3-0.7s0.6-1.5,1.3-1.7C29.4,33.9,30,34.3,30,34.9z"/>
				<path class="st1" d="M28.1,37.2c-0.2,0-0.5-0.1-0.7-0.2c-0.3-0.2-0.6-0.6-0.6-1c0-0.9,0.7-1.9,1.6-2.2c0.5-0.2,0.9-0.1,1.3,0.1
					c0.3,0.2,0.5,0.6,0.5,1c0,0.8-0.6,1.7-1.5,2.1C28.7,37.1,28.5,37.2,28.1,37.2z M29.2,34.5c-0.1,0-0.2,0-0.2,0
					c-0.6,0.3-1,0.9-1,1.4c0,0.1,0,0.2,0.1,0.2c0.1,0.1,0.3,0.1,0.6,0c0.5-0.2,0.9-0.8,0.9-1.3c0-0.1,0-0.2-0.1-0.2
					C29.3,34.6,29.3,34.5,29.2,34.5z"/>
			</g>
			<g>
				<path class="st0" d="M28.8,70.5L28.8,70.5c-0.6,0.2-1.2,0.9-1.2,1.6v5.7c0,0.6,0.5,0.9,1.2,0.7l0,0c0.6-0.2,1.2-0.9,1.2-1.6
					v-5.7C30,70.6,29.4,70.2,28.8,70.5z"/>
				<path class="st1" d="M28.4,79.1c-0.2,0-0.5-0.1-0.7-0.2c-0.3-0.2-0.5-0.6-0.5-1v-5.7c0-0.8,0.6-1.7,1.4-2
					c0.5-0.2,0.9-0.1,1.3,0.1c0.3,0.2,0.5,0.6,0.5,1V77c0,0.8-0.6,1.7-1.4,2C28.8,79.1,28.6,79.1,28.4,79.1z M29.2,70.8
					c-0.1,0-0.1,0-0.2,0l0,0c-0.5,0.2-0.8,0.7-0.8,1.2v5.7c0,0.1,0,0.2,0.1,0.2c0.1,0.1,0.2,0,0.5,0c0.5-0.2,0.8-0.7,0.8-1.2v-5.7
					c0-0.1,0-0.2-0.1-0.2S29.3,70.8,29.2,70.8z M28.8,70.5L28.8,70.5L28.8,70.5z"/>
			</g>
			<g>
				<path class="st0" d="M28.8,39.6L28.8,39.6c-0.6,0.2-1.2,0.9-1.2,1.6V47c0,0.6,0.5,0.9,1.2,0.7l0,0c0.6-0.2,1.2-0.9,1.2-1.6v-5.7
					C30,39.8,29.4,39.4,28.8,39.6z"/>
				<path class="st1" d="M28.4,48.3c-0.2,0-0.5-0.1-0.7-0.2c-0.3-0.2-0.5-0.6-0.5-1v-5.7c0-0.8,0.6-1.7,1.4-2l0,0
					c0.5-0.2,0.9-0.1,1.3,0.1c0.3,0.2,0.5,0.6,0.5,1v5.7c0,0.8-0.6,1.7-1.4,2C28.8,48.3,28.6,48.3,28.4,48.3z M29.2,40
					c-0.1,0-0.1,0-0.2,0l0,0c-0.5,0.2-0.8,0.7-0.8,1.2v5.7c0,0.1,0,0.2,0.1,0.2c0.1,0.1,0.2,0,0.5,0c0.5-0.2,0.8-0.7,0.8-1.2v-5.7
					c0-0.1,0-0.2-0.1-0.2C29.3,40.1,29.3,40,29.2,40z M28.8,39.6L28.8,39.6L28.8,39.6z"/>
			</g>
		</g>
	</g>
	<g>
		<path class="st0" d="M83.6,63.6c-5.8,2.1-10.8,8.5-10.8,14.2s5,8,10.8,5.4c5.6-2.6,9.8-8.6,9.8-13.8
			C93.4,64.2,89.1,61.6,83.6,63.6z M83.4,79.1c-3.4,1.5-6.2,0.2-6.2-3s2.9-6.9,6.2-8.1c3.1-1.2,5.6,0.3,5.6,3.3
			C89,74.2,86.5,77.7,83.4,79.1z"/>
		<path class="st1" d="M79,85.5c-1.5,0-3-0.3-4.2-1.2c-2.1-1.3-3.1-3.6-3.1-6.5c0-6.2,5.2-13,11.6-15.4l0,0c3.3-1.2,6.2-0.9,8.4,0.6
			c2,1.4,3,3.6,3,6.3c0,5.7-4.7,12.2-10.5,14.9C82.3,85,80.6,85.5,79,85.5z M84,64.7c-5.5,2-10.1,8-10.1,13.1c0,2.1,0.7,3.6,2.1,4.5
			c1.7,1.2,4.3,1,7.1-0.2c5-2.3,9.2-8,9.2-12.8c0-2-0.7-3.5-2-4.4C88.7,63.8,86.4,63.8,84,64.7L84,64.7z M80.7,80.8
			c-0.9,0-1.9-0.2-2.7-0.7c-1.3-0.8-2.1-2.3-2.1-4.1c0-3.7,3.1-7.8,7-9.2c2-0.7,3.8-0.6,5.2,0.3c1.3,0.8,1.9,2.3,1.9,4
			c0,3.4-2.8,7.3-6.3,9l0,0C82.8,80.6,81.8,80.8,80.7,80.8z M83.4,79.1L83.4,79.1L83.4,79.1z M85.4,68.7c-0.5,0-1,0.1-1.6,0.3
			c-2.9,1-5.5,4.3-5.5,7.1c0,0.7,0.1,1.6,0.9,2.2s2.2,0.5,3.6-0.1c2.7-1.3,4.9-4.3,4.9-6.9c0-0.9-0.3-1.7-0.9-2.1
			C86.5,68.8,85.9,68.7,85.4,68.7z"/>
	</g>
	<g>
		<path class="st0" d="M58.7,76.1c-5.8,2.1-10.8,8.5-10.8,14.2c0,5.7,5,8,10.8,5.4c5.6-2.6,9.8-8.6,9.8-13.8S64.3,74,58.7,76.1z
			 M58.5,91.5c-3.3,1.5-6.2,0.1-6.2-3.1c0-3.3,2.9-6.9,6.2-8.1c3.1-1.2,5.6,0.3,5.6,3.3C64.1,86.4,61.6,90.1,58.5,91.5z"/>
		<path class="st1" d="M54.2,97.9c-1.5,0-3-0.3-4.2-1.2c-2.1-1.3-3.1-3.6-3.1-6.5c0-6.2,5.2-13,11.6-15.4l0,0
			c3.3-1.2,6.2-0.9,8.4,0.6c2,1.4,3,3.6,3,6.3c0,5.7-4.7,12.2-10.5,14.9C57.4,97.5,55.7,97.9,54.2,97.9z M59.2,77.1
			c-5.5,2-10.1,8-10.1,13.1c0,2.1,0.7,3.6,2.1,4.5c1.7,1.2,4.3,1,7.1-0.2c5-2.3,9.2-8,9.2-12.8c0-2-0.7-3.5-2-4.4
			C63.8,76.3,61.6,76.2,59.2,77.1L59.2,77.1z M55.9,93.3c-0.9,0-1.9-0.2-2.7-0.7c-1.3-0.8-2.1-2.3-2.1-4.1c0-3.7,3.1-7.8,7-9.2
			c2-0.7,3.8-0.6,5.2,0.3c1.3,0.8,1.9,2.3,1.9,4c0,3.4-2.8,7.3-6.3,9l0,0C57.9,93,56.9,93.3,55.9,93.3z M58.5,91.5L58.5,91.5
			L58.5,91.5z M60.6,81.1c-0.5,0-1,0.1-1.6,0.3c-2.9,1-5.5,4.3-5.5,7c0,0.7,0.1,1.6,0.9,2.2s2.2,0.5,3.6-0.1
			c2.7-1.3,4.9-4.3,4.9-6.9c0-0.9-0.3-1.7-0.9-2.1C61.6,81.3,61.2,81.1,60.6,81.1z"/>
	</g>
	<g>
		<polygon class="st0" points="77.8,71.8 73.1,70.2 73,70.5 67.4,76.5 67,77.9 67,39.8 73,33.2 73.1,33 79.2,34.9 79.4,35.1 
			79.4,70.1 		"/>
		<path class="st1" d="M67,79.1c-0.1,0-0.1,0-0.2,0c-0.6-0.1-0.9-0.6-0.9-1.2V39.8c0-0.2,0.1-0.6,0.3-0.8l6.2-6.6
			c0.3-0.3,0.8-0.5,1.2-0.3l6,1.9c0.2,0.1,0.3,0.2,0.6,0.3l0.2,0.2c0.2,0.2,0.2,0.5,0.2,0.7v35c0,0.3-0.1,0.6-0.3,0.8l-1.6,1.6
			c-0.3,0.3-0.7,0.5-1.2,0.3l-4-1.2l-5.1,5.6L68,78.5C67.9,78.7,67.4,79.1,67,79.1z M68.1,40.2v34l4.2-4.5c0.3-0.3,0.8-0.5,1.2-0.3
			l4,1.2l0.8-0.8V35.8l-4.7-1.5L68.1,40.2z"/>
	</g>
	<g>
		<path class="st1" d="M72.9,65.7c-0.6,0-1.2-0.5-1.2-1.2V33.2c0-0.6,0.5-1.2,1.2-1.2c0.7,0,1.2,0.5,1.2,1.2v31.3
			C74.1,65.2,73.6,65.7,72.9,65.7z"/>
	</g>
	<g>
		<path class="st0" d="M85.7,65.7c-5.8,2.1-10.8,8.5-10.8,14.2c0,5.7,5,8,10.8,5.4c5.6-2.6,9.8-8.6,9.8-13.8S91.3,63.7,85.7,65.7z
			 M85.5,81.3c-3.4,1.5-6.2,0.2-6.2-3s2.9-6.9,6.2-8.1c3.1-1.2,5.6,0.3,5.6,3.3S88.7,79.8,85.5,81.3z"/>
		<path class="st1" d="M81.2,87.7c-1.5,0-3-0.3-4.2-1.2c-2.1-1.3-3.1-3.6-3.1-6.5c0-6.2,5.2-13,11.6-15.4c3.3-1.2,6.2-0.9,8.4,0.6
			c2,1.4,3,3.6,3,6.3c0,5.7-4.7,12.2-10.5,14.9C84.4,87.2,82.7,87.7,81.2,87.7z M89.3,66.3c-0.9,0-2.1,0.2-3.1,0.6l0,0
			c-5.5,2-10.1,8-10.1,13.1c0,2.1,0.7,3.6,2.1,4.5c1.7,1.2,4.3,1,7.1-0.2c5-2.3,9.2-8,9.2-12.8c0-2-0.7-3.5-2-4.4
			C91.5,66.5,90.5,66.3,89.3,66.3z M85.7,65.7L85.7,65.7L85.7,65.7z M82.9,83c-0.9,0-1.9-0.2-2.7-0.7c-1.3-0.8-2.1-2.3-2.1-4.1
			c0-3.7,3.1-7.8,7-9.2c2-0.7,3.8-0.6,5.2,0.3c1.3,0.8,1.9,2.3,1.9,4c0,3.4-2.8,7.3-6.3,9l0,0C84.9,82.8,83.8,83,82.9,83z
			 M87.6,70.8c-0.5,0-1,0.1-1.6,0.3c-2.9,1-5.5,4.3-5.5,7.1c0,0.7,0.1,1.6,0.9,2.2c0.8,0.6,2.2,0.5,3.6-0.1l0,0
			c2.7-1.3,4.9-4.3,4.9-6.9c0-0.9-0.3-1.7-0.9-2.1C88.6,70.9,88.2,70.8,87.6,70.8z"/>
	</g>
	<g>
		<path class="st0" d="M60.9,78.2c-5.8,2.1-10.8,8.5-10.8,14.2c0,5.7,5,8,10.8,5.4c5.6-2.6,9.8-8.6,9.8-13.8
			C70.7,78.9,66.5,76.2,60.9,78.2z M60.7,93.7c-3.4,1.5-6.2,0.2-6.2-3s2.9-6.9,6.2-8.1c3.1-1.2,5.6,0.3,5.6,3.3S63.8,92.2,60.7,93.7
			z"/>
		<path class="st1" d="M56.3,100c-1.5,0-3-0.3-4.2-1.2c-2.1-1.3-3.1-3.6-3.1-6.5c0-6.2,5.2-13,11.6-15.4c3.3-1.2,6.2-0.9,8.4,0.6
			c2,1.4,3,3.6,3,6.3c0,5.7-4.7,12.2-10.5,14.9C59.6,99.7,57.9,100,56.3,100z M60.9,78.2l0.3,1c-5.5,2-10.1,8-10.1,13.3
			c0,2.1,0.7,3.6,2.1,4.5c1.7,1.2,4.3,1,7.1-0.2c5-2.3,9.2-8,9.2-12.8c0-2-0.7-3.5-2-4.4c-1.5-1-3.8-1.2-6.3-0.3L60.9,78.2z
			 M58,95.5c-0.9,0-1.9-0.2-2.7-0.7c-1.3-0.8-2.1-2.3-2.1-4.1c0-3.7,3.1-7.8,7-9.2c2-0.7,3.8-0.6,5.2,0.3c1.3,0.8,1.9,2.3,1.9,4
			c0,3.4-2.8,7.3-6.3,9C60.1,95.3,59.1,95.5,58,95.5z M62.7,83.3c-0.5,0-1,0.1-1.6,0.3c-2.9,1-5.5,4.3-5.5,7.1
			c0,0.7,0.1,1.6,0.9,2.2c0.8,0.6,2.2,0.5,3.6-0.1l0,0c2.7-1.3,4.9-4.3,4.9-6.9c0-0.9-0.3-1.7-0.9-2.1
			C63.8,83.4,63.3,83.3,62.7,83.3z"/>
	</g>
	<g>
		<path class="st0" d="M74.5,64.3c0,0.6-0.5,1.4-1.2,1.7c-0.7,0.3-1.3,0-1.3-0.7s0.6-1.5,1.3-1.7C74.1,63.4,74.5,63.7,74.5,64.3z"/>
		<path class="st1" d="M72.8,66.6c-0.2,0-0.5-0.1-0.7-0.2c-0.3-0.2-0.6-0.6-0.6-1c0-0.9,0.7-1.9,1.6-2.2c0.5-0.2,0.9-0.1,1.3,0.1
			c0.3,0.2,0.5,0.6,0.5,1c0,0.8-0.6,1.7-1.5,2.1C73.3,66.5,73,66.6,72.8,66.6z M73.8,64c-0.1,0-0.2,0-0.2,0c-0.6,0.2-1,0.8-1,1.3
			c0,0.1,0,0.2,0.1,0.2c0.1,0.1,0.3,0.1,0.6,0c0.5-0.2,0.9-0.8,0.9-1.3c0-0.1,0-0.2-0.1-0.2C74,64.1,73.8,64,73.8,64z"/>
	</g>
	<g>
		<g>
			<path class="st1" d="M7.3,82.3c-0.2,0-0.5-0.2-0.5-0.5V23.9c0-0.2,0.2-0.5,0.5-0.5s0.5,0.2,0.5,0.5v57.9
				C7.8,82.1,7.6,82.3,7.3,82.3z"/>
		</g>
		<g>
			<path class="st1" d="M10.2,83.7c-0.2,0-0.5-0.2-0.5-0.5V25.3c0-0.2,0.2-0.5,0.5-0.5c0.2,0,0.5,0.2,0.5,0.5v57.9
				C10.7,83.5,10.4,83.7,10.2,83.7z"/>
		</g>
		<g>
			<path class="st2" d="M10.7,83.7"/>
		</g>
		<g>
			<path class="st2" d="M10.7,26"/>
		</g>
	</g>
	<g>
		<path class="st1" d="M8.3,24.3c-0.1,0-0.3-0.1-0.5-0.2c-0.1-0.2,0-0.5,0.2-0.6L52.9,1.6c0.2-0.1,0.5,0,0.6,0.2s0,0.5-0.2,0.6
			L8.5,24.3H8.3z"/>
	</g>
	<g>
		<path class="st1" d="M11.6,25.3c-0.1,0-0.3-0.1-0.5-0.2c-0.1-0.2,0-0.5,0.2-0.6L54.5,3.2c0.2-0.1,0.5,0,0.6,0.2s0,0.5-0.2,0.6
			l-43,21.3C11.7,25.3,11.7,25.3,11.6,25.3z"/>
	</g>
	<g>
		<path class="st2" d="M10.7,25.9"/>
	</g>
	<g>
		<path class="st2" d="M55.7,3.8"/>
	</g>
</g>
</svg>
