<svg width="30" height="30" viewBox="0 0 30 30" fill="none" xmlns="http://www.w3.org/2000/svg">
<g clip-path="url(#clip0_49_568)">
<path d="M15 0C6.72875 0 0 6.72875 0 15C0 23.2712 6.72875 30 15 30C23.2712 30 30 23.2712 30 15C30 6.72875 23.2712 0 15 0ZM15 1.25C20.5938 1.25 25.4088 4.6125 27.555 9.41875C27.01 8.98875 26.335 8.75 25.625 8.75H20.3938C19.115 8.75 17.9137 9.1975 16.905 10H13.1263C13.1188 10 13.1137 10.0037 13.1062 10.0037C12.1125 9.205 10.9012 8.75 9.60875 8.75H4.375C3.665 8.75 2.99 8.98875 2.445 9.41875C4.59125 4.6125 9.40625 1.25 15 1.25ZM20.3925 10H25.6238C26.1875 10 26.7163 10.25 27.0737 10.6862C27.4312 11.1225 27.5725 11.69 27.4625 12.2437L27.1638 13.7375C26.8725 15.1925 25.5837 16.25 24.0987 16.25H21.25C19.8137 16.25 18.5662 15.2775 18.2175 13.8825L17.5162 11.0787C18.3137 10.38 19.3237 10 20.3925 10ZM12.4812 11.0812L11.7812 13.8825C11.4325 15.2762 10.1862 16.25 8.74875 16.25H5.9C4.415 16.25 3.12625 15.1925 2.835 13.7375L2.53625 12.2437C2.42625 11.69 2.5675 11.1225 2.925 10.6862C3.2825 10.25 3.81 10 4.375 10H9.60625C10.6613 10 11.66 10.3713 12.4812 11.0812ZM14.9987 28.75C7.4175 28.75 1.24875 22.5812 1.24875 15C1.24875 14.3175 1.315 13.6512 1.41125 12.995L1.60875 13.9825C2.01625 16.0212 3.82 17.5 5.89875 17.5H8.7475C10.7587 17.5 12.5037 16.1375 12.9925 14.1862L13.7262 11.25H16.27L17.0037 14.1862C17.4912 16.1388 19.2375 17.5 21.2488 17.5H24.0975C26.1763 17.5 27.98 16.02 28.3875 13.9825L28.585 12.995C28.6812 13.6512 28.7475 14.3175 28.7475 15C28.7475 22.5812 22.58 28.75 14.9987 28.75Z" fill="#548072"/>
<path d="M21.3551 19.9663C19.7501 22.3738 17.3951 23.6438 14.3551 23.7425C14.0101 23.7538 13.7389 24.0425 13.7514 24.3888C13.7626 24.7275 14.0389 24.9925 14.3751 24.9925H14.3964C18.7151 24.8513 21.1301 22.5588 22.3964 20.6588C22.5876 20.3725 22.5101 19.9838 22.2226 19.7925C21.9339 19.6013 21.5451 19.6788 21.3551 19.9663Z" fill="#548072"/>
</g>
<defs>
<clipPath id="clip0_49_568">
<rect width="30" height="30" fill="white"/>
</clipPath>
</defs>
</svg>
