<svg width="30" height="30" viewBox="0 0 30 30" fill="none" xmlns="http://www.w3.org/2000/svg">
<g clip-path="url(#clip0_49_583)">
<path d="M7.05979 7.44755C7.97604 7.72255 8.96104 8.4863 10.0023 9.29505C11.5585 10.5038 13.321 11.875 15.406 11.875C17.8623 11.875 19.9598 10.3225 20.8223 8.13505C21.5035 8.5638 22.1585 9.12255 22.7723 9.8913C23.0198 10.2 23.3823 10.36 23.7498 10.36C24.0235 10.36 24.2985 10.27 24.5298 10.0863C25.0685 9.65505 25.156 8.8688 24.7248 8.33005C23.6298 6.96255 22.436 6.06505 21.2023 5.4763C20.971 2.4138 18.476 -0.0124512 15.406 -0.0124512C10.6248 -0.0124512 7.27604 2.6638 6.05354 4.24505C5.63979 4.77755 5.51604 5.48255 5.72354 6.12755C5.92729 6.7638 6.42604 7.25755 7.05979 7.44755ZM15.406 2.48755C16.8023 2.48755 17.9973 3.37505 18.4973 4.6288C17.3085 4.4163 16.1248 4.37505 14.9998 4.37505C14.3085 4.37505 13.7498 4.93505 13.7498 5.62505C13.7498 6.31505 14.3085 6.87505 14.9998 6.87505C16.1998 6.87505 17.3773 6.93005 18.5098 7.19255C18.0198 8.46755 16.816 9.37505 15.406 9.37505C14.1798 9.37505 12.8948 8.37755 11.5348 7.3213C10.556 6.56005 9.54729 5.7763 8.44979 5.30005C9.70604 4.0288 12.2685 2.48755 15.406 2.48755ZM11.3623 18.505C10.696 17.035 9.50104 15.9213 7.99979 15.3663C7.19104 15.0675 6.34729 14.9675 5.51229 15.0325C5.73229 14.4325 6.03354 13.8038 6.43229 13.1538C6.79354 12.565 6.60854 11.7963 6.01979 11.435C5.42979 11.0725 4.66104 11.2588 4.30104 11.8475C3.39354 13.3275 2.86729 14.735 2.69479 16.0163C0.292291 17.6225 -0.681459 20.7976 0.556041 23.5238C2.74479 28.3463 7.92479 29.6726 9.45854 29.9638C9.58729 29.9888 9.71479 30 9.84229 30C10.3948 30 10.926 29.7738 11.3123 29.3625C11.806 28.8363 11.991 28.0975 11.8073 27.3938C11.726 27.0688 11.681 26.7438 11.6773 26.4238C11.6673 25.6925 11.746 24.9363 11.8298 24.1363C12.021 22.2963 12.2198 20.3925 11.3623 18.5063V18.505ZM9.34354 23.8763C9.25604 24.7125 9.16479 25.5775 9.17729 26.4538C9.18104 26.7526 9.20479 27.0538 9.25229 27.3563C7.57604 26.9263 4.28854 25.6975 2.83229 22.49C2.30229 21.3213 2.46729 20.0163 3.13479 19.0275C3.52104 19.8888 4.18104 20.9475 5.36729 22.1338C5.61104 22.3776 5.93104 22.5 6.25104 22.5C6.57104 22.5 6.89104 22.3776 7.13479 22.1338C7.62354 21.6451 7.62354 20.855 7.13479 20.3663C5.91229 19.1438 5.43104 18.1638 5.23979 17.5788C5.47729 17.5263 5.71729 17.5 5.95854 17.5C6.35479 17.5 6.75229 17.5713 7.13354 17.7113C8.00354 18.0325 8.69854 18.6825 9.08729 19.5388C9.66354 20.8088 9.50854 22.2988 9.34354 23.8763ZM28.6323 14.9188C28.3448 14.3075 27.7773 13.88 27.1148 13.775C26.431 13.67 25.7285 13.91 25.2448 14.4263C24.5498 15.1663 23.5935 15.8313 22.5798 16.5338C20.9435 17.6688 19.2535 18.8425 18.261 20.5963C17.486 21.9675 17.2948 23.5563 17.7223 25.07C17.9085 25.73 18.221 26.3275 18.6085 26.87C17.8785 27.1838 17.0535 27.41 16.121 27.5063C15.4335 27.5775 14.936 28.1926 15.0073 28.8788C15.0735 29.5213 15.616 29.9988 16.2485 29.9988C17.961 29.9776 19.4198 29.32 20.5985 28.6475C21.501 29.1363 22.4748 29.3713 23.4385 29.3713C25.5248 29.3713 27.5523 28.285 28.641 26.36C30.9548 22.2725 29.7223 17.245 28.631 14.9175L28.6323 14.9188ZM26.4673 25.13C25.7435 26.4113 24.3023 27.0375 22.9123 26.8213C23.9723 25.6738 24.6973 24.3663 25.0748 23.1175C25.2748 22.4575 24.901 21.76 24.2398 21.56C23.576 21.36 22.8823 21.7338 22.6823 22.3951C22.361 23.4576 21.7048 24.5838 20.696 25.515C20.441 25.1813 20.2448 24.8038 20.1273 24.3888C19.8835 23.5225 19.9923 22.6125 20.436 21.8275C21.1473 20.57 22.536 19.6075 24.0048 18.5875C24.9048 17.9625 25.8298 17.32 26.6223 16.5813C27.3835 18.5725 28.0985 22.2463 26.466 25.1313L26.4673 25.13Z" fill="#548072"/>
</g>
<defs>
<clipPath id="clip0_49_583">
<rect width="30" height="30" fill="white"/>
</clipPath>
</defs>
</svg>
