<svg width="28" height="26" viewBox="0 0 28 26" fill="none" xmlns="http://www.w3.org/2000/svg">
<path d="M24.6251 9.875C22.7151 9.875 21.7263 10.6775 21.5388 12.375H18.9613C18.8576 10.7087 18.3313 9.54625 17.3313 8.84625L18.6963 6.6625C18.9801 6.71375 19.2826 6.75 19.6251 6.75C21.7576 6.75 22.7501 5.7575 22.7501 3.625C22.7501 1.4925 21.7576 0.5 19.6251 0.5C17.4926 0.5 16.5001 1.4925 16.5001 3.625C16.5001 4.84875 16.8388 5.68625 17.5213 6.18625L16.2076 8.2875C15.5826 8.095 14.8501 8 13.9988 8C13.1476 8 12.4151 8.09625 11.7901 8.28875L10.4776 6.1875C11.1601 5.68625 11.4988 4.85 11.4988 3.62625C11.4988 1.49375 10.5063 0.50125 8.37381 0.50125C6.24131 0.50125 5.24881 1.49375 5.24881 3.62625C5.24881 5.75875 6.24131 6.75125 8.37381 6.75125C8.71631 6.75125 9.01756 6.71625 9.30131 6.665L10.6663 8.84875C9.66631 9.54875 9.14131 10.71 9.03631 12.3763H6.45881C6.27131 10.6788 5.28256 9.87625 3.37256 9.87625C1.24006 9.87625 0.247559 10.8688 0.247559 13.0013C0.247559 15.1338 1.24006 16.1263 3.37256 16.1263C5.28256 16.1263 6.27131 15.3238 6.45881 13.6263H9.03631C9.14006 15.2925 9.66631 16.455 10.6663 17.155L9.30131 19.3387C9.01756 19.2875 8.71506 19.2525 8.37381 19.2525C6.24131 19.2525 5.24881 20.245 5.24881 22.3775C5.24881 24.51 6.24131 25.5025 8.37381 25.5025C10.5063 25.5025 11.4988 24.51 11.4988 22.3775C11.4988 21.1525 11.1601 20.3162 10.4776 19.815L11.7913 17.7137C12.4163 17.9062 13.1488 18.0012 14.0001 18.0012C14.8513 18.0012 15.5838 17.905 16.2088 17.7137L17.5226 19.815C16.8401 20.3162 16.5013 21.1525 16.5013 22.3762C16.5013 24.5087 17.4938 25.5012 19.6263 25.5012C21.7588 25.5012 22.7513 24.5087 22.7513 22.3762C22.7513 20.2437 21.7588 19.2512 19.6263 19.2512C19.2851 19.2512 18.9826 19.2862 18.6988 19.3375L17.3338 17.1537C18.3338 16.4537 18.8601 15.2925 18.9638 13.625H21.5413C21.7288 15.3225 22.7176 16.125 24.6276 16.125C26.7601 16.125 27.7526 15.1325 27.7526 13C27.7526 10.8675 26.7601 9.875 24.6276 9.875H24.6251ZM19.6251 1.75C21.0613 1.75 21.5001 2.18875 21.5001 3.625C21.5001 5.06125 21.0613 5.5 19.6251 5.5C18.1888 5.5 17.7501 5.06125 17.7501 3.625C17.7501 2.18875 18.1888 1.75 19.6251 1.75ZM6.50006 3.625C6.50006 2.18875 6.93881 1.75 8.37506 1.75C9.81131 1.75 10.2501 2.18875 10.2501 3.625C10.2501 5.06125 9.81131 5.5 8.37506 5.5C6.93881 5.5 6.50006 5.06125 6.50006 3.625ZM8.37506 24.25C6.93881 24.25 6.50006 23.8113 6.50006 22.375C6.50006 20.9387 6.93881 20.5 8.37506 20.5C9.81131 20.5 10.2501 20.9387 10.2501 22.375C10.2501 23.8113 9.81131 24.25 8.37506 24.25ZM21.5001 22.375C21.5001 23.8113 21.0613 24.25 19.6251 24.25C18.1888 24.25 17.7501 23.8113 17.7501 22.375C17.7501 20.9387 18.1888 20.5 19.6251 20.5C21.0613 20.5 21.5001 20.9387 21.5001 22.375ZM3.37506 14.875C1.93881 14.875 1.50006 14.4362 1.50006 13C1.50006 11.5638 1.93881 11.125 3.37506 11.125C4.81131 11.125 5.25006 11.5638 5.25006 13C5.25006 14.4362 4.81131 14.875 3.37506 14.875ZM14.0001 16.75C11.2313 16.75 10.2501 15.7688 10.2501 13C10.2501 10.2312 11.2313 9.25 14.0001 9.25C16.7688 9.25 17.7501 10.2312 17.7501 13C17.7501 15.7688 16.7688 16.75 14.0001 16.75ZM24.6251 14.875C23.1888 14.875 22.7501 14.4362 22.7501 13C22.7501 11.5638 23.1888 11.125 24.6251 11.125C26.0613 11.125 26.5001 11.5638 26.5001 13C26.5001 14.4362 26.0613 14.875 24.6251 14.875Z" fill="#548072"/>
</svg>
