<svg width="30" height="30" viewBox="0 0 30 30" fill="none" xmlns="http://www.w3.org/2000/svg">
<path d="M15 29.15L14.2875 28.65C13.7 28.25 0 18.65 0 10C0 5.175 3.65 1.25 8.125 1.25C11.0125 1.25 13.5625 2.8875 15 5.3375C16.4375 2.8875 18.9875 1.25 21.875 1.25C26.35 1.25 30 5.175 30 10C30 18.65 16.3 28.25 15.7125 28.65L15 29.15ZM8.125 3.75C5.075 3.75 2.5 6.6125 2.5 10C2.5 15.7375 10.9375 23.1125 15 26.0875C19.0625 23.1125 27.5 15.725 27.5 10C27.5 6.6125 24.925 3.75 21.875 3.75C18.825 3.75 16.25 6.6125 16.25 10V10.5125L14.2625 12.5L19.2625 17.5L14.625 22.1375L12.8625 20.375L15.725 17.5125L10.725 12.5125L13.725 9.5125C13.4875 6.35 11.0125 3.7625 8.1125 3.7625L8.125 3.75Z" fill="#54807B"/>
</svg>
