<svg width="30" height="30" viewBox="0 0 30 30" fill="none" xmlns="http://www.w3.org/2000/svg">
<g clip-path="url(#clip0_49_527)">
<path d="M28.7224 13.2212C28.6349 13.1912 26.5286 12.5 24.3811 12.5C20.9599 12.5 18.3824 15.4862 17.5011 16.6587C16.7286 16.4175 15.8911 16.25 14.9999 16.25C14.0724 16.25 13.2324 16.3937 12.4736 16.6187C12.5224 16.0238 12.5411 15.445 12.5424 14.88C16.0624 14.265 18.7486 11.1938 18.7486 7.5C18.7486 3.36375 15.3849 0 11.2486 0C7.11238 0 3.74988 3.36375 3.74988 7.5C3.74988 8.30125 3.87863 9.07125 4.11238 9.795C0.561133 15.3138 0.00488281 20.2887 0.00488281 22.4662C0.206133 22.7537 5.38988 30 15.0049 30C24.3411 30 29.1511 25.97 29.3511 25.7987L30.0049 25.2375V13.6475L28.7211 13.2212H28.7224ZM11.2499 3.75C13.3174 3.75 14.9999 5.4325 14.9999 7.5C14.9999 9.5675 13.3174 11.25 11.2499 11.25C9.18238 11.25 7.49988 9.5675 7.49988 7.5C7.49988 5.4325 9.18238 3.75 11.2499 3.75ZM26.2561 23.4062C24.8161 24.3162 21.0436 26.25 15.0061 26.25C8.62113 26.25 4.89988 22.5625 3.77738 21.25C3.87363 19.7175 4.38613 16.86 6.42738 13.2337C7.12113 13.8175 7.92238 14.275 8.79613 14.5788C8.81238 16.2812 8.65363 18.1075 7.93113 19.61C7.77488 19.795 7.68113 19.9237 7.66238 19.9487L10.7136 22.1287C10.7774 22.0412 12.3111 19.9987 15.0011 19.9987C17.2874 19.9987 19.2949 21.9375 19.3136 21.9575L21.9561 19.2962C21.9136 19.2537 21.5236 18.8813 20.9024 18.4187C21.7149 17.4875 23.0861 16.2487 24.3811 16.2487C25.0336 16.2487 25.7036 16.345 26.2561 16.455V23.4062Z" fill="#548072"/>
</g>
<defs>
<clipPath id="clip0_49_527">
<rect width="30" height="30" fill="white"/>
</clipPath>
</defs>
</svg>
