<svg width="70" height="70" viewBox="0 0 70 70" fill="none" xmlns="http://www.w3.org/2000/svg">
<g clip-path="url(#clip0_26_254)">
<path d="M50.0792 70.0002C49.6953 70.0024 49.3148 69.9289 48.9594 69.7837C48.6041 69.6386 48.2809 69.4247 48.0083 69.1544L24.1792 45.3252C22.8211 43.9705 21.7436 42.3613 21.0084 40.5895C20.2732 38.8178 19.8948 36.9184 19.8948 35.0002C19.8948 33.082 20.2732 31.1826 21.0084 29.4109C21.7436 27.6392 22.8211 26.0299 24.1792 24.6752L48.0083 0.846048C48.2803 0.574103 48.6031 0.358384 48.9585 0.211208C49.3138 0.0640317 49.6946 -0.0117187 50.0792 -0.0117187C50.4638 -0.0117188 50.8446 0.0640317 51.1999 0.211208C51.5552 0.358384 51.8781 0.574103 52.15 0.846048C52.422 1.11799 52.6377 1.44084 52.7849 1.79615C52.932 2.15147 53.0078 2.53229 53.0078 2.91688C53.0078 3.30147 52.932 3.68229 52.7849 4.03761C52.6377 4.39292 52.422 4.71577 52.15 4.98771L28.3208 28.8169C26.6823 30.4575 25.7619 32.6815 25.7619 35.0002C25.7619 37.319 26.6823 39.5429 28.3208 41.1835L52.15 65.0127C52.4234 65.2839 52.6404 65.6064 52.7884 65.9619C52.9365 66.3173 53.0128 66.6985 53.0128 67.0835C53.0128 67.4686 52.9365 67.8498 52.7884 68.2052C52.6404 68.5606 52.4234 68.8832 52.15 69.1544C51.8775 69.4247 51.5543 69.6386 51.1989 69.7837C50.8435 69.9289 50.463 70.0024 50.0792 70.0002Z" fill="#548072"/>
</g>
<defs>
<clipPath id="clip0_26_254">
<rect width="70" height="70" fill="white"/>
</clipPath>
</defs>
</svg>
