<svg width="50" height="50" viewBox="0 0 50 50" fill="none" xmlns="http://www.w3.org/2000/svg">
<g clip-path="url(#clip0_22_231)">
<path d="M14.2291 49.9997C14.5033 50.0013 14.7751 49.9488 15.0289 49.8451C15.2828 49.7414 15.5136 49.5886 15.7083 49.3956L32.7291 32.3747C33.6992 31.4071 34.4689 30.2576 34.994 28.9921C35.5191 27.7266 35.7894 26.3699 35.7894 24.9997C35.7894 23.6296 35.5191 22.2729 34.994 21.0074C34.4689 19.7418 33.6992 18.5924 32.7291 17.6247L15.7083 0.603902C15.5141 0.409655 15.2835 0.25557 15.0297 0.150444C14.7759 0.0453184 14.5038 -0.00878906 14.2291 -0.00878906C13.9544 -0.00878906 13.6824 0.0453184 13.4286 0.150444C13.1748 0.25557 12.9442 0.409655 12.75 0.603902C12.5557 0.798149 12.4016 1.02875 12.2965 1.28255C12.1914 1.53635 12.1373 1.80836 12.1373 2.08307C12.1373 2.35777 12.1914 2.62979 12.2965 2.88359C12.4016 3.13738 12.5557 3.36799 12.75 3.56224L29.7708 20.5831C30.9412 21.7549 31.5986 23.3435 31.5986 24.9997C31.5986 26.656 30.9412 28.2445 29.7708 29.4164L12.75 46.4372C12.5547 46.6309 12.3997 46.8613 12.294 47.1152C12.1882 47.3691 12.1337 47.6414 12.1337 47.9164C12.1337 48.1914 12.1882 48.4637 12.294 48.7176C12.3997 48.9715 12.5547 49.2019 12.75 49.3956C12.9446 49.5886 13.1755 49.7414 13.4293 49.8451C13.6832 49.9488 13.955 50.0013 14.2291 49.9997Z" fill="white"/>
</g>
<defs>
<clipPath id="clip0_22_231">
<rect width="50" height="50" fill="white" transform="matrix(-1 0 0 1 50 0)"/>
</clipPath>
</defs>
</svg>
