<svg width="70" height="70" viewBox="0 0 70 70" fill="none" xmlns="http://www.w3.org/2000/svg">
<g clip-path="url(#clip0_26_256)">
<path d="M19.9208 -0.000213623C20.3047 -0.00242615 20.6852 0.0711441 21.0406 0.216286C21.3959 0.361435 21.7191 0.575302 21.9917 0.845627L45.8208 24.6748C47.1789 26.0295 48.2564 27.6387 48.9916 29.4105C49.7268 31.1822 50.1052 33.0816 50.1052 34.9998C50.1052 36.918 49.7268 38.8174 48.9916 40.5891C48.2564 42.3608 47.1789 43.9701 45.8208 45.3248L21.9917 69.154C21.7197 69.4259 21.3969 69.6416 21.0415 69.7888C20.6862 69.936 20.3054 70.0117 19.9208 70.0117C19.5362 70.0117 19.1554 69.936 18.8001 69.7888C18.4448 69.6416 18.1219 69.4259 17.85 69.154C17.578 68.882 17.3623 68.5592 17.2151 68.2038C17.068 67.8485 16.9922 67.4677 16.9922 67.0831C16.9922 66.6985 17.068 66.3177 17.2151 65.9624C17.3623 65.6071 17.578 65.2842 17.85 65.0123L41.6792 41.1831C43.3177 39.5425 44.2381 37.3185 44.2381 34.9998C44.2381 32.681 43.3177 30.4571 41.6792 28.8165L17.85 4.98729C17.5766 4.71615 17.3596 4.39356 17.2116 4.03814C17.0635 3.68272 16.9872 3.30149 16.9872 2.91646C16.9872 2.53142 17.0635 2.1502 17.2116 1.79478C17.3596 1.43935 17.5766 1.11677 17.85 0.845627C18.1225 0.575302 18.4457 0.361435 18.8011 0.216286C19.1565 0.0711441 19.537 -0.00242615 19.9208 -0.000213623Z" fill="#548072"/>
</g>
<defs>
<clipPath id="clip0_26_256">
<rect width="70" height="70" fill="white" transform="matrix(-1 0 0 -1 70 70)"/>
</clipPath>
</defs>
</svg>
