<svg width="50" height="50" viewBox="0 0 50 50" fill="none" xmlns="http://www.w3.org/2000/svg">
<g clip-path="url(#clip0_22_229)">
<path d="M35.7708 49.9997C35.4966 50.0013 35.2248 49.9488 34.971 49.8451C34.7172 49.7414 34.4863 49.5886 34.2917 49.3956L17.2708 32.3747C16.3008 31.4071 15.5311 30.2576 15.006 28.9921C14.4808 27.7266 14.2105 26.3699 14.2105 24.9997C14.2105 23.6296 14.4808 22.2729 15.006 21.0074C15.5311 19.7418 16.3008 18.5924 17.2708 17.6247L34.2917 0.603902C34.4859 0.409655 34.7165 0.25557 34.9703 0.150444C35.2241 0.0453184 35.4961 -0.00878906 35.7708 -0.00878906C36.0455 -0.00878906 36.3176 0.0453184 36.5713 0.150444C36.8251 0.25557 37.0557 0.409655 37.25 0.603902C37.4442 0.798149 37.5983 1.02875 37.7035 1.28255C37.8086 1.53635 37.8627 1.80836 37.8627 2.08307C37.8627 2.35777 37.8086 2.62979 37.7035 2.88359C37.5983 3.13738 37.4442 3.36799 37.25 3.56224L20.2292 20.5831C19.0587 21.7549 18.4013 23.3435 18.4013 24.9997C18.4013 26.656 19.0587 28.2445 20.2292 29.4164L37.25 46.4372C37.4453 46.6309 37.6003 46.8613 37.706 47.1152C37.8118 47.3691 37.8662 47.6414 37.8662 47.9164C37.8662 48.1914 37.8118 48.4637 37.706 48.7176C37.6003 48.9715 37.4453 49.2019 37.25 49.3956C37.0553 49.5886 36.8245 49.7414 36.5706 49.8451C36.3168 49.9488 36.045 50.0013 35.7708 49.9997Z" fill="white"/>
</g>
<defs>
<clipPath id="clip0_22_229">
<rect width="50" height="50" fill="white"/>
</clipPath>
</defs>
</svg>
