<svg width="50" height="50" viewBox="0 0 50 50" fill="none" xmlns="http://www.w3.org/2000/svg">
<g clip-path="url(#clip0_22_224)">
<path d="M7.29167 25C10.1646 25 12.5 22.6625 12.5 19.7917C12.5 16.9208 10.1646 14.5833 7.29167 14.5833C4.41875 14.5833 2.08333 16.9208 2.08333 19.7917C2.08333 22.6625 4.41875 25 7.29167 25ZM7.29167 16.6667C9.01458 16.6667 10.4167 18.0687 10.4167 19.7917C10.4167 21.5146 9.01458 22.9167 7.29167 22.9167C5.56875 22.9167 4.16667 21.5146 4.16667 19.7917C4.16667 18.0687 5.56875 16.6667 7.29167 16.6667ZM33.3333 44.7917V48.9583C33.3333 49.5333 32.8667 50 32.2917 50C31.7167 50 31.25 49.5333 31.25 48.9583V44.7917C31.25 44.2167 30.7812 43.75 30.2083 43.75H19.7917C19.2188 43.75 18.75 44.2167 18.75 44.7917V48.9583C18.75 49.5333 18.2833 50 17.7083 50C17.1333 50 16.6667 49.5333 16.6667 48.9583V44.7917C16.6667 43.0687 18.0687 41.6667 19.7917 41.6667H30.2083C31.9312 41.6667 33.3333 43.0687 33.3333 44.7917ZM17.5292 37.5H21.875C22.45 37.5 22.9167 37.0333 22.9167 36.4583C22.9167 35.8833 22.45 35.4167 21.875 35.4167H17.5292C17.2542 35.4167 16.9854 35.3062 16.7917 35.1125C16.7917 35.1125 10.6896 28.925 10.4417 28.7C9.13542 27.5167 7.3625 26.9417 5.60833 27.1167C2.56875 27.4208 0 30.4062 0 33.6312V46.875C0 48.5979 1.40208 50 3.125 50H9.375C11.0979 50 12.5 48.5979 12.5 46.875V33.7646L15.3208 36.5854C15.9021 37.1667 16.7083 37.5 17.5312 37.5H17.5292ZM10.4167 46.875C10.4167 47.45 9.94792 47.9167 9.375 47.9167H3.125C2.55208 47.9167 2.08333 47.45 2.08333 46.875V33.6312C2.09375 31.3042 4.05208 29.1208 6.25208 29.1667C8.48542 29.1167 10.4604 31.1 10.4167 33.3333V46.875ZM42.7083 25C45.5812 25 47.9167 22.6625 47.9167 19.7917C47.9167 16.9208 45.5812 14.5833 42.7083 14.5833C39.8354 14.5833 37.5 16.9208 37.5 19.7917C37.5 22.6625 39.8354 25 42.7083 25ZM42.7083 16.6667C44.4312 16.6667 45.8333 18.0687 45.8333 19.7917C45.8333 21.5146 44.4312 22.9167 42.7083 22.9167C40.9854 22.9167 39.5833 21.5146 39.5833 19.7917C39.5833 18.0687 40.9854 16.6667 42.7083 16.6667ZM44.3917 27.1146C42.6333 26.9458 40.8667 27.5146 39.5583 28.6979C39.3104 28.9229 33.2083 35.1104 33.2083 35.1104C33.0146 35.3042 32.7458 35.4146 32.4708 35.4146H28.125C27.55 35.4146 27.0833 35.8812 27.0833 36.4562C27.0833 37.0312 27.55 37.4979 28.125 37.4979H32.4708C33.2938 37.4979 34.0979 37.1646 34.6812 36.5833L37.5021 33.7625V46.8729C37.5021 48.5958 38.9042 49.9979 40.6271 49.9979H46.8771C48.6 49.9979 50.0021 48.5958 50.0021 46.8729V33.6292C50.0021 30.4021 47.4312 27.4187 44.3917 27.1146ZM47.9167 46.875C47.9167 47.45 47.4479 47.9167 46.875 47.9167H40.625C40.0521 47.9167 39.5833 47.45 39.5833 46.875V33.3333C39.5396 31.1 41.5146 29.1146 43.7479 29.1667C45.9479 29.1208 47.9062 31.3042 47.9167 33.6312V46.875ZM23.9583 4.16667V1.04167C23.9583 0.466667 24.425 0 25 0C25.575 0 26.0417 0.466667 26.0417 1.04167V4.16667C26.0417 4.74167 25.575 5.20833 25 5.20833C24.425 5.20833 23.9583 4.74167 23.9583 4.16667ZM32.0604 7.52292C31.6542 7.11667 31.6542 6.45625 32.0604 6.05L34.1437 3.96667C34.55 3.56042 35.2104 3.56042 35.6167 3.96667C36.0229 4.37292 36.0229 5.03333 35.6167 5.43958L33.5333 7.52292C33.1271 7.92917 32.4667 7.92917 32.0604 7.52292ZM14.3833 5.43958C13.9771 5.03333 13.9771 4.37292 14.3833 3.96667C14.7896 3.56042 15.45 3.56042 15.8562 3.96667L17.9396 6.05C18.3458 6.45625 18.3458 7.11667 17.9396 7.52292C17.5333 7.92917 16.8729 7.92917 16.4667 7.52292L14.3833 5.43958ZM19.9563 23.275C20.5146 23.7 20.8333 24.3125 20.8333 24.9583V26.0438C20.8333 27.7667 22.2354 29.1687 23.9583 29.1687H26.0417C27.7646 29.1687 29.1667 27.7667 29.1667 26.0438V24.9583C29.1667 24.3125 29.4875 23.6958 30.05 23.2687C32.1375 21.6792 33.3333 19.275 33.3333 16.6688C33.3333 14.1167 32.1875 11.7396 30.1875 10.1479C28.1854 8.55417 25.5854 7.97708 23.0375 8.56042C19.9875 9.26042 17.5729 11.6896 16.8833 14.75C16.1458 18.0083 17.325 21.2771 19.9563 23.2771V23.275ZM26.0417 27.0854H23.9583C23.3854 27.0854 22.9167 26.6187 22.9167 26.0438V25.0021H27.0833V26.0438C27.0833 26.6187 26.6146 27.0854 26.0417 27.0854ZM18.9146 15.2062C19.5208 12.4458 22.1687 10.3625 24.9854 10.4208C28.3479 10.3458 31.3229 13.3 31.25 16.6688C31.25 18.6187 30.3521 20.4208 28.7875 21.6125C28.3083 21.9771 27.9375 22.4271 27.6542 22.9188H22.3479C22.0646 22.4292 21.6958 21.9792 21.2188 21.6167C19.2458 20.1167 18.3625 17.6604 18.9146 15.2062Z" fill="#548072"/>
</g>
<defs>
<clipPath id="clip0_22_224">
<rect width="50" height="50" fill="white"/>
</clipPath>
</defs>
</svg>
