<svg width="50" height="50" viewBox="0 0 50 50" fill="none" xmlns="http://www.w3.org/2000/svg">
<g clip-path="url(#clip0_20_213)">
<path d="M4.16667 5.20833C4.16667 2.33125 6.49792 0 9.375 0C12.2521 0 14.5833 2.33125 14.5833 5.20833C14.5833 8.08542 12.2521 10.4167 9.375 10.4167C6.49792 10.4167 4.16667 8.08542 4.16667 5.20833ZM31.25 16.0187H16.6667V50.8354H12.5V35.6042H8.33333V50.8354H4.16667V35.6042H0V18.1958C0 14.5958 2.80417 11.6687 6.25 11.6687H31.25V16.0187ZM46.875 37.5H40.625C38.9 37.5 37.5 38.9 37.5 40.625V50H50V40.625C50 38.9 48.6 37.5 46.875 37.5ZM30.2083 37.5H23.9583C22.2333 37.5 20.8333 38.9 20.8333 40.625V50H33.3333V40.625C33.3333 38.9 31.9333 37.5 30.2083 37.5ZM38.5417 20.8333H32.2917C30.5667 20.8333 29.1667 22.2333 29.1667 23.9583V33.3333H41.6667V23.9583C41.6667 22.2333 40.2667 20.8333 38.5417 20.8333Z" fill="#548072"/>
</g>
<defs>
<clipPath id="clip0_20_213">
<rect width="50" height="50" fill="white"/>
</clipPath>
</defs>
</svg>
