<svg width="50" height="50" viewBox="0 0 50 50" fill="none" xmlns="http://www.w3.org/2000/svg">
<g clip-path="url(#clip0_20_203)">
<path d="M37.5 25C30.5958 25 25 30.5958 25 37.5C25 44.4042 30.5958 50 37.5 50C44.4042 50 50 44.4042 50 37.5C50 30.5958 44.4042 25 37.5 25ZM44.3771 41.5312C44.0583 43.7812 42.0687 45.4167 39.7958 45.4167H39.2125V46.2667C39.2125 47.1771 38.4771 47.9167 37.5667 47.9167H37.525C36.6167 47.9167 35.8812 47.175 35.8812 46.2667V45.4167H35.4646C33.9833 45.4167 32.6562 44.7396 31.7771 43.6812C30.9063 42.6312 31.6458 41.0438 33.0104 41.0438C33.4833 41.0438 34.0729 41.2667 34.3938 41.6146C34.6604 41.9042 35.0438 42.0854 35.4667 42.0854H39.8479C40.4271 42.0854 40.9562 41.6958 41.0687 41.1271C41.2 40.4646 40.7646 39.8458 40.1292 39.7167L34.3146 38.5521C31.9979 38.0875 30.3813 35.8833 30.7208 33.4708C31.0375 31.2208 33.0292 29.5833 35.3021 29.5833H35.8854V28.75C35.8854 27.8292 36.6312 27.0833 37.5521 27.0833C38.4729 27.0833 39.2188 27.8292 39.2188 28.75V29.5833H39.6354C41.1167 29.5833 42.4437 30.2583 43.3229 31.3187C44.1937 32.3687 43.4542 33.9562 42.0896 33.9562C41.6167 33.9562 41.0271 33.7333 40.7062 33.3854C40.4396 33.0958 40.0563 32.9146 39.6333 32.9146H35.2542C34.675 32.9146 34.1458 33.3021 34.0312 33.8687C33.8979 34.5312 34.3354 35.1542 34.9667 35.2812L40.7833 36.4458C43.1 36.9083 44.7188 39.1167 44.3771 41.5271V41.5312ZM50 4.16667V12.5C50 13.65 49.0687 14.5833 47.9167 14.5833C46.7646 14.5833 45.8333 13.65 45.8333 12.5V7.1125L37.3708 15.575C34.5708 18.375 30.0146 18.3771 27.2146 15.575L21.925 10.2875C20.75 9.1125 18.8354 9.1125 17.6583 10.2875L3.55625 24.3896C3.15 24.7958 2.61667 25 2.08334 25C1.55 25 1.01667 24.7958 0.610419 24.3896C-0.204165 23.575 -0.204165 22.2583 0.610419 21.4438L14.7125 7.34167C17.5125 4.53958 22.0708 4.53958 24.8708 7.34167L30.1604 12.6292C31.3375 13.8083 33.2521 13.8021 34.425 12.6292L42.8875 4.16667H37.5C36.3479 4.16667 35.4167 3.23333 35.4167 2.08333C35.4167 0.933333 36.3479 0 37.5 0H45.8333C48.1312 0 50 1.86875 50 4.16667ZM6.25 31.25V47.9167C6.25 49.0687 5.31667 50 4.16667 50C3.01667 50 2.08334 49.0687 2.08334 47.9167V31.25C2.08334 30.0979 3.01667 29.1667 4.16667 29.1667C5.31667 29.1667 6.25 30.0979 6.25 31.25ZM16.6667 21.875V47.9167C16.6667 49.0687 15.7333 50 14.5833 50C13.4333 50 12.5 49.0687 12.5 47.9167V21.875C12.5 20.725 13.4333 19.7917 14.5833 19.7917C15.7333 19.7917 16.6667 20.725 16.6667 21.875ZM25 27.0833C23.85 27.0833 22.9167 26.15 22.9167 25V20.8333C22.9167 19.6833 23.85 18.75 25 18.75C26.15 18.75 27.0833 19.6833 27.0833 20.8333V25C27.0833 26.15 26.15 27.0833 25 27.0833Z" fill="#548072"/>
</g>
<defs>
<clipPath id="clip0_20_203">
<rect width="50" height="50" fill="white"/>
</clipPath>
</defs>
</svg>
