<svg width="50" height="50" viewBox="0 0 50 50" fill="none" xmlns="http://www.w3.org/2000/svg">
<g clip-path="url(#clip0_17_97)">
<g clip-path="url(#clip1_17_97)">
<path d="M18.75 25.0007C16.2777 25.0007 13.861 24.2676 11.8054 22.8941C9.74976 21.5206 8.14761 19.5684 7.20151 17.2843C6.25542 15.0002 6.00787 12.4869 6.49019 10.0621C6.9725 7.63735 8.16301 5.41006 9.91117 3.6619C11.6593 1.91375 13.8866 0.723237 16.3114 0.240922C18.7361 -0.241393 21.2495 0.0061485 23.5335 0.952244C25.8176 1.89834 27.7699 3.5005 29.1434 5.55611C30.5169 7.61172 31.25 10.0285 31.25 12.5007C31.2467 15.8149 29.9287 18.9924 27.5852 21.3359C25.2417 23.6794 22.0642 24.9974 18.75 25.0007ZM18.75 4.1674C17.1018 4.1674 15.4907 4.65615 14.1203 5.57182C12.7498 6.4875 11.6817 7.78899 11.051 9.31171C10.4203 10.8344 10.2553 12.51 10.5768 14.1265C10.8983 15.743 11.692 17.2279 12.8574 18.3933C14.0229 19.5587 15.5077 20.3524 17.1243 20.6739C18.7408 20.9955 20.4163 20.8305 21.939 20.1997C23.4618 19.569 24.7632 18.5009 25.6789 17.1305C26.5946 15.7601 27.0833 14.1489 27.0833 12.5007C27.0833 10.2906 26.2054 8.17098 24.6426 6.60818C23.0798 5.04538 20.9601 4.1674 18.75 4.1674Z" fill="#548072"/>
<path d="M37.5 50.0008H33.3333V39.4946C33.3311 37.8614 32.6814 36.2958 31.5266 35.1409C30.3717 33.9861 28.8061 33.3364 27.1729 33.3341H10.3271C8.69392 33.3364 7.12827 33.9861 5.97345 35.1409C4.81862 36.2958 4.16887 37.8614 4.16667 39.4946V50.0008H0V39.4946C0.00330797 36.7567 1.0924 34.1319 3.02839 32.1959C4.96437 30.2599 7.58919 29.1708 10.3271 29.1675H27.1729C29.9108 29.1708 32.5356 30.2599 34.4716 32.1959C36.4076 34.1319 37.4967 36.7567 37.5 39.4946V50.0008Z" fill="#548072"/>
<path d="M45.8333 16.407C44.6739 16.4647 43.5846 16.9794 42.8037 17.8384C42.0228 18.6973 41.614 19.8307 41.6667 20.9903C41.7193 19.8307 41.3105 18.6973 40.5296 17.8384C39.7487 16.9794 38.6594 16.4647 37.5 16.407C36.3406 16.4647 35.2512 16.9794 34.4704 17.8384C33.6895 18.6973 33.2806 19.8307 33.3333 20.9903C33.3333 25.782 41.6667 31.6841 41.6667 31.6841C41.6667 31.6841 50 25.7903 50 20.9903C50.0527 19.8307 49.6438 18.6973 48.863 17.8384C48.0821 16.9794 46.9927 16.4647 45.8333 16.407Z" fill="#548072"/>
</g>
</g>
<defs>
<clipPath id="clip0_17_97">
<rect width="50" height="50" fill="white"/>
</clipPath>
<clipPath id="clip1_17_97">
<rect width="50" height="50" fill="white" transform="translate(0 0.000732422)"/>
</clipPath>
</defs>
</svg>
