<svg width="50" height="50" viewBox="0 0 50 50" fill="none" xmlns="http://www.w3.org/2000/svg">
<g clip-path="url(#clip0_17_88)">
<path d="M35.4167 25C35.4167 23.85 36.3501 22.9166 37.5001 22.9166C38.6501 22.9166 39.5834 23.85 39.5834 25C39.5834 26.15 38.6501 27.0833 37.5001 27.0833C36.3501 27.0833 35.4167 26.15 35.4167 25ZM46.8751 22.9166H46.8688C45.8209 20.1645 44.0022 17.7062 41.6667 15.8895V9.37913C41.6667 8.34163 41.1563 7.37496 40.3001 6.79371C39.4397 6.20829 38.3459 6.08955 37.3772 6.47496C33.9397 7.83954 31.7917 10.3083 31.3334 13.4208C31.248 13.9895 31.6397 14.5187 32.2105 14.6041C32.7751 14.6895 33.3084 14.2958 33.3917 13.727C33.8376 10.7166 36.223 9.17496 38.1459 8.41246C38.4771 8.2833 38.8355 8.31871 39.1292 8.51871C39.4188 8.71455 39.5855 9.02913 39.5855 9.38121V16.4125C39.5855 16.7458 39.7459 17.0604 40.0147 17.2562C42.4105 18.9916 44.2313 21.4895 45.1438 24.2854C45.2834 24.7145 45.6834 25.0041 46.1355 25.0041H46.8667C47.3459 25.0166 47.9209 25.2062 47.9209 26.0458V32.2958C47.9209 32.8687 47.4522 33.3375 46.8792 33.3375H45.7542C45.3313 33.3375 44.9501 33.5916 44.7897 33.9854C43.2188 37.8125 40.0647 40.7416 36.1397 42.0208C35.7126 42.1604 35.4209 42.5604 35.4209 43.0125V44.7958C35.4209 46.5187 34.0188 47.9208 32.2959 47.9208C30.573 47.9208 29.1709 46.5187 29.1709 44.7958C29.1709 44.2208 28.7042 43.7541 28.1292 43.7541H19.7959C19.2209 43.7541 18.7542 44.2208 18.7542 44.7958C18.7542 46.5187 17.3522 47.9208 15.6292 47.9208C13.9063 47.9208 12.5042 46.5187 12.5042 44.7958V43.0125C12.5042 42.5604 12.2147 42.1625 11.7855 42.0208C5.40632 39.9395 1.45424 33.802 2.1709 27.0937C2.66257 22.4979 5.53549 18.4375 9.85215 16.2354C10.3647 15.975 10.5688 15.3458 10.3063 14.8354C10.0438 14.3229 9.41674 14.1166 8.90632 14.3812C7.03549 15.3354 5.40424 16.5979 4.06465 18.0833C2.86257 17.327 2.08757 16.0354 2.08757 14.5895C2.08757 12.2916 3.95632 10.4229 6.25424 10.4229C6.82924 10.4229 7.2959 9.95621 7.2959 9.38121C7.2959 8.80621 6.82924 8.33955 6.25424 8.33955C2.8084 8.33955 0.00423671 11.1437 0.00423671 14.5895C0.00423671 16.6875 1.06049 18.6062 2.75632 19.7562C1.30424 21.8583 0.370903 24.2854 0.0959034 26.8687C-0.69993 34.3104 3.51674 41.1416 10.4167 43.7458V44.7916C10.4167 47.6645 12.7542 50 15.6251 50C18.1417 50 20.2438 48.2083 20.7292 45.8333H27.1876C27.6709 48.2083 29.7772 50 32.2917 50C35.1647 50 37.5001 47.6645 37.5001 44.7916V43.7437C41.4542 42.2458 44.6563 39.2625 46.4313 35.4166H46.8751C48.598 35.4166 50.0001 34.0145 50.0001 32.2916V26.0416C50.0001 23.7479 48.1313 22.9166 46.8751 22.9166ZM12.6584 6.69371C13.2626 3.54371 15.7563 0.945795 18.8605 0.227045C21.4042 -0.360455 24.0126 0.214545 26.0167 1.80621C28.0188 3.39788 29.1667 5.77705 29.1667 8.33121C29.1667 11.5125 27.3792 14.3666 24.5001 15.7791C24.1709 15.9416 23.9584 16.2937 23.9584 16.6812V18.125C23.9584 19.6187 22.7438 20.8333 21.2501 20.8333H20.4167C18.873 20.8333 17.7084 19.5895 17.7084 17.9416V16.6791C17.7084 16.2895 17.4917 15.9416 17.1438 15.7687C13.7397 14.0875 11.9376 10.4416 12.6563 6.69371H12.6584ZM21.8751 16.6812C21.8751 16.6812 21.8772 16.6708 21.8772 16.6666H19.7897C19.7897 16.6666 19.7897 16.675 19.7897 16.6791V17.9416C19.7897 18.425 20.0417 18.75 20.4147 18.75H21.248C21.5938 18.75 21.873 18.4708 21.873 18.125V16.6812H21.8751ZM18.0667 13.902C18.4126 14.0729 18.6938 14.3145 18.9459 14.5833H22.7209C22.9688 14.3145 23.248 14.0729 23.5834 13.9104C25.7417 12.852 27.0834 10.7145 27.0834 8.33329C27.0834 6.41663 26.2209 4.6333 24.7188 3.43746C23.6042 2.55205 22.2376 2.08538 20.8188 2.08538C20.3251 2.08538 19.8251 2.14163 19.3292 2.2583C17.0147 2.79163 15.1563 4.73329 14.7042 7.08746C14.1626 9.90413 15.5147 12.6416 18.0667 13.902Z" fill="#548072"/>
</g>
<defs>
<clipPath id="clip0_17_88">
<rect width="50" height="50" fill="white"/>
</clipPath>
</defs>
</svg>
