<svg width="50" height="50" viewBox="0 0 50 50" fill="none" xmlns="http://www.w3.org/2000/svg">
<g clip-path="url(#clip0_17_203)">
<path d="M48.7979 37.7062L41.5917 30.7291C41.5833 30.2728 41.5646 29.8187 41.4625 29.3728C41.2125 28.2749 41.7167 27.1062 42.7146 26.4624C44.5687 25.277 45.8104 23.0853 45.775 20.8374C45.7792 19.7083 45.5021 18.6041 44.9708 17.6458C44.4083 16.6291 43.6479 15.8083 42.7125 15.2041C41.7146 14.5603 41.2125 13.3916 41.4604 12.2958C41.7146 11.1874 41.6771 10.0437 41.3479 8.89992C40.7312 6.75409 39.0167 5.04159 36.875 4.42909C35.7375 4.102 34.5937 4.0645 33.4833 4.3145C32.3917 4.56659 31.2187 4.06242 30.575 3.0645C29.9708 2.13117 29.15 1.37284 28.1354 0.808252C26.1833 -0.272998 23.7604 -0.272998 21.8083 0.808252C20.7917 1.37284 19.9708 2.13325 19.3687 3.06659C18.725 4.0645 17.5562 4.56867 16.4604 4.31659C15.35 4.06659 14.2104 4.10409 13.0687 4.43117C10.925 5.04575 9.2104 6.75825 8.59582 8.90409C8.26874 10.0458 8.22916 11.1874 8.48124 12.2978C8.73124 13.3937 8.22915 14.5624 7.23124 15.2062C5.3729 16.3937 4.13749 18.5791 4.17082 20.8312C4.13749 23.0937 5.36874 25.2728 7.23332 26.4645C8.23124 27.1083 8.73332 28.277 8.48332 29.3728C8.37916 29.8353 8.35415 30.3083 8.34999 30.7791L1.19582 37.7062C0.0916551 38.7708 -0.283345 40.3333 0.216655 41.7833C0.716655 43.2333 1.97499 44.2333 3.50207 44.3916L5.86457 44.6353L6.14374 46.6478C6.37707 48.552 8.10624 50.0333 10.0146 50.0124C11.0125 50.0124 11.9875 49.6249 12.7292 48.902L21.3625 40.5353C22.3771 41.3333 23.7167 41.6583 24.9771 41.6708C26.2479 41.6583 27.6 41.3249 28.6187 40.5145L37.2687 48.8978C38.0125 49.6249 38.9875 50.0124 39.9875 50.0124C41.8937 50.0312 43.6229 48.552 43.8562 46.6478L44.1354 44.6353L46.4979 44.3916C48.025 44.2333 49.2833 43.2333 49.7833 41.7833C50.2833 40.3333 49.9083 38.7708 48.8042 37.7062H48.7979ZM11.2687 47.4083C10.7687 47.8978 10.0771 48.0562 9.41249 47.827C8.74999 47.602 8.29582 47.052 8.19999 46.3583L7.80832 43.5374C7.74165 43.0624 7.3604 42.6937 6.88332 42.6437L3.70832 42.3166C2.98749 42.2416 2.41457 41.7895 2.17915 41.102C1.94374 40.4166 2.11249 39.7083 2.63749 39.202L8.7979 33.2374C9.51874 35.1499 11.0896 36.6687 13.0667 37.2353C14.2083 37.5624 15.3521 37.6041 16.4583 37.3499C17.5542 37.102 18.7229 37.6041 19.3667 38.5999C19.4917 38.7958 19.6667 38.9499 19.8104 39.1291L11.2687 47.4083ZM27.1229 39.0353C25.8146 39.7624 24.1229 39.7624 22.8167 39.0353C22.1021 38.6416 21.5312 38.1145 21.1167 37.4708C20.1958 36.0416 18.6333 35.2041 17.0187 35.2041C15.8792 35.2645 14.8 35.6437 13.6375 35.2333C12.2 34.8228 11.0062 33.627 10.5937 32.1916C10.3646 31.3895 10.3354 30.5958 10.5083 29.8333C10.95 27.8853 10.0854 25.8291 8.35624 24.7124C7.08124 23.8895 6.2229 22.402 6.2479 20.8291C6.2229 19.2666 7.08541 17.7708 8.35624 16.9541C10.0875 15.8374 10.9521 13.7812 10.5083 11.8333C10.3354 11.0708 10.3646 10.277 10.5937 9.47492C11.0062 8.03742 12.2 6.84367 13.6375 6.43117C14.4396 6.20409 15.2312 6.17492 15.9937 6.34575C17.9437 6.7895 20 5.92492 21.1146 4.19367C21.5292 3.54992 22.1 3.02284 22.8125 2.62909C24.1208 1.902 25.8104 1.90409 27.1187 2.62909C27.8312 3.02492 28.4042 3.552 28.8187 4.19367C29.9333 5.92492 31.9917 6.78325 33.9396 6.34575C34.7021 6.17284 35.4958 6.202 36.2958 6.43117C37.7333 6.84159 38.9292 8.03742 39.3417 9.47284C39.5708 10.2749 39.6 11.0687 39.425 11.8312C38.9833 13.7791 39.85 15.8353 41.5771 16.952C42.85 17.7708 43.7125 19.2666 43.6854 20.8353C43.7125 22.3958 42.8458 23.8958 41.5771 24.7103C39.8479 25.8249 38.9812 27.8833 39.425 29.8312C39.5979 30.5937 39.5708 31.3874 39.3396 32.1874C38.9271 33.6249 37.7312 34.8208 36.2937 35.2312C35.4937 35.4603 34.7 35.4874 33.9375 35.3166C31.9896 34.8791 29.9312 35.7395 28.8167 37.4687C28.4 38.1124 27.8292 38.6395 27.1167 39.0333L27.1229 39.0353ZM47.8062 41.102C47.5687 41.7895 46.9979 42.2416 46.2771 42.3166L43.1021 42.6437C42.625 42.6937 42.2437 43.0624 42.1771 43.5374L41.7854 46.3583C41.6896 47.052 41.2354 47.5999 40.5729 47.827C39.9167 48.0541 39.2187 47.8958 38.7146 47.4041L30.15 39.1041C30.2875 38.9333 30.4542 38.7853 30.5729 38.5999C31.2187 37.6041 32.3917 37.102 33.4812 37.3499C34.5896 37.5999 35.7292 37.5645 36.8729 37.2353C38.8604 36.6666 40.4396 35.1333 41.1562 33.2041L47.35 39.202C47.8729 39.7062 48.0437 40.4187 47.8062 41.102ZM34.2146 24.2708L35.3625 19.077C35.4208 18.9041 35.8958 17.3603 34.9562 16.0562C34.25 15.077 33.0021 14.5812 31.25 14.5812H27.0646L28.0729 11.477C28.1479 11.0437 28.1437 10.6666 28.0604 10.3603C27.6271 8.77492 26.0125 7.94367 24.4646 8.58325C23.9812 8.78534 23.5604 9.177 23.125 9.7395L19.1937 14.5812H18.7521C16.4542 14.5812 14.5854 16.4499 14.5854 18.7478V24.9978C14.5854 27.2958 16.4542 29.1645 18.7521 29.1645H28.1167C31.0687 29.1645 33.5771 27.152 34.2187 24.2708H34.2146ZM16.6667 24.9978V18.7478C16.6667 17.5999 17.6021 16.6645 18.75 16.6645V27.0812C17.6021 27.0812 16.6667 26.1458 16.6667 24.9978ZM28.1146 27.0812H20.8333V15.8666C20.8333 15.8666 25.0417 10.5812 25.0562 10.5666C25.4792 10.0728 26.2292 10.477 26.0021 11.1103L24.6417 15.302C24.5375 15.6187 24.5917 15.9666 24.7875 16.2374C24.9833 16.5083 25.2979 16.6687 25.6312 16.6687H31.2521C32.2604 16.6687 32.975 16.8833 33.2625 17.2728C33.5937 17.7208 33.3875 18.427 33.3604 18.527L32.1833 23.8228C31.7562 25.7437 30.0833 27.0853 28.1167 27.0853L28.1146 27.0812Z" fill="#548072"/>
</g>
<defs>
<clipPath id="clip0_17_203">
<rect width="50" height="50" fill="white"/>
</clipPath>
</defs>
</svg>
