<svg width="50" height="50" viewBox="0 0 50 50" fill="none" xmlns="http://www.w3.org/2000/svg">
<g clip-path="url(#clip0_17_191)">
<path d="M23.9583 12.5001C25.6833 12.5001 27.0833 13.9001 27.0833 15.6251C27.0833 17.3501 25.6833 18.7501 23.9583 18.7501C22.2333 18.7501 20.8333 17.3501 20.8333 15.6251C20.8333 13.9001 22.2333 12.5001 23.9583 12.5001ZM11.4583 6.25007C13.1833 6.25007 14.5833 4.85007 14.5833 3.12507C14.5833 1.40007 13.1833 6.88003e-05 11.4583 6.88003e-05C9.73333 6.88003e-05 8.33333 1.40007 8.33333 3.12507C8.33333 4.85007 9.73333 6.25007 11.4583 6.25007ZM48.4083 27.1147L34.2312 43.0251C30.2812 47.4584 24.6125 50.0001 18.6771 50.0001H8.33333C3.7375 50.0001 0 46.2626 0 41.6667V31.2501C0 26.6542 3.7375 22.9167 8.33333 22.9167H26.7875C29.1604 22.9167 31.2417 24.1855 32.3896 26.0792L39.0896 18.7167C40.2188 17.4772 41.7604 16.7501 43.4354 16.673C45.1188 16.5855 46.7146 17.173 47.9521 18.3022C50.4812 20.6084 50.6854 24.5605 48.4083 27.1126V27.1147ZM45.1458 21.3834C44.7312 21.0042 44.1896 20.8272 43.6292 20.8376C43.0667 20.8647 42.55 21.1063 42.1708 21.523L32.95 31.6563C32.1479 33.8876 30.1604 35.5959 27.7125 35.9459L16.9604 37.4813C15.825 37.6459 14.7667 36.8542 14.6042 35.7147C14.4417 34.5751 15.2333 33.5209 16.3708 33.3584L27.1229 31.823C28.2875 31.6563 29.1667 30.6438 29.1667 29.4667C29.1667 28.1542 28.1 27.0876 26.7875 27.0876H8.33333C6.03542 27.0876 4.16667 28.9563 4.16667 31.2542V41.6709C4.16667 43.9688 6.03542 45.8376 8.33333 45.8376H18.6771C23.425 45.8376 27.9625 43.8042 31.1208 40.2584L45.2979 24.3459C46.0625 23.4876 45.9937 22.1605 45.1458 21.3855V21.3834ZM11.8958 18.4209C12.2437 18.6438 12.6333 18.7522 13.0208 18.7522C13.7062 18.7522 14.3771 18.4147 14.775 17.7959L24.1479 3.21049C24.7687 2.24382 24.4896 0.954235 23.5208 0.331319C22.5562 -0.291598 21.2646 -0.0103479 20.6417 0.958402L11.2667 15.5417C10.6458 16.5084 10.9271 17.798 11.8958 18.4209Z" fill="#548072"/>
</g>
<defs>
<clipPath id="clip0_17_191">
<rect width="50" height="50" fill="white"/>
</clipPath>
</defs>
</svg>
