<svg width="50" height="50" viewBox="0 0 50 50" fill="none" xmlns="http://www.w3.org/2000/svg">
<path d="M43.75 44.7915V49.9998H6.25005V44.7915C6.25005 39.6227 10.4563 35.4165 15.625 35.4165H34.375C39.5438 35.4165 43.75 39.6227 43.75 44.7915ZM14.3167 8.38939C17.5021 5.40398 21.673 3.92898 26.0459 4.19981C34.2209 4.72898 40.6271 11.8436 40.6271 20.3956C40.6271 24.0831 37.6292 27.0811 33.9417 27.0811H28.9292C28.4209 25.354 26.8417 24.0831 24.95 24.0831C22.648 24.0831 20.7834 25.9477 20.7834 28.2498C20.7834 30.5519 22.648 32.4165 24.95 32.4165C26.0709 32.4165 27.0855 31.9686 27.8334 31.2477H33.9417C39.925 31.2477 44.7938 26.379 44.7938 20.3956C44.7917 9.65398 36.675 0.712312 26.3125 0.0435618C20.7625 -0.316855 15.498 1.56856 11.4667 5.35189C7.7438 8.84148 5.5063 13.6769 5.23755 18.7519H9.41047C9.66672 14.7873 11.3855 11.1373 14.3167 8.38939ZM31.4584 22.9165H34.3084C35.3521 22.9165 36.2646 22.1498 36.3855 21.1123C36.5271 19.8894 36.475 18.6081 36.1959 17.2977C35.2709 12.9665 31.7563 9.47273 27.4188 8.58106C20.05 7.06648 13.5459 12.6852 13.5459 19.7915C13.5459 22.8519 14.7521 25.6352 16.7125 27.6915C16.9417 23.2936 20.548 19.7894 25.0021 19.7894C27.623 19.7894 29.9313 21.0227 31.4584 22.9144V22.9165Z" fill="#548072"/>
</svg>
