<svg width="50" height="50" viewBox="0 0 50 50" fill="none" xmlns="http://www.w3.org/2000/svg">
<g clip-path="url(#clip0_17_151)">
<path d="M50 21.8757C50 16.7069 45.7937 12.5007 40.625 12.5007H35.4167V7.29232C35.4167 4.42148 33.0812 2.08398 30.2083 2.08398H5.20833C2.3375 2.08398 0 4.42148 0 7.29232V14.584H2.08333V7.29232C2.08333 5.5694 3.48542 4.16732 5.20833 4.16732H30.2083C31.9312 4.16732 33.3333 5.5694 33.3333 7.29232V37.5006H2.08333V25.0007H0V39.584H4.54167C4.3 40.2506 4.16667 40.9506 4.16667 41.6673C4.16667 45.1131 6.97083 47.9173 10.4167 47.9173C13.8625 47.9173 16.6667 45.1131 16.6667 41.6673C16.6667 40.9506 16.5333 40.2506 16.2917 39.584H33.7062C33.4646 40.2506 33.3312 40.9486 33.3312 41.6673C33.3312 45.1131 36.1354 47.9173 39.5812 47.9173C43.0271 47.9173 45.8312 45.1131 45.8312 41.6673C45.8312 40.9486 45.6979 40.2506 45.4562 39.584H49.9979L50 21.8757ZM14.5833 41.6673C14.5833 43.9652 12.7146 45.834 10.4167 45.834C8.11875 45.834 6.25 43.9652 6.25 41.6673C6.25 40.9298 6.49792 40.2277 6.88333 39.584H13.95C14.3354 40.2277 14.5833 40.9298 14.5833 41.6673ZM40.625 14.584C44.6458 14.584 47.9167 17.8548 47.9167 21.8757V25.0007H35.4167V14.584H40.625ZM43.75 41.6673C43.75 43.9652 41.8812 45.834 39.5833 45.834C37.2854 45.834 35.4167 43.9652 35.4167 41.6673C35.4167 40.9277 35.6646 40.2277 36.05 39.584H43.1167C43.5021 40.2277 43.75 40.9277 43.75 41.6673ZM35.4167 37.5006V27.084H47.9167V37.5006H35.4167ZM20.2979 20.834H0V18.7507H20.2979L13.275 11.7256L14.7479 10.2527L22.0771 17.5819C23.2958 18.8007 23.2958 20.7819 22.0771 22.0007L14.7479 29.3298L13.275 27.8569L20.2979 20.834Z" fill="#548072"/>
</g>
<defs>
<clipPath id="clip0_17_151">
<rect width="50" height="50" fill="white"/>
</clipPath>
</defs>
</svg>
