<svg width="50" height="50" viewBox="0 0 50 50" fill="none" xmlns="http://www.w3.org/2000/svg">
<rect x="1.5" y="1.5" width="47" height="47" rx="8.5" stroke="#548072" stroke-width="3"/>
<path d="M25.1152 37.3076C23.7578 37.3076 22.5176 37.0684 21.3945 36.5898C20.2812 36.1113 19.4023 35.418 18.7578 34.5098C18.1133 33.5918 17.8057 32.4834 17.835 31.1846L17.8643 31.0967H22.0098C22.0098 31.6533 22.1367 32.1562 22.3906 32.6055C22.6445 33.0449 23.001 33.3916 23.46 33.6455C23.9287 33.8994 24.4805 34.0264 25.1152 34.0264C26.1016 34.0264 26.8779 33.748 27.4443 33.1914C28.0205 32.6348 28.3086 31.8682 28.3086 30.8916C28.3086 29.8955 28.0254 29.1191 27.459 28.5625C26.8926 28.0059 26.0381 27.7275 24.8955 27.7275H22.5811V24.5195H24.9834C25.667 24.5195 26.2285 24.4023 26.668 24.168C27.1074 23.9238 27.4346 23.582 27.6494 23.1426C27.8643 22.7031 27.9717 22.1855 27.9717 21.5898C27.9717 20.6914 27.7275 19.9785 27.2393 19.4512C26.751 18.9238 26.043 18.6602 25.1152 18.6602C24.5586 18.6602 24.0654 18.7725 23.6357 18.9971C23.2061 19.2119 22.8691 19.5195 22.625 19.9199C22.3906 20.3203 22.2734 20.7842 22.2734 21.3115H18.1279L18.0986 21.2236C18.0693 20.0908 18.3477 19.085 18.9336 18.2061C19.5195 17.3174 20.3447 16.624 21.4092 16.126C22.4834 15.6182 23.709 15.3643 25.0859 15.3643C27.2441 15.3643 28.9775 15.8916 30.2861 16.9463C31.5947 17.9912 32.249 19.4756 32.249 21.3994C32.249 22.3955 31.9707 23.2939 31.4141 24.0947C30.8672 24.8955 30.0469 25.5498 28.9531 26.0576C30.1348 26.4775 31.0332 27.1221 31.6484 27.9912C32.2734 28.8604 32.5859 29.8711 32.5859 31.0234C32.5859 32.3223 32.2637 33.4404 31.6191 34.3779C30.9746 35.3154 30.0908 36.0381 28.9678 36.5459C27.8447 37.0537 26.5605 37.3076 25.1152 37.3076Z" fill="#548072"/>
</svg>
