<svg width="50" height="50" viewBox="0 0 50 50" fill="none" xmlns="http://www.w3.org/2000/svg">
<rect x="1.5" y="1.5" width="47" height="47" rx="8.5" stroke="#548072" stroke-width="3"/>
<path d="M18.1279 37V34.2021L25.042 26.7754C25.7451 25.9746 26.2969 25.2861 26.6973 24.71C27.0977 24.124 27.3809 23.5918 27.5469 23.1133C27.7227 22.625 27.8105 22.1416 27.8105 21.6631C27.8105 20.833 27.5713 20.1299 27.0928 19.5537C26.624 18.9775 25.9307 18.6895 25.0127 18.6895C24.0264 18.6895 23.2793 19.0117 22.7715 19.6562C22.2637 20.291 22.0098 21.1699 22.0098 22.293H17.8496L17.8203 22.2051C17.791 20.916 18.0645 19.7588 18.6406 18.7334C19.2266 17.6982 20.0664 16.8779 21.1602 16.2725C22.2637 15.667 23.5625 15.3643 25.0566 15.3643C26.5215 15.3643 27.7764 15.6279 28.8213 16.1553C29.876 16.6729 30.6865 17.4004 31.2529 18.3379C31.8193 19.2754 32.1025 20.3594 32.1025 21.5898C32.1025 22.4395 31.9512 23.2402 31.6484 23.9922C31.3457 24.7344 30.8721 25.5205 30.2275 26.3506C29.583 27.1807 28.7529 28.1328 27.7373 29.207L23.5918 33.6602L23.6211 33.7334H29.1436L29.3633 31.6973H32.6738V37H18.1279Z" fill="#548072"/>
</svg>
