<svg width="50" height="50" viewBox="0 0 50 50" fill="none" xmlns="http://www.w3.org/2000/svg">
<rect x="1.5" y="1.5" width="47" height="47" rx="8.5" stroke="#548072" stroke-width="3"/>
<path d="M25.0273 37.3076C23.7285 37.3076 22.5371 37.0684 21.4531 36.5898C20.3789 36.1016 19.5244 35.4082 18.8896 34.5098C18.2549 33.6113 17.9521 32.5371 17.9814 31.2871L18.0107 31.2139L22.1123 31.0088C22.1123 31.9561 22.3809 32.6982 22.918 33.2354C23.4551 33.7627 24.1582 34.0264 25.0273 34.0264C26.0234 34.0264 26.7607 33.6699 27.2393 32.957C27.7178 32.2441 27.957 31.3213 27.957 30.1885C27.957 28.958 27.7031 27.9717 27.1953 27.2295C26.6875 26.4873 25.9307 26.1162 24.9248 26.1162C24.1143 26.1162 23.4893 26.2676 23.0498 26.5703C22.6201 26.873 22.3125 27.2832 22.127 27.8008L18.3477 27.5518L19.5781 15.6719H31.8535V20.5352H29.2168L28.8359 19.0996H23.0938L22.4932 24.0215C22.7568 23.8262 23.0596 23.6553 23.4014 23.5088C23.7432 23.3525 24.1094 23.2305 24.5 23.1426C24.9004 23.0449 25.3252 22.9961 25.7744 22.9961C27.1416 22.9668 28.3037 23.2402 29.2607 23.8164C30.2275 24.3828 30.96 25.2031 31.458 26.2773C31.9658 27.3516 32.2197 28.6455 32.2197 30.1592C32.2197 31.5264 31.9414 32.752 31.3848 33.8359C30.8379 34.9102 30.0273 35.7598 28.9531 36.3848C27.8887 37 26.5801 37.3076 25.0273 37.3076Z" fill="#548072"/>
</svg>
