<svg width="90" height="90" viewBox="0 0 90 90" fill="none" xmlns="http://www.w3.org/2000/svg">
<g clip-path="url(#clip0_27_340)">
<path d="M33.75 41.25H7.5C3.36375 41.25 0 44.6138 0 48.75V73.125C0 82.4287 7.57125 90 16.875 90H33.75C37.8862 90 41.25 86.6363 41.25 82.5V48.75C41.25 44.6138 37.8862 41.25 33.75 41.25ZM37.5 82.5C37.5 84.57 35.82 86.25 33.75 86.25H16.875C9.6375 86.25 3.75 80.3625 3.75 73.125V48.75C3.75 46.68 5.43 45 7.5 45H33.75C35.82 45 37.5 46.68 37.5 48.75V82.5ZM33.75 0H16.875C7.57125 0 0 7.57125 0 16.875V26.25C0 30.3862 3.36375 33.75 7.5 33.75H33.75C37.8862 33.75 41.25 30.3862 41.25 26.25V7.5C41.25 3.36375 37.8862 0 33.75 0ZM37.5 26.25C37.5 28.32 35.82 30 33.75 30H7.5C5.43 30 3.75 28.32 3.75 26.25V16.875C3.75 9.6375 9.6375 3.75 16.875 3.75H33.75C35.82 3.75 37.5 5.43 37.5 7.5V26.25ZM82.5 56.25H56.25C52.1138 56.25 48.75 59.6138 48.75 63.75V82.5C48.75 86.6363 52.1138 90 56.25 90H73.125C82.4287 90 90 82.4287 90 73.125V63.75C90 59.6138 86.6363 56.25 82.5 56.25ZM86.25 73.125C86.25 80.3625 80.3625 86.25 73.125 86.25H56.25C54.18 86.25 52.5 84.57 52.5 82.5V63.75C52.5 61.68 54.18 60 56.25 60H82.5C84.57 60 86.25 61.68 86.25 63.75V73.125ZM73.125 0H56.25C52.1138 0 48.75 3.36375 48.75 7.5V41.25C48.75 45.3862 52.1138 48.75 56.25 48.75H82.5C86.6363 48.75 90 45.3862 90 41.25V16.875C90 7.57125 82.4287 0 73.125 0ZM86.25 41.25C86.25 43.32 84.57 45 82.5 45H56.25C54.18 45 52.5 43.32 52.5 41.25V7.5C52.5 5.43 54.18 3.75 56.25 3.75H73.125C80.3625 3.75 86.25 9.6375 86.25 16.875V41.25Z" fill="white"/>
</g>
<defs>
<clipPath id="clip0_27_340">
<rect width="90" height="90" fill="white"/>
</clipPath>
</defs>
</svg>
