<svg width="90" height="90" viewBox="0 0 90 90" fill="none" xmlns="http://www.w3.org/2000/svg">
<g clip-path="url(#clip0_27_343)">
<path d="M87.836 67.8711L74.8648 55.3123C74.8497 54.4911 74.816 53.6736 74.6322 52.8711C74.1823 50.8948 75.0898 48.7911 76.886 47.6323C80.2235 45.4986 82.4585 41.5536 82.3947 37.5073C82.4022 35.4748 81.9035 33.4873 80.9473 31.7623C79.9347 29.9323 78.566 28.4548 76.8822 27.3673C75.086 26.2086 74.1822 24.1048 74.6285 22.1323C75.086 20.1373 75.0185 18.0786 74.426 16.0198C73.316 12.1573 70.2298 9.0748 66.3747 7.9723C64.3272 7.38355 62.2685 7.31606 60.2697 7.76606C58.3047 8.2198 56.1935 7.3123 55.0347 5.51605C53.9472 3.83605 52.4697 2.47105 50.6435 1.4548C47.1297 -0.491445 42.7685 -0.491445 39.2547 1.4548C37.4247 2.47105 35.9472 3.8398 34.8635 5.5198C33.7047 7.31605 31.601 8.22355 29.6285 7.7698C27.6297 7.3198 25.5785 7.38731 23.5235 7.97606C19.6647 9.0823 16.5785 12.1648 15.4722 16.0273C14.8835 18.0823 14.8122 20.1373 15.266 22.1361C15.716 24.1086 14.8122 26.2123 13.016 27.3711C9.671 29.5086 7.44725 33.4423 7.50725 37.4961C7.44725 41.5686 9.6635 45.4911 13.0197 47.6361C14.816 48.7948 15.7197 50.8986 15.2697 52.8711C15.0822 53.7036 15.0372 54.5548 15.0297 55.4023L2.15225 67.8711C0.164747 69.7873 -0.510253 72.5998 0.389747 75.2098C1.28975 77.8198 3.55475 79.6198 6.3035 79.9048L10.556 80.3436L11.0585 83.9661C11.4785 87.3936 14.591 90.0598 18.026 90.0223C19.8222 90.0223 21.5772 89.3248 22.9122 88.0236L38.4522 72.9636C40.2785 74.3998 42.6898 74.9848 44.9585 75.0073C47.246 74.9848 49.6797 74.3848 51.5135 72.9261L67.0835 88.0161C68.4222 89.3248 70.1772 90.0223 71.9772 90.0223C75.4085 90.0561 78.521 87.3936 78.941 83.9661L79.4435 80.3436L83.696 79.9048C86.4447 79.6198 88.7097 77.8198 89.6097 75.2098C90.5098 72.5998 89.8347 69.7873 87.8473 67.8711H87.836ZM20.2835 85.3348C19.3835 86.2161 18.1385 86.5011 16.9422 86.0886C15.7497 85.6836 14.9322 84.6936 14.7597 83.4448L14.0547 78.3673C13.9347 77.5123 13.2485 76.8485 12.3897 76.7586L6.67475 76.1698C5.37725 76.0348 4.346 75.2211 3.92225 73.9836C3.4985 72.7498 3.80225 71.4748 4.74725 70.5636L15.836 59.8273C17.1335 63.2698 19.961 66.0035 23.5197 67.0236C25.5747 67.6123 27.6335 67.6873 29.6247 67.2298C31.5972 66.7835 33.701 67.6873 34.8597 69.4798C35.0847 69.8323 35.3997 70.1098 35.6585 70.4323L20.2835 85.3348ZM48.821 70.2635C46.466 71.5723 43.421 71.5723 41.0697 70.2635C39.7835 69.5548 38.756 68.606 38.0097 67.4473C36.3522 64.8748 33.5397 63.3673 30.6335 63.3673C28.5822 63.4761 26.6397 64.1586 24.5472 63.4198C21.9597 62.6811 19.811 60.5286 19.0685 57.9448C18.656 56.5011 18.6035 55.0723 18.9147 53.6998C19.7097 50.1936 18.1535 46.4923 15.041 44.4823C12.746 43.0011 11.201 40.3236 11.246 37.4923C11.201 34.6798 12.7535 31.9873 15.041 30.5173C18.1572 28.5073 19.7135 24.8061 18.9147 21.2998C18.6035 19.9273 18.656 18.4986 19.0685 17.0548C19.811 14.4673 21.9597 12.3186 24.5472 11.5761C25.991 11.1673 27.416 11.1148 28.7885 11.4223C32.2985 12.2211 35.9997 10.6648 38.006 7.54855C38.7522 6.3898 39.7797 5.44105 41.0622 4.7323C43.4172 3.42355 46.4585 3.4273 48.8135 4.7323C50.096 5.4448 51.1272 6.39355 51.8735 7.54855C53.8797 10.6648 57.5847 12.2098 61.091 11.4223C62.4635 11.1111 63.8923 11.1636 65.3323 11.5761C67.9198 12.3148 70.0723 14.4673 70.8148 17.0511C71.2272 18.4948 71.2797 19.9236 70.9647 21.2961C70.1697 24.8023 71.7298 28.5036 74.8385 30.5136C77.1298 31.9873 78.6823 34.6798 78.6335 37.5036C78.6823 40.3123 77.1223 43.0123 74.8385 44.4786C71.726 46.4848 70.166 50.1898 70.9647 53.6961C71.276 55.0686 71.2272 56.4973 70.811 57.9373C70.0685 60.5248 67.916 62.6773 65.3285 63.416C63.8885 63.8285 62.4598 63.8773 61.0872 63.5698C57.581 62.7823 53.876 64.3311 51.8697 67.4436C51.1197 68.6023 50.0922 69.5511 48.8097 70.2598L48.821 70.2635ZM86.051 73.9836C85.6235 75.2211 84.596 76.0348 83.2985 76.1698L77.5835 76.7586C76.7247 76.8485 76.0385 77.5123 75.9185 78.3673L75.2135 83.4448C75.041 84.6936 74.2235 85.6798 73.031 86.0886C71.8497 86.4973 70.5935 86.2123 69.686 85.3273L54.2697 70.3873C54.5173 70.0798 54.8172 69.8136 55.031 69.4798C56.1935 67.6873 58.3047 66.7835 60.266 67.2298C62.261 67.6798 64.3122 67.6161 66.371 67.0236C69.9485 65.9998 72.791 63.2398 74.081 59.7673L85.2298 70.5636C86.171 71.471 86.4785 72.7536 86.051 73.9836ZM61.586 43.6873L63.6523 34.3386C63.7573 34.0273 64.6122 31.2486 62.921 28.9011C61.6497 27.1386 59.4035 26.2461 56.2497 26.2461H48.716L50.531 20.6586C50.666 19.8786 50.6585 19.1998 50.5085 18.6486C49.7285 15.7948 46.8222 14.2986 44.036 15.4498C43.166 15.8136 42.4085 16.5186 41.6247 17.5311L34.5485 26.2461H33.7535C29.6172 26.2461 26.2535 29.6098 26.2535 33.7461V44.9961C26.2535 49.1323 29.6172 52.4961 33.7535 52.4961H50.6097C55.9235 52.4961 60.4385 48.8736 61.5935 43.6873H61.586ZM29.9997 44.9961V33.7461C29.9997 31.6798 31.6835 29.9961 33.7497 29.9961V48.7461C31.6835 48.7461 29.9997 47.0623 29.9997 44.9961ZM50.606 48.7461H37.4997V28.5598C37.4997 28.5598 45.0747 19.0461 45.101 19.0198C45.8622 18.1311 47.2122 18.8586 46.8035 19.9986L44.3547 27.5436C44.1672 28.1136 44.2647 28.7398 44.6172 29.2273C44.9697 29.7148 45.536 30.0036 46.136 30.0036H56.2535C58.0685 30.0036 59.3547 30.3898 59.8722 31.0911C60.4685 31.8973 60.0972 33.1686 60.0485 33.3486L57.9297 42.8811C57.161 46.3386 54.1497 48.7536 50.6097 48.7536L50.606 48.7461Z" fill="white"/>
</g>
<defs>
<clipPath id="clip0_27_343">
<rect width="90" height="90" fill="white"/>
</clipPath>
</defs>
</svg>
