<svg width="90" height="90" viewBox="0 0 90 90" fill="none" xmlns="http://www.w3.org/2000/svg">
<g clip-path="url(#clip0_27_325)">
<path d="M48.75 3.75013C48.75 2.75557 49.1451 1.80174 49.8484 1.09848C50.5516 0.395217 51.5054 0.000129254 52.5 0.000129254C62.4423 0.0110477 71.9742 3.96544 79.0045 10.9957C86.0347 18.0259 89.9891 27.5579 90 37.5001C90 38.4947 89.6049 39.4485 88.9017 40.1518C88.1984 40.855 87.2446 41.2501 86.25 41.2501C85.2554 41.2501 84.3016 40.855 83.5984 40.1518C82.8951 39.4485 82.5 38.4947 82.5 37.5001C82.4911 29.5464 79.3275 21.9209 73.7033 16.2968C68.0792 10.6726 60.4538 7.50906 52.5 7.50013C51.5054 7.50013 50.5516 7.10504 49.8484 6.40178C49.1451 5.69852 48.75 4.74469 48.75 3.75013ZM52.5 22.5001C56.4783 22.5001 60.2936 24.0805 63.1066 26.8935C65.9197 29.7066 67.5 33.5219 67.5 37.5001C67.5 38.4947 67.8951 39.4485 68.5984 40.1518C69.3016 40.855 70.2554 41.2501 71.25 41.2501C72.2446 41.2501 73.1984 40.855 73.9017 40.1518C74.6049 39.4485 75 38.4947 75 37.5001C74.994 31.5346 72.6216 25.8151 68.4033 21.5968C64.1851 17.3785 58.4656 15.0061 52.5 15.0001C51.5054 15.0001 50.5516 15.3952 49.8484 16.0985C49.1451 16.8017 48.75 17.7556 48.75 18.7501C48.75 19.7447 49.1451 20.6985 49.8484 21.4018C50.5516 22.105 51.5054 22.5001 52.5 22.5001ZM86.5988 62.7714C88.7719 64.9506 89.9923 67.9025 89.9923 70.9801C89.9923 74.0577 88.7719 77.0097 86.5988 79.1889L83.1863 83.1226C52.4738 112.526 -22.2637 37.8076 6.68626 6.99763L10.9988 3.24763C13.1804 1.13517 16.106 -0.0334367 19.1426 -0.00536509C22.1793 0.0227065 25.0828 1.2452 27.225 3.39763C27.3413 3.51388 34.29 12.5401 34.29 12.5401C36.3519 14.7062 37.4997 17.5836 37.4948 20.5741C37.4899 23.5647 36.3327 26.4383 34.2638 28.5976L29.9213 34.0576C32.3244 39.8968 35.8577 45.2036 40.3182 49.673C44.7786 54.1424 50.0782 57.6864 55.9125 60.1014L61.4063 55.7326C63.5659 53.6653 66.439 52.5095 69.4286 52.5053C72.4183 52.5011 75.2946 53.6489 77.46 55.7101C77.46 55.7101 86.4825 62.6551 86.5988 62.7714ZM81.4388 68.2239C81.4388 68.2239 72.465 61.3201 72.3488 61.2039C71.5762 60.4379 70.5323 60.0081 69.4444 60.0081C68.3564 60.0081 67.3126 60.4379 66.54 61.2039C66.4388 61.3089 58.875 67.3351 58.875 67.3351C58.3653 67.7408 57.7587 68.0068 57.1149 68.1067C56.4712 68.2067 55.8125 68.1372 55.2038 67.9051C47.6455 65.091 40.7803 60.6854 35.0731 54.9867C29.366 49.288 24.9503 42.4292 22.125 34.8751C21.8745 34.2581 21.7928 33.5855 21.8884 32.9264C21.984 32.2673 22.2533 31.6456 22.6688 31.1251C22.6688 31.1251 28.695 23.5576 28.7963 23.4601C29.5623 22.6876 29.9921 21.6437 29.9921 20.5558C29.9921 19.4678 29.5623 18.4239 28.7963 17.6514C28.68 17.5389 21.7763 8.55763 21.7763 8.55763C20.9921 7.85453 19.9688 7.47799 18.9159 7.50518C17.8631 7.53237 16.8605 7.96124 16.1138 8.70388L11.8013 12.4539C-9.35624 37.8939 55.41 99.0676 77.7038 78.0001L81.12 74.0626C81.9206 73.3211 82.4014 72.2973 82.4609 71.2078C82.5204 70.1182 82.1538 69.0481 81.4388 68.2239Z" fill="white"/>
</g>
<defs>
<clipPath id="clip0_27_325">
<rect width="90" height="90" fill="white"/>
</clipPath>
</defs>
</svg>
