<svg width="90" height="90" viewBox="0 0 90 90" fill="none" xmlns="http://www.w3.org/2000/svg">
<g clip-path="url(#clip0_27_337)">
<path d="M20.625 41.25C27.8625 41.25 33.75 35.3625 33.75 28.125C33.75 20.8875 27.8625 15 20.625 15C13.3875 15 7.49997 20.8875 7.49997 28.125C7.49997 35.3625 13.3875 41.25 20.625 41.25ZM20.625 22.5C23.7262 22.5 26.25 25.0238 26.25 28.125C26.25 31.2262 23.7262 33.75 20.625 33.75C17.5237 33.75 15 31.2262 15 28.125C15 25.0238 17.5237 22.5 20.625 22.5ZM33.1162 53.6775C31.9575 55.3988 29.6325 55.86 27.9112 54.705C25.755 53.2575 23.235 52.4963 20.625 52.4963C13.9237 52.4963 8.31747 57.51 7.57872 64.1587C7.36497 66.075 5.74122 67.4963 3.85497 67.4963C3.71997 67.4963 3.58122 67.4887 3.43872 67.4737C1.37997 67.245 -0.101277 65.3887 0.123723 63.3337C1.28247 52.8825 10.095 44.9963 20.625 44.9963C24.7275 44.9963 28.6875 46.1962 32.0887 48.4725C33.81 49.6275 34.2712 51.9562 33.1162 53.6775ZM58.125 26.25C65.3625 26.25 71.25 20.3625 71.25 13.125C71.25 5.8875 65.3625 0 58.125 0C50.8875 0 45 5.8875 45 13.125C45 20.3625 50.8875 26.25 58.125 26.25ZM58.125 7.5C61.2262 7.5 63.75 10.0238 63.75 13.125C63.75 16.2262 61.2262 18.75 58.125 18.75C55.0237 18.75 52.5 16.2262 52.5 13.125C52.5 10.0238 55.0237 7.5 58.125 7.5ZM63.75 37.5C49.2787 37.5 37.5 49.2788 37.5 63.75C37.5 78.2213 49.2787 90 63.75 90C78.2212 90 90 78.2213 90 63.75C90 49.2788 78.2212 37.5 63.75 37.5ZM63.75 82.5C53.4112 82.5 45 74.0888 45 63.75C45 53.4113 53.4112 45 63.75 45C74.0887 45 82.5 53.4113 82.5 63.75C82.5 74.0888 74.0887 82.5 63.75 82.5ZM75.8325 59.205C77.265 60.6975 77.2162 63.0712 75.7237 64.5075L67.425 72.4725C65.73 74.145 63.48 74.9887 61.2262 74.9887C58.9725 74.9887 56.715 74.145 54.99 72.4613L50.745 68.3025C49.2637 66.8512 49.245 64.4775 50.6925 63C52.14 61.5187 54.5137 61.4962 55.995 62.9475L60.2362 67.1025C60.7762 67.635 61.6575 67.6237 62.1937 67.095L70.53 59.0925C72.0187 57.6637 74.3962 57.705 75.8325 59.2012V59.205Z" fill="white"/>
</g>
<defs>
<clipPath id="clip0_27_337">
<rect width="90" height="90" fill="white"/>
</clipPath>
</defs>
</svg>
