<svg width="90" height="90" viewBox="0 0 90 90" fill="none" xmlns="http://www.w3.org/2000/svg">
<g clip-path="url(#clip0_27_346)">
<path d="M90 39.377C90 30.0732 82.4287 22.502 73.125 22.502H63.75V13.127C63.75 7.95945 59.5462 3.75195 54.375 3.75195H9.375C4.2075 3.75195 0 7.95945 0 13.127V26.252H3.75V13.127C3.75 10.0257 6.27375 7.50195 9.375 7.50195H54.375C57.4762 7.50195 60 10.0257 60 13.127V67.502H3.75V45.002H0V71.252H8.175C7.74 72.452 7.5 73.712 7.5 75.002C7.5 81.2045 12.5475 86.252 18.75 86.252C24.9525 86.252 30 81.2045 30 75.002C30 73.712 29.76 72.452 29.325 71.252H60.6713C60.2363 72.452 59.9963 73.7082 59.9963 75.002C59.9963 81.2045 65.0438 86.252 71.2463 86.252C77.4488 86.252 82.4963 81.2045 82.4963 75.002C82.4963 73.7082 82.2562 72.452 81.8213 71.252H89.9963L90 39.377ZM26.25 75.002C26.25 79.1382 22.8862 82.502 18.75 82.502C14.6137 82.502 11.25 79.1382 11.25 75.002C11.25 73.6745 11.6962 72.4107 12.39 71.252H25.11C25.8038 72.4107 26.25 73.6745 26.25 75.002ZM73.125 26.252C80.3625 26.252 86.25 32.1395 86.25 39.377V45.002H63.75V26.252H73.125ZM78.75 75.002C78.75 79.1382 75.3863 82.502 71.25 82.502C67.1137 82.502 63.75 79.1382 63.75 75.002C63.75 73.6707 64.1963 72.4107 64.89 71.252H77.61C78.3037 72.4107 78.75 73.6707 78.75 75.002ZM63.75 67.502V48.752H86.25V67.502H63.75ZM36.5363 37.502H0V33.752H36.5363L23.895 21.107L26.5462 18.4557L39.7388 31.6482C41.9325 33.842 41.9325 37.4082 39.7388 39.602L26.5462 52.7945L23.895 50.1432L36.5363 37.502Z" fill="white"/>
</g>
<defs>
<clipPath id="clip0_27_346">
<rect width="90" height="90" fill="white"/>
</clipPath>
</defs>
</svg>
